<ttFont>
    <TTGlyph name="A" xMin="-54" yMin="-8" xMax="592" yMax="662">
      <contour>
        <pt x="98" y="662" on="1"/>
        <pt x="212" y="651" on="0"/>
        <pt x="460" y="651" on="0"/>
        <pt x="574" y="662" on="1"/>
        <pt x="578" y="637" on="1"/>
        <pt x="533" y="623" on="0"/>
        <pt x="482" y="616" on="1"/>
        <pt x="469" y="520" on="0"/>
        <pt x="469" y="131" on="0"/>
        <pt x="482" y="35" on="1"/>
        <pt x="535" y="30" on="0"/>
        <pt x="592" y="16" on="1"/>
        <pt x="589" y="-8" on="1"/>
        <pt x="515" y="0" on="0"/>
        <pt x="342" y="0" on="0"/>
        <pt x="289" y="-8" on="1"/>
        <pt x="285" y="17" on="1"/>
        <pt x="330" y="31" on="0"/>
        <pt x="381" y="38" on="1"/>
        <pt x="389" y="104" on="0"/>
        <pt x="392" y="251" on="1"/>
        <pt x="340" y="257" on="0"/>
        <pt x="215" y="257" on="0"/>
        <pt x="172" y="251" on="1"/>
        <pt x="148" y="153" on="0"/>
        <pt x="148" y="35" on="0"/>
        <pt x="191" y="10" on="1"/>
        <pt x="187" y="-4" on="1"/>
        <pt x="156" y="0" on="0"/>
        <pt x="9" y="0" on="0"/>
        <pt x="-50" y="-8" on="1"/>
        <pt x="-54" y="17" on="1"/>
        <pt x="-9" y="31" on="0"/>
        <pt x="42" y="38" on="1"/>
        <pt x="206" y="619" on="1"/>
        <pt x="150" y="625" on="0"/>
        <pt x="95" y="638" on="1"/>
      </contour>
      <contour>
        <pt x="183" y="301" on="1"/>
        <pt x="228" y="294" on="0"/>
        <pt x="351" y="294" on="0"/>
        <pt x="392" y="301" on="1"/>
        <pt x="392" y="543" on="0"/>
        <pt x="382" y="611" on="1"/>
        <pt x="351" y="614" on="0"/>
        <pt x="290" y="614" on="0"/>
        <pt x="258" y="611" on="1"/>
      </contour>
    </TTGlyph>
    <TTGlyph name="AE" xMin="-64" yMin="-15" xMax="727" yMax="662">
      <contour>
        <pt x="134" y="662" on="1"/>
        <pt x="269" y="651" on="0"/>
        <pt x="588" y="651" on="0"/>
        <pt x="723" y="662" on="1"/>
        <pt x="727" y="642" on="1"/>
        <pt x="675" y="589" on="0"/>
        <pt x="668" y="484" on="1"/>
        <pt x="643" y="484" on="1"/>
        <pt x="634" y="527" on="0"/>
        <pt x="634" y="593" on="1"/>
        <pt x="591" y="614" on="0"/>
        <pt x="478" y="614" on="0"/>
        <pt x="450" y="609" on="1"/>
        <pt x="433" y="557" on="0"/>
        <pt x="425" y="365" on="1"/>
        <pt x="457" y="358" on="0"/>
        <pt x="502" y="358" on="1"/>
        <pt x="591" y="358" on="0"/>
        <pt x="611" y="401" on="1"/>
        <pt x="631" y="397" on="1"/>
        <pt x="622" y="365" on="0"/>
        <pt x="622" y="276" on="0"/>
        <pt x="628" y="233" on="1"/>
        <pt x="605" y="229" on="1"/>
        <pt x="590" y="267" on="0"/>
        <pt x="585" y="318" on="1"/>
        <pt x="548" y="321" on="0"/>
        <pt x="458" y="321" on="0"/>
        <pt x="424" y="316" on="1"/>
        <pt x="424" y="273" on="1"/>
        <pt x="424" y="178" on="0"/>
        <pt x="448" y="124" on="1"/>
        <pt x="474" y="64" on="0"/>
        <pt x="560" y="64" on="1"/>
        <pt x="632" y="64" on="0"/>
        <pt x="708" y="142" on="1"/>
        <pt x="722" y="129" on="1"/>
        <pt x="639" y="19" on="0"/>
        <pt x="539" y="-15" on="1"/>
        <pt x="428" y="-15" on="0"/>
        <pt x="342" y="121" on="0"/>
        <pt x="342" y="241" on="1"/>
        <pt x="342" y="246" on="0"/>
        <pt x="342" y="252" on="1"/>
        <pt x="343" y="315" on="1"/>
        <pt x="311" y="321" on="0"/>
        <pt x="220" y="321" on="0"/>
        <pt x="195" y="315" on="1"/>
        <pt x="181" y="269" on="1"/>
        <pt x="143" y="143" on="0"/>
        <pt x="143" y="32" on="0"/>
        <pt x="181" y="10" on="1"/>
        <pt x="177" y="-4" on="1"/>
        <pt x="146" y="0" on="0"/>
        <pt x="-1" y="0" on="0"/>
        <pt x="-60" y="-8" on="1"/>
        <pt x="-64" y="17" on="1"/>
        <pt x="-19" y="31" on="0"/>
        <pt x="32" y="38" on="1"/>
        <pt x="242" y="619" on="1"/>
        <pt x="185" y="625" on="0"/>
        <pt x="131" y="638" on="1"/>
      </contour>
      <contour>
        <pt x="213" y="364" on="1"/>
        <pt x="236" y="358" on="0"/>
        <pt x="320" y="358" on="0"/>
        <pt x="345" y="365" on="1"/>
        <pt x="351" y="475" on="0"/>
        <pt x="356" y="547" on="0"/>
        <pt x="356" y="595" on="0"/>
        <pt x="353" y="611" on="1"/>
        <pt x="340" y="614" on="0"/>
        <pt x="302" y="614" on="0"/>
        <pt x="285" y="611" on="1"/>
      </contour>
    </TTGlyph>
    <TTGlyph name="AEacute" xMin="-64" yMin="-15" xMax="727" yMax="868">
      <contour>
        <pt x="614" y="797" on="1"/>
        <pt x="408" y="722" on="1"/>
        <pt x="400" y="742" on="1"/>
        <pt x="482" y="778" on="0"/>
        <pt x="557" y="868" on="1"/>
        <pt x="579" y="866" on="0"/>
        <pt x="599" y="859" on="1"/>
        <pt x="604" y="850" on="0"/>
        <pt x="615" y="807" on="0"/>
      </contour>
      <contour>
        <pt x="134" y="662" on="1"/>
        <pt x="269" y="651" on="0"/>
        <pt x="588" y="651" on="0"/>
        <pt x="723" y="662" on="1"/>
        <pt x="727" y="642" on="1"/>
        <pt x="675" y="589" on="0"/>
        <pt x="668" y="484" on="1"/>
        <pt x="643" y="484" on="1"/>
        <pt x="634" y="527" on="0"/>
        <pt x="634" y="593" on="1"/>
        <pt x="591" y="614" on="0"/>
        <pt x="478" y="614" on="0"/>
        <pt x="450" y="609" on="1"/>
        <pt x="433" y="557" on="0"/>
        <pt x="425" y="365" on="1"/>
        <pt x="457" y="358" on="0"/>
        <pt x="502" y="358" on="1"/>
        <pt x="591" y="358" on="0"/>
        <pt x="611" y="401" on="1"/>
        <pt x="631" y="397" on="1"/>
        <pt x="622" y="365" on="0"/>
        <pt x="622" y="276" on="0"/>
        <pt x="628" y="233" on="1"/>
        <pt x="605" y="229" on="1"/>
        <pt x="590" y="267" on="0"/>
        <pt x="585" y="318" on="1"/>
        <pt x="548" y="321" on="0"/>
        <pt x="458" y="321" on="0"/>
        <pt x="424" y="316" on="1"/>
        <pt x="424" y="273" on="1"/>
        <pt x="424" y="178" on="0"/>
        <pt x="448" y="124" on="1"/>
        <pt x="474" y="64" on="0"/>
        <pt x="560" y="64" on="1"/>
        <pt x="632" y="64" on="0"/>
        <pt x="708" y="142" on="1"/>
        <pt x="722" y="129" on="1"/>
        <pt x="639" y="19" on="0"/>
        <pt x="539" y="-15" on="1"/>
        <pt x="428" y="-15" on="0"/>
        <pt x="342" y="121" on="0"/>
        <pt x="342" y="241" on="1"/>
        <pt x="342" y="246" on="0"/>
        <pt x="342" y="252" on="1"/>
        <pt x="343" y="315" on="1"/>
        <pt x="311" y="321" on="0"/>
        <pt x="220" y="321" on="0"/>
        <pt x="195" y="315" on="1"/>
        <pt x="181" y="269" on="1"/>
        <pt x="143" y="143" on="0"/>
        <pt x="143" y="32" on="0"/>
        <pt x="181" y="10" on="1"/>
        <pt x="177" y="-4" on="1"/>
        <pt x="146" y="0" on="0"/>
        <pt x="-1" y="0" on="0"/>
        <pt x="-60" y="-8" on="1"/>
        <pt x="-64" y="17" on="1"/>
        <pt x="-19" y="31" on="0"/>
        <pt x="32" y="38" on="1"/>
        <pt x="242" y="619" on="1"/>
        <pt x="185" y="625" on="0"/>
        <pt x="131" y="638" on="1"/>
      </contour>
      <contour>
        <pt x="213" y="364" on="1"/>
        <pt x="236" y="358" on="0"/>
        <pt x="320" y="358" on="0"/>
        <pt x="345" y="365" on="1"/>
        <pt x="351" y="475" on="0"/>
        <pt x="356" y="547" on="0"/>
        <pt x="356" y="595" on="0"/>
        <pt x="353" y="611" on="1"/>
        <pt x="340" y="614" on="0"/>
        <pt x="302" y="614" on="0"/>
        <pt x="285" y="611" on="1"/>
      </contour>
    </TTGlyph>
    <TTGlyph name="Aacute" xMin="-54" yMin="-8" xMax="592" yMax="868">
      <contour>
        <pt x="98" y="662" on="1"/>
        <pt x="212" y="651" on="0"/>
        <pt x="460" y="651" on="0"/>
        <pt x="574" y="662" on="1"/>
        <pt x="578" y="637" on="1"/>
        <pt x="533" y="623" on="0"/>
        <pt x="482" y="616" on="1"/>
        <pt x="469" y="520" on="0"/>
        <pt x="469" y="131" on="0"/>
        <pt x="482" y="35" on="1"/>
        <pt x="535" y="30" on="0"/>
        <pt x="592" y="16" on="1"/>
        <pt x="589" y="-8" on="1"/>
        <pt x="515" y="0" on="0"/>
        <pt x="342" y="0" on="0"/>
        <pt x="289" y="-8" on="1"/>
        <pt x="285" y="17" on="1"/>
        <pt x="330" y="31" on="0"/>
        <pt x="381" y="38" on="1"/>
        <pt x="389" y="104" on="0"/>
        <pt x="392" y="251" on="1"/>
        <pt x="340" y="257" on="0"/>
        <pt x="215" y="257" on="0"/>
        <pt x="172" y="251" on="1"/>
        <pt x="148" y="153" on="0"/>
        <pt x="148" y="35" on="0"/>
        <pt x="191" y="10" on="1"/>
        <pt x="187" y="-4" on="1"/>
        <pt x="156" y="0" on="0"/>
        <pt x="9" y="0" on="0"/>
        <pt x="-50" y="-8" on="1"/>
        <pt x="-54" y="17" on="1"/>
        <pt x="-9" y="31" on="0"/>
        <pt x="42" y="38" on="1"/>
        <pt x="206" y="619" on="1"/>
        <pt x="150" y="625" on="0"/>
        <pt x="95" y="638" on="1"/>
      </contour>
      <contour>
        <pt x="183" y="301" on="1"/>
        <pt x="228" y="294" on="0"/>
        <pt x="351" y="294" on="0"/>
        <pt x="392" y="301" on="1"/>
        <pt x="392" y="543" on="0"/>
        <pt x="382" y="611" on="1"/>
        <pt x="351" y="614" on="0"/>
        <pt x="290" y="614" on="0"/>
        <pt x="258" y="611" on="1"/>
      </contour>
      <contour>
        <pt x="529" y="797" on="1"/>
        <pt x="323" y="722" on="1"/>
        <pt x="315" y="742" on="1"/>
        <pt x="397" y="778" on="0"/>
        <pt x="472" y="868" on="1"/>
        <pt x="494" y="866" on="0"/>
        <pt x="514" y="859" on="1"/>
        <pt x="519" y="850" on="0"/>
        <pt x="530" y="807" on="0"/>
      </contour>
    </TTGlyph>
    <TTGlyph name="Abreve" xMin="-54" yMin="-8" xMax="592" yMax="854">
      <contour>
        <pt x="381" y="785" on="1"/>
        <pt x="451" y="785" on="0"/>
        <pt x="488" y="854" on="1"/>
        <pt x="506" y="843" on="1"/>
        <pt x="485" y="800" on="0"/>
        <pt x="411" y="734" on="0"/>
        <pt x="367" y="719" on="1"/>
        <pt x="318" y="719" on="0"/>
        <pt x="210" y="785" on="0"/>
        <pt x="191" y="829" on="1"/>
        <pt x="192" y="838" on="1"/>
        <pt x="235" y="840" on="0"/>
        <pt x="263" y="854" on="1"/>
        <pt x="267" y="854" on="1"/>
        <pt x="281" y="821" on="0"/>
        <pt x="343" y="785" on="0"/>
      </contour>
      <contour>
        <pt x="98" y="662" on="1"/>
        <pt x="212" y="651" on="0"/>
        <pt x="460" y="651" on="0"/>
        <pt x="574" y="662" on="1"/>
        <pt x="578" y="637" on="1"/>
        <pt x="533" y="623" on="0"/>
        <pt x="482" y="616" on="1"/>
        <pt x="469" y="520" on="0"/>
        <pt x="469" y="131" on="0"/>
        <pt x="482" y="35" on="1"/>
        <pt x="535" y="30" on="0"/>
        <pt x="592" y="16" on="1"/>
        <pt x="589" y="-8" on="1"/>
        <pt x="515" y="0" on="0"/>
        <pt x="342" y="0" on="0"/>
        <pt x="289" y="-8" on="1"/>
        <pt x="285" y="17" on="1"/>
        <pt x="330" y="31" on="0"/>
        <pt x="381" y="38" on="1"/>
        <pt x="389" y="104" on="0"/>
        <pt x="392" y="251" on="1"/>
        <pt x="340" y="257" on="0"/>
        <pt x="215" y="257" on="0"/>
        <pt x="172" y="251" on="1"/>
        <pt x="148" y="153" on="0"/>
        <pt x="148" y="35" on="0"/>
        <pt x="191" y="10" on="1"/>
        <pt x="187" y="-4" on="1"/>
        <pt x="156" y="0" on="0"/>
        <pt x="9" y="0" on="0"/>
        <pt x="-50" y="-8" on="1"/>
        <pt x="-54" y="17" on="1"/>
        <pt x="-9" y="31" on="0"/>
        <pt x="42" y="38" on="1"/>
        <pt x="206" y="619" on="1"/>
        <pt x="150" y="625" on="0"/>
        <pt x="95" y="638" on="1"/>
      </contour>
      <contour>
        <pt x="183" y="301" on="1"/>
        <pt x="228" y="294" on="0"/>
        <pt x="351" y="294" on="0"/>
        <pt x="392" y="301" on="1"/>
        <pt x="392" y="543" on="0"/>
        <pt x="382" y="611" on="1"/>
        <pt x="351" y="614" on="0"/>
        <pt x="290" y="614" on="0"/>
        <pt x="258" y="611" on="1"/>
      </contour>
    </TTGlyph>
    <TTGlyph name="Acircumflex" xMin="-54" yMin="-8" xMax="592" yMax="885">
      <contour>
        <pt x="98" y="662" on="1"/>
        <pt x="212" y="651" on="0"/>
        <pt x="460" y="651" on="0"/>
        <pt x="574" y="662" on="1"/>
        <pt x="578" y="637" on="1"/>
        <pt x="533" y="623" on="0"/>
        <pt x="482" y="616" on="1"/>
        <pt x="469" y="520" on="0"/>
        <pt x="469" y="131" on="0"/>
        <pt x="482" y="35" on="1"/>
        <pt x="535" y="30" on="0"/>
        <pt x="592" y="16" on="1"/>
        <pt x="589" y="-8" on="1"/>
        <pt x="515" y="0" on="0"/>
        <pt x="342" y="0" on="0"/>
        <pt x="289" y="-8" on="1"/>
        <pt x="285" y="17" on="1"/>
        <pt x="330" y="31" on="0"/>
        <pt x="381" y="38" on="1"/>
        <pt x="389" y="104" on="0"/>
        <pt x="392" y="251" on="1"/>
        <pt x="340" y="257" on="0"/>
        <pt x="215" y="257" on="0"/>
        <pt x="172" y="251" on="1"/>
        <pt x="148" y="153" on="0"/>
        <pt x="148" y="35" on="0"/>
        <pt x="191" y="10" on="1"/>
        <pt x="187" y="-4" on="1"/>
        <pt x="156" y="0" on="0"/>
        <pt x="9" y="0" on="0"/>
        <pt x="-50" y="-8" on="1"/>
        <pt x="-54" y="17" on="1"/>
        <pt x="-9" y="31" on="0"/>
        <pt x="42" y="38" on="1"/>
        <pt x="206" y="619" on="1"/>
        <pt x="150" y="625" on="0"/>
        <pt x="95" y="638" on="1"/>
      </contour>
      <contour>
        <pt x="183" y="301" on="1"/>
        <pt x="228" y="294" on="0"/>
        <pt x="351" y="294" on="0"/>
        <pt x="392" y="301" on="1"/>
        <pt x="392" y="543" on="0"/>
        <pt x="382" y="611" on="1"/>
        <pt x="351" y="614" on="0"/>
        <pt x="290" y="614" on="0"/>
        <pt x="258" y="611" on="1"/>
      </contour>
      <contour>
        <pt x="509" y="715" on="1"/>
        <pt x="348" y="790" on="1"/>
        <pt x="187" y="715" on="1"/>
        <pt x="177" y="734" on="1"/>
        <pt x="269" y="792" on="0"/>
        <pt x="338" y="885" on="1"/>
        <pt x="358" y="885" on="1"/>
        <pt x="427" y="792" on="0"/>
        <pt x="519" y="734" on="1"/>
      </contour>
    </TTGlyph>
    <TTGlyph name="Adieresis" xMin="-54" yMin="-8" xMax="592" yMax="853">
      <contour>
        <pt x="98" y="662" on="1"/>
        <pt x="212" y="651" on="0"/>
        <pt x="460" y="651" on="0"/>
        <pt x="574" y="662" on="1"/>
        <pt x="578" y="637" on="1"/>
        <pt x="533" y="623" on="0"/>
        <pt x="482" y="616" on="1"/>
        <pt x="469" y="520" on="0"/>
        <pt x="469" y="131" on="0"/>
        <pt x="482" y="35" on="1"/>
        <pt x="535" y="30" on="0"/>
        <pt x="592" y="16" on="1"/>
        <pt x="589" y="-8" on="1"/>
        <pt x="515" y="0" on="0"/>
        <pt x="342" y="0" on="0"/>
        <pt x="289" y="-8" on="1"/>
        <pt x="285" y="17" on="1"/>
        <pt x="330" y="31" on="0"/>
        <pt x="381" y="38" on="1"/>
        <pt x="389" y="104" on="0"/>
        <pt x="392" y="251" on="1"/>
        <pt x="340" y="257" on="0"/>
        <pt x="215" y="257" on="0"/>
        <pt x="172" y="251" on="1"/>
        <pt x="148" y="153" on="0"/>
        <pt x="148" y="35" on="0"/>
        <pt x="191" y="10" on="1"/>
        <pt x="187" y="-4" on="1"/>
        <pt x="156" y="0" on="0"/>
        <pt x="9" y="0" on="0"/>
        <pt x="-50" y="-8" on="1"/>
        <pt x="-54" y="17" on="1"/>
        <pt x="-9" y="31" on="0"/>
        <pt x="42" y="38" on="1"/>
        <pt x="206" y="619" on="1"/>
        <pt x="150" y="625" on="0"/>
        <pt x="95" y="638" on="1"/>
      </contour>
      <contour>
        <pt x="183" y="301" on="1"/>
        <pt x="228" y="294" on="0"/>
        <pt x="351" y="294" on="0"/>
        <pt x="392" y="301" on="1"/>
        <pt x="392" y="543" on="0"/>
        <pt x="382" y="611" on="1"/>
        <pt x="351" y="614" on="0"/>
        <pt x="290" y="614" on="0"/>
        <pt x="258" y="611" on="1"/>
      </contour>
      <contour>
        <pt x="310" y="803" on="1"/>
        <pt x="303" y="790" on="0"/>
        <pt x="268" y="750" on="0"/>
        <pt x="256" y="742" on="1"/>
        <pt x="244" y="750" on="0"/>
        <pt x="209" y="790" on="0"/>
        <pt x="202" y="803" on="1"/>
        <pt x="208" y="815" on="0"/>
        <pt x="242" y="846" on="0"/>
        <pt x="256" y="853" on="1"/>
        <pt x="269" y="845" on="0"/>
        <pt x="303" y="814" on="0"/>
      </contour>
      <contour>
        <pt x="495" y="803" on="1"/>
        <pt x="488" y="790" on="0"/>
        <pt x="453" y="750" on="0"/>
        <pt x="441" y="742" on="1"/>
        <pt x="429" y="750" on="0"/>
        <pt x="394" y="790" on="0"/>
        <pt x="387" y="803" on="1"/>
        <pt x="393" y="815" on="0"/>
        <pt x="427" y="846" on="0"/>
        <pt x="441" y="853" on="1"/>
        <pt x="454" y="845" on="0"/>
        <pt x="488" y="814" on="0"/>
      </contour>
    </TTGlyph>
    <TTGlyph name="Agrave" xMin="-54" yMin="-8" xMax="592" yMax="877">
      <contour>
        <pt x="98" y="662" on="1"/>
        <pt x="212" y="651" on="0"/>
        <pt x="460" y="651" on="0"/>
        <pt x="574" y="662" on="1"/>
        <pt x="578" y="637" on="1"/>
        <pt x="533" y="623" on="0"/>
        <pt x="482" y="616" on="1"/>
        <pt x="469" y="520" on="0"/>
        <pt x="469" y="131" on="0"/>
        <pt x="482" y="35" on="1"/>
        <pt x="535" y="30" on="0"/>
        <pt x="592" y="16" on="1"/>
        <pt x="589" y="-8" on="1"/>
        <pt x="515" y="0" on="0"/>
        <pt x="342" y="0" on="0"/>
        <pt x="289" y="-8" on="1"/>
        <pt x="285" y="17" on="1"/>
        <pt x="330" y="31" on="0"/>
        <pt x="381" y="38" on="1"/>
        <pt x="389" y="104" on="0"/>
        <pt x="392" y="251" on="1"/>
        <pt x="340" y="257" on="0"/>
        <pt x="215" y="257" on="0"/>
        <pt x="172" y="251" on="1"/>
        <pt x="148" y="153" on="0"/>
        <pt x="148" y="35" on="0"/>
        <pt x="191" y="10" on="1"/>
        <pt x="187" y="-4" on="1"/>
        <pt x="156" y="0" on="0"/>
        <pt x="9" y="0" on="0"/>
        <pt x="-50" y="-8" on="1"/>
        <pt x="-54" y="17" on="1"/>
        <pt x="-9" y="31" on="0"/>
        <pt x="42" y="38" on="1"/>
        <pt x="206" y="619" on="1"/>
        <pt x="150" y="625" on="0"/>
        <pt x="95" y="638" on="1"/>
      </contour>
      <contour>
        <pt x="183" y="301" on="1"/>
        <pt x="228" y="294" on="0"/>
        <pt x="351" y="294" on="0"/>
        <pt x="392" y="301" on="1"/>
        <pt x="392" y="543" on="0"/>
        <pt x="382" y="611" on="1"/>
        <pt x="351" y="614" on="0"/>
        <pt x="290" y="614" on="0"/>
        <pt x="258" y="611" on="1"/>
      </contour>
      <contour>
        <pt x="370" y="731" on="1"/>
        <pt x="164" y="806" on="1"/>
        <pt x="163" y="816" on="0"/>
        <pt x="174" y="859" on="0"/>
        <pt x="179" y="868" on="1"/>
        <pt x="199" y="875" on="0"/>
        <pt x="221" y="877" on="1"/>
        <pt x="296" y="787" on="0"/>
        <pt x="378" y="751" on="1"/>
      </contour>
    </TTGlyph>
    <TTGlyph name="Amacron" xMin="-54" yMin="-8" xMax="592" yMax="829">
      <contour>
        <pt x="265" y="826" on="1"/>
        <pt x="314" y="823" on="0"/>
        <pt x="432" y="823" on="0"/>
        <pt x="477" y="827" on="1"/>
        <pt x="485" y="822" on="1"/>
        <pt x="476" y="776" on="1"/>
        <pt x="220" y="773" on="1"/>
        <pt x="211" y="779" on="1"/>
        <pt x="220" y="829" on="1"/>
      </contour>
      <contour>
        <pt x="98" y="662" on="1"/>
        <pt x="212" y="651" on="0"/>
        <pt x="460" y="651" on="0"/>
        <pt x="574" y="662" on="1"/>
        <pt x="578" y="637" on="1"/>
        <pt x="533" y="623" on="0"/>
        <pt x="482" y="616" on="1"/>
        <pt x="469" y="520" on="0"/>
        <pt x="469" y="131" on="0"/>
        <pt x="482" y="35" on="1"/>
        <pt x="535" y="30" on="0"/>
        <pt x="592" y="16" on="1"/>
        <pt x="589" y="-8" on="1"/>
        <pt x="515" y="0" on="0"/>
        <pt x="342" y="0" on="0"/>
        <pt x="289" y="-8" on="1"/>
        <pt x="285" y="17" on="1"/>
        <pt x="330" y="31" on="0"/>
        <pt x="381" y="38" on="1"/>
        <pt x="389" y="104" on="0"/>
        <pt x="392" y="251" on="1"/>
        <pt x="340" y="257" on="0"/>
        <pt x="215" y="257" on="0"/>
        <pt x="172" y="251" on="1"/>
        <pt x="148" y="153" on="0"/>
        <pt x="148" y="35" on="0"/>
        <pt x="191" y="10" on="1"/>
        <pt x="187" y="-4" on="1"/>
        <pt x="156" y="0" on="0"/>
        <pt x="9" y="0" on="0"/>
        <pt x="-50" y="-8" on="1"/>
        <pt x="-54" y="17" on="1"/>
        <pt x="-9" y="31" on="0"/>
        <pt x="42" y="38" on="1"/>
        <pt x="206" y="619" on="1"/>
        <pt x="150" y="625" on="0"/>
        <pt x="95" y="638" on="1"/>
      </contour>
      <contour>
        <pt x="183" y="301" on="1"/>
        <pt x="228" y="294" on="0"/>
        <pt x="351" y="294" on="0"/>
        <pt x="392" y="301" on="1"/>
        <pt x="392" y="543" on="0"/>
        <pt x="382" y="611" on="1"/>
        <pt x="351" y="614" on="0"/>
        <pt x="290" y="614" on="0"/>
        <pt x="258" y="611" on="1"/>
      </contour>
    </TTGlyph>
    <TTGlyph name="Aogonek" xMin="-54" yMin="-215" xMax="592" yMax="662">
      <contour>
        <pt x="98" y="662" on="1"/>
        <pt x="212" y="651" on="0"/>
        <pt x="460" y="651" on="0"/>
        <pt x="574" y="662" on="1"/>
        <pt x="578" y="637" on="1"/>
        <pt x="533" y="623" on="0"/>
        <pt x="482" y="616" on="1"/>
        <pt x="469" y="520" on="0"/>
        <pt x="469" y="131" on="0"/>
        <pt x="482" y="35" on="1"/>
        <pt x="535" y="30" on="0"/>
        <pt x="592" y="16" on="1"/>
        <pt x="589" y="-8" on="1"/>
        <pt x="515" y="0" on="0"/>
        <pt x="433" y="0" on="1"/>
        <pt x="384" y="0" on="0"/>
        <pt x="304" y="-58" on="0"/>
        <pt x="304" y="-102" on="1"/>
        <pt x="304" y="-164" on="0"/>
        <pt x="370" y="-164" on="1"/>
        <pt x="392" y="-164" on="0"/>
        <pt x="407" y="-160" on="1"/>
        <pt x="407" y="-169" on="1"/>
        <pt x="376" y="-190" on="0"/>
        <pt x="358" y="-215" on="1"/>
        <pt x="298" y="-215" on="0"/>
        <pt x="238" y="-169" on="0"/>
        <pt x="238" y="-113" on="1"/>
        <pt x="255" y="-69" on="0"/>
        <pt x="333" y="-3" on="1"/>
        <pt x="381" y="38" on="1"/>
        <pt x="389" y="104" on="0"/>
        <pt x="392" y="251" on="1"/>
        <pt x="340" y="257" on="0"/>
        <pt x="215" y="257" on="0"/>
        <pt x="172" y="251" on="1"/>
        <pt x="148" y="153" on="0"/>
        <pt x="148" y="35" on="0"/>
        <pt x="191" y="10" on="1"/>
        <pt x="187" y="-4" on="1"/>
        <pt x="156" y="0" on="0"/>
        <pt x="9" y="0" on="0"/>
        <pt x="-50" y="-8" on="1"/>
        <pt x="-54" y="17" on="1"/>
        <pt x="-9" y="31" on="0"/>
        <pt x="42" y="38" on="1"/>
        <pt x="206" y="619" on="1"/>
        <pt x="150" y="625" on="0"/>
        <pt x="95" y="638" on="1"/>
      </contour>
      <contour>
        <pt x="183" y="301" on="1"/>
        <pt x="228" y="294" on="0"/>
        <pt x="351" y="294" on="0"/>
        <pt x="392" y="301" on="1"/>
        <pt x="392" y="543" on="0"/>
        <pt x="382" y="611" on="1"/>
        <pt x="351" y="614" on="0"/>
        <pt x="290" y="614" on="0"/>
        <pt x="258" y="611" on="1"/>
      </contour>
    </TTGlyph>
    <TTGlyph name="Aring" xMin="-54" yMin="-8" xMax="592" yMax="885">
      <contour>
        <pt x="98" y="662" on="1"/>
        <pt x="212" y="651" on="0"/>
        <pt x="460" y="651" on="0"/>
        <pt x="574" y="662" on="1"/>
        <pt x="578" y="637" on="1"/>
        <pt x="533" y="623" on="0"/>
        <pt x="482" y="616" on="1"/>
        <pt x="469" y="520" on="0"/>
        <pt x="469" y="131" on="0"/>
        <pt x="482" y="35" on="1"/>
        <pt x="535" y="30" on="0"/>
        <pt x="592" y="16" on="1"/>
        <pt x="589" y="-8" on="1"/>
        <pt x="515" y="0" on="0"/>
        <pt x="342" y="0" on="0"/>
        <pt x="289" y="-8" on="1"/>
        <pt x="285" y="17" on="1"/>
        <pt x="330" y="31" on="0"/>
        <pt x="381" y="38" on="1"/>
        <pt x="389" y="104" on="0"/>
        <pt x="392" y="251" on="1"/>
        <pt x="340" y="257" on="0"/>
        <pt x="215" y="257" on="0"/>
        <pt x="172" y="251" on="1"/>
        <pt x="148" y="153" on="0"/>
        <pt x="148" y="35" on="0"/>
        <pt x="191" y="10" on="1"/>
        <pt x="187" y="-4" on="1"/>
        <pt x="156" y="0" on="0"/>
        <pt x="9" y="0" on="0"/>
        <pt x="-50" y="-8" on="1"/>
        <pt x="-54" y="17" on="1"/>
        <pt x="-9" y="31" on="0"/>
        <pt x="42" y="38" on="1"/>
        <pt x="206" y="619" on="1"/>
        <pt x="150" y="625" on="0"/>
        <pt x="95" y="638" on="1"/>
      </contour>
      <contour>
        <pt x="183" y="301" on="1"/>
        <pt x="228" y="294" on="0"/>
        <pt x="351" y="294" on="0"/>
        <pt x="392" y="301" on="1"/>
        <pt x="392" y="543" on="0"/>
        <pt x="382" y="611" on="1"/>
        <pt x="351" y="614" on="0"/>
        <pt x="290" y="614" on="0"/>
        <pt x="258" y="611" on="1"/>
      </contour>
      <contour>
        <pt x="299" y="704" on="0"/>
        <pt x="243" y="742" on="0"/>
        <pt x="243" y="817" on="0"/>
        <pt x="302" y="876" on="0"/>
        <pt x="345" y="885" on="1"/>
        <pt x="436" y="885" on="0"/>
        <pt x="436" y="811" on="1"/>
        <pt x="436" y="772" on="0"/>
        <pt x="383" y="717" on="0"/>
        <pt x="340" y="704" on="1"/>
      </contour>
      <contour>
        <pt x="389" y="818" on="0"/>
        <pt x="358" y="850" on="0"/>
        <pt x="312" y="850" on="0"/>
        <pt x="301" y="841" on="1"/>
        <pt x="290" y="824" on="0"/>
        <pt x="290" y="772" on="0"/>
        <pt x="322" y="739" on="0"/>
        <pt x="368" y="739" on="0"/>
        <pt x="378" y="748" on="1"/>
        <pt x="389" y="764" on="0"/>
      </contour>
    </TTGlyph>
    <TTGlyph name="Atilde" xMin="-54" yMin="-8" xMax="592" yMax="837">
      <contour>
        <pt x="98" y="662" on="1"/>
        <pt x="212" y="651" on="0"/>
        <pt x="460" y="651" on="0"/>
        <pt x="574" y="662" on="1"/>
        <pt x="578" y="637" on="1"/>
        <pt x="533" y="623" on="0"/>
        <pt x="482" y="616" on="1"/>
        <pt x="469" y="520" on="0"/>
        <pt x="469" y="131" on="0"/>
        <pt x="482" y="35" on="1"/>
        <pt x="535" y="30" on="0"/>
        <pt x="592" y="16" on="1"/>
        <pt x="589" y="-8" on="1"/>
        <pt x="515" y="0" on="0"/>
        <pt x="342" y="0" on="0"/>
        <pt x="289" y="-8" on="1"/>
        <pt x="285" y="17" on="1"/>
        <pt x="330" y="31" on="0"/>
        <pt x="381" y="38" on="1"/>
        <pt x="389" y="104" on="0"/>
        <pt x="392" y="251" on="1"/>
        <pt x="340" y="257" on="0"/>
        <pt x="215" y="257" on="0"/>
        <pt x="172" y="251" on="1"/>
        <pt x="148" y="153" on="0"/>
        <pt x="148" y="35" on="0"/>
        <pt x="191" y="10" on="1"/>
        <pt x="187" y="-4" on="1"/>
        <pt x="156" y="0" on="0"/>
        <pt x="9" y="0" on="0"/>
        <pt x="-50" y="-8" on="1"/>
        <pt x="-54" y="17" on="1"/>
        <pt x="-9" y="31" on="0"/>
        <pt x="42" y="38" on="1"/>
        <pt x="206" y="619" on="1"/>
        <pt x="150" y="625" on="0"/>
        <pt x="95" y="638" on="1"/>
      </contour>
      <contour>
        <pt x="183" y="301" on="1"/>
        <pt x="228" y="294" on="0"/>
        <pt x="351" y="294" on="0"/>
        <pt x="392" y="301" on="1"/>
        <pt x="392" y="543" on="0"/>
        <pt x="382" y="611" on="1"/>
        <pt x="351" y="614" on="0"/>
        <pt x="290" y="614" on="0"/>
        <pt x="258" y="611" on="1"/>
      </contour>
      <contour>
        <pt x="311" y="837" on="1"/>
        <pt x="370" y="806" on="0"/>
        <pt x="475" y="806" on="0"/>
        <pt x="495" y="830" on="1"/>
        <pt x="513" y="819" on="1"/>
        <pt x="457" y="758" on="0"/>
        <pt x="409" y="737" on="1"/>
        <pt x="388" y="737" on="0"/>
        <pt x="285" y="768" on="0"/>
        <pt x="264" y="768" on="1"/>
        <pt x="221" y="768" on="0"/>
        <pt x="201" y="744" on="1"/>
        <pt x="183" y="755" on="1"/>
        <pt x="239" y="816" on="0"/>
      </contour>
    </TTGlyph>
    <TTGlyph name="B" xMin="16" yMin="-22" xMax="528" yMax="658">
      <contour>
        <pt x="16" y="649" on="1"/>
        <pt x="304" y="658" on="1"/>
        <pt x="425" y="658" on="0"/>
        <pt x="463" y="628" on="1"/>
        <pt x="500" y="600" on="0"/>
        <pt x="500" y="486" on="0"/>
        <pt x="422" y="395" on="0"/>
        <pt x="366" y="372" on="1"/>
        <pt x="366" y="368" on="1"/>
        <pt x="438" y="368" on="0"/>
        <pt x="528" y="302" on="0"/>
        <pt x="528" y="237" on="1"/>
        <pt x="528" y="157" on="0"/>
        <pt x="379" y="8" on="0"/>
        <pt x="292" y="-15" on="1"/>
        <pt x="229" y="-15" on="0"/>
        <pt x="145" y="23" on="1"/>
        <pt x="128" y="-3" on="0"/>
        <pt x="122" y="-22" on="1"/>
        <pt x="101" y="-17" on="1"/>
        <pt x="125" y="92" on="0"/>
        <pt x="125" y="514" on="0"/>
        <pt x="114" y="608" on="1"/>
        <pt x="66" y="624" on="0"/>
        <pt x="16" y="624" on="1"/>
      </contour>
      <contour>
        <pt x="263" y="382" on="1"/>
        <pt x="337" y="382" on="0"/>
        <pt x="370" y="403" on="1"/>
        <pt x="406" y="443" on="0"/>
        <pt x="406" y="509" on="1"/>
        <pt x="406" y="621" on="0"/>
        <pt x="287" y="621" on="1"/>
        <pt x="247" y="621" on="0"/>
        <pt x="211" y="608" on="1"/>
        <pt x="202" y="514" on="0"/>
        <pt x="202" y="173" on="0"/>
        <pt x="207" y="85" on="1"/>
        <pt x="259" y="57" on="0"/>
        <pt x="378" y="57" on="0"/>
        <pt x="413" y="81" on="1"/>
        <pt x="436" y="130" on="0"/>
        <pt x="436" y="191" on="1"/>
        <pt x="436" y="345" on="0"/>
        <pt x="246" y="345" on="1"/>
        <pt x="251" y="382" on="1"/>
      </contour>
    </TTGlyph>
    <TTGlyph name="C" xMin="42" yMin="-15" xMax="519" yMax="666">
      <contour>
        <pt x="304" y="64" on="1"/>
        <pt x="385" y="64" on="0"/>
        <pt x="467" y="142" on="1"/>
        <pt x="481" y="129" on="1"/>
        <pt x="398" y="23" on="0"/>
        <pt x="283" y="-15" on="1"/>
        <pt x="163" y="-15" on="0"/>
        <pt x="42" y="136" on="0"/>
        <pt x="42" y="403" on="0"/>
        <pt x="189" y="632" on="0"/>
        <pt x="313" y="666" on="1"/>
        <pt x="414" y="666" on="0"/>
        <pt x="519" y="647" on="1"/>
        <pt x="518" y="625" on="1"/>
        <pt x="492" y="625" on="0"/>
        <pt x="470" y="616" on="1"/>
        <pt x="445" y="557" on="0"/>
        <pt x="437" y="478" on="1"/>
        <pt x="412" y="478" on="1"/>
        <pt x="403" y="518" on="0"/>
        <pt x="403" y="571" on="1"/>
        <pt x="356" y="596" on="0"/>
        <pt x="225" y="596" on="0"/>
        <pt x="182" y="560" on="1"/>
        <pt x="131" y="473" on="0"/>
        <pt x="131" y="339" on="1"/>
        <pt x="131" y="139" on="0"/>
        <pt x="217" y="86" on="1"/>
        <pt x="253" y="64" on="0"/>
      </contour>
    </TTGlyph>
    <TTGlyph name="Cacute" xMin="42" yMin="-15" xMax="519" yMax="868">
      <contour>
        <pt x="477" y="797" on="1"/>
        <pt x="271" y="722" on="1"/>
        <pt x="263" y="742" on="1"/>
        <pt x="345" y="778" on="0"/>
        <pt x="420" y="868" on="1"/>
        <pt x="442" y="866" on="0"/>
        <pt x="462" y="859" on="1"/>
        <pt x="467" y="850" on="0"/>
        <pt x="478" y="807" on="0"/>
      </contour>
      <contour>
        <pt x="304" y="64" on="1"/>
        <pt x="385" y="64" on="0"/>
        <pt x="467" y="142" on="1"/>
        <pt x="481" y="129" on="1"/>
        <pt x="398" y="23" on="0"/>
        <pt x="283" y="-15" on="1"/>
        <pt x="163" y="-15" on="0"/>
        <pt x="42" y="136" on="0"/>
        <pt x="42" y="403" on="0"/>
        <pt x="189" y="632" on="0"/>
        <pt x="313" y="666" on="1"/>
        <pt x="414" y="666" on="0"/>
        <pt x="519" y="647" on="1"/>
        <pt x="518" y="625" on="1"/>
        <pt x="492" y="625" on="0"/>
        <pt x="470" y="616" on="1"/>
        <pt x="445" y="557" on="0"/>
        <pt x="437" y="478" on="1"/>
        <pt x="412" y="478" on="1"/>
        <pt x="403" y="518" on="0"/>
        <pt x="403" y="571" on="1"/>
        <pt x="356" y="596" on="0"/>
        <pt x="225" y="596" on="0"/>
        <pt x="182" y="560" on="1"/>
        <pt x="131" y="473" on="0"/>
        <pt x="131" y="339" on="1"/>
        <pt x="131" y="139" on="0"/>
        <pt x="217" y="86" on="1"/>
        <pt x="253" y="64" on="0"/>
      </contour>
    </TTGlyph>
    <TTGlyph name="Ccaron" xMin="42" yMin="-15" xMax="519" yMax="885">
      <contour>
        <pt x="304" y="810" on="1"/>
        <pt x="465" y="885" on="1"/>
        <pt x="475" y="866" on="1"/>
        <pt x="383" y="808" on="0"/>
        <pt x="314" y="715" on="1"/>
        <pt x="294" y="715" on="1"/>
        <pt x="225" y="808" on="0"/>
        <pt x="133" y="866" on="1"/>
        <pt x="143" y="885" on="1"/>
      </contour>
      <contour>
        <pt x="304" y="64" on="1"/>
        <pt x="385" y="64" on="0"/>
        <pt x="467" y="142" on="1"/>
        <pt x="481" y="129" on="1"/>
        <pt x="398" y="23" on="0"/>
        <pt x="283" y="-15" on="1"/>
        <pt x="163" y="-15" on="0"/>
        <pt x="42" y="136" on="0"/>
        <pt x="42" y="403" on="0"/>
        <pt x="189" y="632" on="0"/>
        <pt x="313" y="666" on="1"/>
        <pt x="414" y="666" on="0"/>
        <pt x="519" y="647" on="1"/>
        <pt x="518" y="625" on="1"/>
        <pt x="492" y="625" on="0"/>
        <pt x="470" y="616" on="1"/>
        <pt x="445" y="557" on="0"/>
        <pt x="437" y="478" on="1"/>
        <pt x="412" y="478" on="1"/>
        <pt x="403" y="518" on="0"/>
        <pt x="403" y="571" on="1"/>
        <pt x="356" y="596" on="0"/>
        <pt x="225" y="596" on="0"/>
        <pt x="182" y="560" on="1"/>
        <pt x="131" y="473" on="0"/>
        <pt x="131" y="339" on="1"/>
        <pt x="131" y="139" on="0"/>
        <pt x="217" y="86" on="1"/>
        <pt x="253" y="64" on="0"/>
      </contour>
    </TTGlyph>
    <TTGlyph name="Ccedilla" xMin="42" yMin="-215" xMax="519" yMax="666">
      <contour>
        <pt x="304" y="64" on="1"/>
        <pt x="253" y="64" on="0"/>
        <pt x="217" y="86" on="1"/>
        <pt x="131" y="139" on="0"/>
        <pt x="131" y="339" on="1"/>
        <pt x="131" y="473" on="0"/>
        <pt x="182" y="560" on="1"/>
        <pt x="225" y="596" on="0"/>
        <pt x="356" y="596" on="0"/>
        <pt x="403" y="571" on="1"/>
        <pt x="403" y="518" on="0"/>
        <pt x="412" y="478" on="1"/>
        <pt x="437" y="478" on="1"/>
        <pt x="445" y="557" on="0"/>
        <pt x="470" y="616" on="1"/>
        <pt x="492" y="625" on="0"/>
        <pt x="518" y="625" on="1"/>
        <pt x="519" y="647" on="1"/>
        <pt x="414" y="666" on="0"/>
        <pt x="313" y="666" on="1"/>
        <pt x="189" y="632" on="0"/>
        <pt x="42" y="403" on="0"/>
        <pt x="42" y="136" on="0"/>
        <pt x="163" y="-15" on="0"/>
        <pt x="283" y="-15" on="1"/>
        <pt x="398" y="23" on="0"/>
        <pt x="481" y="129" on="1"/>
        <pt x="467" y="142" on="1"/>
        <pt x="385" y="64" on="0"/>
      </contour>
      <contour>
        <pt x="263" y="-178" on="1"/>
        <pt x="281" y="-178" on="0"/>
        <pt x="289" y="-173" on="1"/>
        <pt x="298" y="-160" on="0"/>
        <pt x="298" y="-142" on="1"/>
        <pt x="298" y="-97" on="0"/>
        <pt x="215" y="-97" on="1"/>
        <pt x="209" y="-93" on="1"/>
        <pt x="247" y="14" on="1"/>
        <pt x="276" y="16" on="1"/>
        <pt x="252" y="-46" on="1"/>
        <pt x="256" y="-49" on="1"/>
        <pt x="302" y="-49" on="0"/>
        <pt x="359" y="-91" on="0"/>
        <pt x="359" y="-133" on="1"/>
        <pt x="345" y="-160" on="0"/>
        <pt x="292" y="-205" on="0"/>
        <pt x="263" y="-215" on="1"/>
        <pt x="219" y="-215" on="0"/>
        <pt x="175" y="-194" on="1"/>
        <pt x="185" y="-175" on="0"/>
        <pt x="191" y="-155" on="1"/>
        <pt x="195" y="-153" on="1"/>
        <pt x="227" y="-178" on="0"/>
      </contour>
    </TTGlyph>
    <TTGlyph name="Ccircumflex" xMin="42" yMin="-15" xMax="519" yMax="885">
      <contour>
        <pt x="465" y="715" on="1"/>
        <pt x="304" y="790" on="1"/>
        <pt x="143" y="715" on="1"/>
        <pt x="133" y="734" on="1"/>
        <pt x="225" y="792" on="0"/>
        <pt x="294" y="885" on="1"/>
        <pt x="314" y="885" on="1"/>
        <pt x="383" y="792" on="0"/>
        <pt x="475" y="734" on="1"/>
      </contour>
      <contour>
        <pt x="304" y="64" on="1"/>
        <pt x="385" y="64" on="0"/>
        <pt x="467" y="142" on="1"/>
        <pt x="481" y="129" on="1"/>
        <pt x="398" y="23" on="0"/>
        <pt x="283" y="-15" on="1"/>
        <pt x="163" y="-15" on="0"/>
        <pt x="42" y="136" on="0"/>
        <pt x="42" y="403" on="0"/>
        <pt x="189" y="632" on="0"/>
        <pt x="313" y="666" on="1"/>
        <pt x="414" y="666" on="0"/>
        <pt x="519" y="647" on="1"/>
        <pt x="518" y="625" on="1"/>
        <pt x="492" y="625" on="0"/>
        <pt x="470" y="616" on="1"/>
        <pt x="445" y="557" on="0"/>
        <pt x="437" y="478" on="1"/>
        <pt x="412" y="478" on="1"/>
        <pt x="403" y="518" on="0"/>
        <pt x="403" y="571" on="1"/>
        <pt x="356" y="596" on="0"/>
        <pt x="225" y="596" on="0"/>
        <pt x="182" y="560" on="1"/>
        <pt x="131" y="473" on="0"/>
        <pt x="131" y="339" on="1"/>
        <pt x="131" y="139" on="0"/>
        <pt x="217" y="86" on="1"/>
        <pt x="253" y="64" on="0"/>
      </contour>
    </TTGlyph>
    <TTGlyph name="Cdotaccent" xMin="42" yMin="-15" xMax="519" yMax="853">
      <contour>
        <pt x="304" y="64" on="1"/>
        <pt x="385" y="64" on="0"/>
        <pt x="467" y="142" on="1"/>
        <pt x="481" y="129" on="1"/>
        <pt x="398" y="23" on="0"/>
        <pt x="283" y="-15" on="1"/>
        <pt x="163" y="-15" on="0"/>
        <pt x="42" y="136" on="0"/>
        <pt x="42" y="403" on="0"/>
        <pt x="189" y="632" on="0"/>
        <pt x="313" y="666" on="1"/>
        <pt x="414" y="666" on="0"/>
        <pt x="519" y="647" on="1"/>
        <pt x="518" y="625" on="1"/>
        <pt x="492" y="625" on="0"/>
        <pt x="470" y="616" on="1"/>
        <pt x="445" y="557" on="0"/>
        <pt x="437" y="478" on="1"/>
        <pt x="412" y="478" on="1"/>
        <pt x="403" y="518" on="0"/>
        <pt x="403" y="571" on="1"/>
        <pt x="356" y="596" on="0"/>
        <pt x="225" y="596" on="0"/>
        <pt x="182" y="560" on="1"/>
        <pt x="131" y="473" on="0"/>
        <pt x="131" y="339" on="1"/>
        <pt x="131" y="139" on="0"/>
        <pt x="217" y="86" on="1"/>
        <pt x="253" y="64" on="0"/>
      </contour>
      <contour>
        <pt x="358" y="803" on="1"/>
        <pt x="351" y="790" on="0"/>
        <pt x="316" y="750" on="0"/>
        <pt x="304" y="742" on="1"/>
        <pt x="292" y="750" on="0"/>
        <pt x="257" y="790" on="0"/>
        <pt x="250" y="803" on="1"/>
        <pt x="256" y="815" on="0"/>
        <pt x="290" y="846" on="0"/>
        <pt x="304" y="853" on="1"/>
        <pt x="317" y="845" on="0"/>
        <pt x="351" y="814" on="0"/>
      </contour>
    </TTGlyph>
    <TTGlyph name="D" xMin="16" yMin="-22" xMax="577" yMax="658">
      <contour>
        <pt x="16" y="649" on="1"/>
        <pt x="304" y="658" on="1"/>
        <pt x="438" y="658" on="0"/>
        <pt x="577" y="520" on="0"/>
        <pt x="577" y="247" on="0"/>
        <pt x="431" y="21" on="0"/>
        <pt x="306" y="-15" on="1"/>
        <pt x="234" y="-15" on="0"/>
        <pt x="145" y="23" on="1"/>
        <pt x="128" y="-3" on="0"/>
        <pt x="122" y="-22" on="1"/>
        <pt x="101" y="-17" on="1"/>
        <pt x="125" y="92" on="0"/>
        <pt x="125" y="514" on="0"/>
        <pt x="114" y="608" on="1"/>
        <pt x="66" y="624" on="0"/>
        <pt x="16" y="624" on="1"/>
      </contour>
      <contour>
        <pt x="424" y="572" on="0"/>
        <pt x="343" y="621" on="0"/>
        <pt x="247" y="621" on="0"/>
        <pt x="211" y="608" on="1"/>
        <pt x="202" y="514" on="0"/>
        <pt x="202" y="173" on="0"/>
        <pt x="207" y="85" on="1"/>
        <pt x="261" y="57" on="0"/>
        <pt x="399" y="57" on="0"/>
        <pt x="437" y="91" on="1"/>
        <pt x="488" y="184" on="0"/>
        <pt x="488" y="320" on="1"/>
        <pt x="488" y="444" on="0"/>
        <pt x="446" y="528" on="1"/>
      </contour>
    </TTGlyph>
    <TTGlyph name="Dcaron" xMin="16" yMin="-22" xMax="577" yMax="885">
      <contour>
        <pt x="308" y="810" on="1"/>
        <pt x="469" y="885" on="1"/>
        <pt x="479" y="866" on="1"/>
        <pt x="387" y="808" on="0"/>
        <pt x="318" y="715" on="1"/>
        <pt x="298" y="715" on="1"/>
        <pt x="229" y="808" on="0"/>
        <pt x="137" y="866" on="1"/>
        <pt x="147" y="885" on="1"/>
      </contour>
      <contour>
        <pt x="16" y="649" on="1"/>
        <pt x="304" y="658" on="1"/>
        <pt x="438" y="658" on="0"/>
        <pt x="577" y="520" on="0"/>
        <pt x="577" y="247" on="0"/>
        <pt x="431" y="21" on="0"/>
        <pt x="306" y="-15" on="1"/>
        <pt x="234" y="-15" on="0"/>
        <pt x="145" y="23" on="1"/>
        <pt x="128" y="-3" on="0"/>
        <pt x="122" y="-22" on="1"/>
        <pt x="101" y="-17" on="1"/>
        <pt x="125" y="92" on="0"/>
        <pt x="125" y="514" on="0"/>
        <pt x="114" y="608" on="1"/>
        <pt x="66" y="624" on="0"/>
        <pt x="16" y="624" on="1"/>
      </contour>
      <contour>
        <pt x="424" y="572" on="0"/>
        <pt x="343" y="621" on="0"/>
        <pt x="247" y="621" on="0"/>
        <pt x="211" y="608" on="1"/>
        <pt x="202" y="514" on="0"/>
        <pt x="202" y="173" on="0"/>
        <pt x="207" y="85" on="1"/>
        <pt x="261" y="57" on="0"/>
        <pt x="399" y="57" on="0"/>
        <pt x="437" y="91" on="1"/>
        <pt x="488" y="184" on="0"/>
        <pt x="488" y="320" on="1"/>
        <pt x="488" y="444" on="0"/>
        <pt x="446" y="528" on="1"/>
      </contour>
    </TTGlyph>
    <TTGlyph name="Delta" xMin="-23" yMin="0" xMax="552" yMax="666">
      <contour>
        <pt x="552" y="46" on="1"/>
        <pt x="543" y="0" on="1"/>
        <pt x="-15" y="0" on="1"/>
        <pt x="-23" y="7" on="1"/>
        <pt x="148" y="342" on="0"/>
        <pt x="250" y="651" on="1"/>
        <pt x="297" y="666" on="1"/>
        <pt x="394" y="370" on="0"/>
      </contour>
      <contour>
        <pt x="59" y="64" on="1"/>
        <pt x="138" y="53" on="0"/>
        <pt x="445" y="53" on="0"/>
        <pt x="467" y="59" on="1"/>
        <pt x="266" y="550" on="1"/>
        <pt x="261" y="549" on="1"/>
      </contour>
    </TTGlyph>
    <TTGlyph name="E" xMin="42" yMin="-15" xMax="519" yMax="666">
      <contour>
        <pt x="304" y="64" on="1"/>
        <pt x="385" y="64" on="0"/>
        <pt x="467" y="142" on="1"/>
        <pt x="481" y="129" on="1"/>
        <pt x="398" y="23" on="0"/>
        <pt x="283" y="-15" on="1"/>
        <pt x="163" y="-15" on="0"/>
        <pt x="42" y="136" on="0"/>
        <pt x="42" y="403" on="0"/>
        <pt x="189" y="632" on="0"/>
        <pt x="313" y="666" on="1"/>
        <pt x="414" y="666" on="0"/>
        <pt x="519" y="647" on="1"/>
        <pt x="518" y="625" on="1"/>
        <pt x="492" y="625" on="0"/>
        <pt x="470" y="616" on="1"/>
        <pt x="445" y="557" on="0"/>
        <pt x="437" y="478" on="1"/>
        <pt x="412" y="478" on="1"/>
        <pt x="403" y="518" on="0"/>
        <pt x="403" y="571" on="1"/>
        <pt x="356" y="596" on="0"/>
        <pt x="225" y="596" on="0"/>
        <pt x="182" y="560" on="1"/>
        <pt x="137" y="483" on="0"/>
        <pt x="132" y="373" on="1"/>
        <pt x="175" y="365" on="0"/>
        <pt x="244" y="365" on="1"/>
        <pt x="355" y="365" on="0"/>
        <pt x="376" y="408" on="1"/>
        <pt x="396" y="404" on="1"/>
        <pt x="387" y="372" on="0"/>
        <pt x="387" y="284" on="0"/>
        <pt x="393" y="240" on="1"/>
        <pt x="370" y="236" on="1"/>
        <pt x="355" y="274" on="0"/>
        <pt x="350" y="325" on="1"/>
        <pt x="312" y="328" on="0"/>
        <pt x="171" y="328" on="0"/>
        <pt x="131" y="323" on="1"/>
        <pt x="134" y="135" on="0"/>
        <pt x="220" y="84" on="1"/>
        <pt x="254" y="64" on="0"/>
      </contour>
    </TTGlyph>
    <TTGlyph name="Eacute" xMin="42" yMin="-15" xMax="519" yMax="868">
      <contour>
        <pt x="304" y="64" on="1"/>
        <pt x="385" y="64" on="0"/>
        <pt x="467" y="142" on="1"/>
        <pt x="481" y="129" on="1"/>
        <pt x="398" y="23" on="0"/>
        <pt x="283" y="-15" on="1"/>
        <pt x="163" y="-15" on="0"/>
        <pt x="42" y="136" on="0"/>
        <pt x="42" y="403" on="0"/>
        <pt x="189" y="632" on="0"/>
        <pt x="313" y="666" on="1"/>
        <pt x="414" y="666" on="0"/>
        <pt x="519" y="647" on="1"/>
        <pt x="518" y="625" on="1"/>
        <pt x="492" y="625" on="0"/>
        <pt x="470" y="616" on="1"/>
        <pt x="445" y="557" on="0"/>
        <pt x="437" y="478" on="1"/>
        <pt x="412" y="478" on="1"/>
        <pt x="403" y="518" on="0"/>
        <pt x="403" y="571" on="1"/>
        <pt x="356" y="596" on="0"/>
        <pt x="225" y="596" on="0"/>
        <pt x="182" y="560" on="1"/>
        <pt x="137" y="483" on="0"/>
        <pt x="132" y="373" on="1"/>
        <pt x="175" y="365" on="0"/>
        <pt x="244" y="365" on="1"/>
        <pt x="355" y="365" on="0"/>
        <pt x="376" y="408" on="1"/>
        <pt x="396" y="404" on="1"/>
        <pt x="387" y="372" on="0"/>
        <pt x="387" y="284" on="0"/>
        <pt x="393" y="240" on="1"/>
        <pt x="370" y="236" on="1"/>
        <pt x="355" y="274" on="0"/>
        <pt x="350" y="325" on="1"/>
        <pt x="312" y="328" on="0"/>
        <pt x="171" y="328" on="0"/>
        <pt x="131" y="323" on="1"/>
        <pt x="134" y="135" on="0"/>
        <pt x="220" y="84" on="1"/>
        <pt x="254" y="64" on="0"/>
      </contour>
      <contour>
        <pt x="456" y="797" on="1"/>
        <pt x="250" y="722" on="1"/>
        <pt x="242" y="742" on="1"/>
        <pt x="324" y="778" on="0"/>
        <pt x="399" y="868" on="1"/>
        <pt x="421" y="866" on="0"/>
        <pt x="441" y="859" on="1"/>
        <pt x="446" y="850" on="0"/>
        <pt x="457" y="807" on="0"/>
      </contour>
    </TTGlyph>
    <TTGlyph name="Ealternate" xMin="50" yMin="-15" xMax="506" yMax="677">
      <contour>
        <pt x="397" y="566" on="1"/>
        <pt x="349" y="594" on="0"/>
        <pt x="214" y="594" on="0"/>
        <pt x="173" y="560" on="1"/>
        <pt x="172" y="546" on="0"/>
        <pt x="172" y="533" on="1"/>
        <pt x="172" y="373" on="0"/>
        <pt x="343" y="373" on="1"/>
        <pt x="338" y="336" on="1"/>
        <pt x="326" y="336" on="1"/>
        <pt x="247" y="336" on="0"/>
        <pt x="144" y="273" on="0"/>
        <pt x="144" y="133" on="0"/>
        <pt x="240" y="56" on="0"/>
        <pt x="370" y="56" on="0"/>
        <pt x="407" y="80" on="1"/>
        <pt x="414" y="94" on="0"/>
        <pt x="414" y="154" on="0"/>
        <pt x="404" y="165" on="1"/>
        <pt x="405" y="172" on="1"/>
        <pt x="430" y="187" on="0"/>
        <pt x="455" y="214" on="1"/>
        <pt x="467" y="213" on="0"/>
        <pt x="482" y="195" on="0"/>
        <pt x="482" y="183" on="1"/>
        <pt x="482" y="122" on="0"/>
        <pt x="367" y="7" on="0"/>
        <pt x="299" y="-15" on="1"/>
        <pt x="192" y="-15" on="0"/>
        <pt x="50" y="89" on="0"/>
        <pt x="50" y="185" on="1"/>
        <pt x="50" y="254" on="0"/>
        <pt x="166" y="346" on="0"/>
        <pt x="240" y="346" on="1"/>
        <pt x="240" y="350" on="1"/>
        <pt x="172" y="354" on="0"/>
        <pt x="81" y="422" on="0"/>
        <pt x="81" y="482" on="1"/>
        <pt x="117" y="546" on="0"/>
        <pt x="236" y="648" on="0"/>
        <pt x="304" y="666" on="1"/>
        <pt x="376" y="666" on="0"/>
        <pt x="445" y="647" on="1"/>
        <pt x="466" y="657" on="0"/>
        <pt x="487" y="677" on="1"/>
        <pt x="506" y="664" on="1"/>
        <pt x="432" y="583" on="0"/>
        <pt x="425" y="473" on="1"/>
        <pt x="400" y="473" on="1"/>
        <pt x="400" y="521" on="0"/>
      </contour>
    </TTGlyph>
    <TTGlyph name="Ebreve" xMin="50" yMin="-15" xMax="506" yMax="854">
      <contour>
        <pt x="397" y="566" on="1"/>
        <pt x="349" y="594" on="0"/>
        <pt x="214" y="594" on="0"/>
        <pt x="173" y="560" on="1"/>
        <pt x="172" y="546" on="0"/>
        <pt x="172" y="533" on="1"/>
        <pt x="172" y="373" on="0"/>
        <pt x="343" y="373" on="1"/>
        <pt x="338" y="336" on="1"/>
        <pt x="326" y="336" on="1"/>
        <pt x="247" y="336" on="0"/>
        <pt x="144" y="273" on="0"/>
        <pt x="144" y="133" on="0"/>
        <pt x="240" y="56" on="0"/>
        <pt x="370" y="56" on="0"/>
        <pt x="407" y="80" on="1"/>
        <pt x="414" y="94" on="0"/>
        <pt x="414" y="154" on="0"/>
        <pt x="404" y="165" on="1"/>
        <pt x="405" y="172" on="1"/>
        <pt x="430" y="187" on="0"/>
        <pt x="455" y="214" on="1"/>
        <pt x="467" y="213" on="0"/>
        <pt x="482" y="195" on="0"/>
        <pt x="482" y="183" on="1"/>
        <pt x="482" y="122" on="0"/>
        <pt x="367" y="7" on="0"/>
        <pt x="299" y="-15" on="1"/>
        <pt x="192" y="-15" on="0"/>
        <pt x="50" y="89" on="0"/>
        <pt x="50" y="185" on="1"/>
        <pt x="50" y="254" on="0"/>
        <pt x="166" y="346" on="0"/>
        <pt x="240" y="346" on="1"/>
        <pt x="240" y="350" on="1"/>
        <pt x="172" y="354" on="0"/>
        <pt x="81" y="422" on="0"/>
        <pt x="81" y="482" on="1"/>
        <pt x="117" y="546" on="0"/>
        <pt x="236" y="648" on="0"/>
        <pt x="304" y="666" on="1"/>
        <pt x="376" y="666" on="0"/>
        <pt x="445" y="647" on="1"/>
        <pt x="466" y="657" on="0"/>
        <pt x="487" y="677" on="1"/>
        <pt x="506" y="664" on="1"/>
        <pt x="432" y="583" on="0"/>
        <pt x="425" y="473" on="1"/>
        <pt x="400" y="473" on="1"/>
        <pt x="400" y="521" on="0"/>
      </contour>
      <contour>
        <pt x="337" y="785" on="1"/>
        <pt x="407" y="785" on="0"/>
        <pt x="444" y="854" on="1"/>
        <pt x="462" y="843" on="1"/>
        <pt x="441" y="800" on="0"/>
        <pt x="367" y="734" on="0"/>
        <pt x="323" y="719" on="1"/>
        <pt x="274" y="719" on="0"/>
        <pt x="166" y="785" on="0"/>
        <pt x="147" y="829" on="1"/>
        <pt x="148" y="838" on="1"/>
        <pt x="191" y="840" on="0"/>
        <pt x="219" y="854" on="1"/>
        <pt x="223" y="854" on="1"/>
        <pt x="237" y="821" on="0"/>
        <pt x="299" y="785" on="0"/>
      </contour>
    </TTGlyph>
    <TTGlyph name="Ecaron" xMin="50" yMin="-15" xMax="506" yMax="885">
      <contour>
        <pt x="397" y="566" on="1"/>
        <pt x="349" y="594" on="0"/>
        <pt x="214" y="594" on="0"/>
        <pt x="173" y="560" on="1"/>
        <pt x="172" y="546" on="0"/>
        <pt x="172" y="533" on="1"/>
        <pt x="172" y="373" on="0"/>
        <pt x="343" y="373" on="1"/>
        <pt x="338" y="336" on="1"/>
        <pt x="326" y="336" on="1"/>
        <pt x="247" y="336" on="0"/>
        <pt x="144" y="273" on="0"/>
        <pt x="144" y="133" on="0"/>
        <pt x="240" y="56" on="0"/>
        <pt x="370" y="56" on="0"/>
        <pt x="407" y="80" on="1"/>
        <pt x="414" y="94" on="0"/>
        <pt x="414" y="154" on="0"/>
        <pt x="404" y="165" on="1"/>
        <pt x="405" y="172" on="1"/>
        <pt x="430" y="187" on="0"/>
        <pt x="455" y="214" on="1"/>
        <pt x="467" y="213" on="0"/>
        <pt x="482" y="195" on="0"/>
        <pt x="482" y="183" on="1"/>
        <pt x="482" y="122" on="0"/>
        <pt x="367" y="7" on="0"/>
        <pt x="299" y="-15" on="1"/>
        <pt x="192" y="-15" on="0"/>
        <pt x="50" y="89" on="0"/>
        <pt x="50" y="185" on="1"/>
        <pt x="50" y="254" on="0"/>
        <pt x="166" y="346" on="0"/>
        <pt x="240" y="346" on="1"/>
        <pt x="240" y="350" on="1"/>
        <pt x="172" y="354" on="0"/>
        <pt x="81" y="422" on="0"/>
        <pt x="81" y="482" on="1"/>
        <pt x="117" y="546" on="0"/>
        <pt x="236" y="648" on="0"/>
        <pt x="304" y="666" on="1"/>
        <pt x="376" y="666" on="0"/>
        <pt x="445" y="647" on="1"/>
        <pt x="466" y="657" on="0"/>
        <pt x="487" y="677" on="1"/>
        <pt x="506" y="664" on="1"/>
        <pt x="432" y="583" on="0"/>
        <pt x="425" y="473" on="1"/>
        <pt x="400" y="473" on="1"/>
        <pt x="400" y="521" on="0"/>
      </contour>
      <contour>
        <pt x="303" y="810" on="1"/>
        <pt x="464" y="885" on="1"/>
        <pt x="474" y="866" on="1"/>
        <pt x="382" y="808" on="0"/>
        <pt x="313" y="715" on="1"/>
        <pt x="293" y="715" on="1"/>
        <pt x="224" y="808" on="0"/>
        <pt x="132" y="866" on="1"/>
        <pt x="142" y="885" on="1"/>
      </contour>
    </TTGlyph>
    <TTGlyph name="Ecircumflex" xMin="42" yMin="-15" xMax="519" yMax="885">
      <contour>
        <pt x="304" y="64" on="1"/>
        <pt x="385" y="64" on="0"/>
        <pt x="467" y="142" on="1"/>
        <pt x="481" y="129" on="1"/>
        <pt x="398" y="23" on="0"/>
        <pt x="283" y="-15" on="1"/>
        <pt x="163" y="-15" on="0"/>
        <pt x="42" y="136" on="0"/>
        <pt x="42" y="403" on="0"/>
        <pt x="189" y="632" on="0"/>
        <pt x="313" y="666" on="1"/>
        <pt x="414" y="666" on="0"/>
        <pt x="519" y="647" on="1"/>
        <pt x="518" y="625" on="1"/>
        <pt x="492" y="625" on="0"/>
        <pt x="470" y="616" on="1"/>
        <pt x="445" y="557" on="0"/>
        <pt x="437" y="478" on="1"/>
        <pt x="412" y="478" on="1"/>
        <pt x="403" y="518" on="0"/>
        <pt x="403" y="571" on="1"/>
        <pt x="356" y="596" on="0"/>
        <pt x="225" y="596" on="0"/>
        <pt x="182" y="560" on="1"/>
        <pt x="137" y="483" on="0"/>
        <pt x="132" y="373" on="1"/>
        <pt x="175" y="365" on="0"/>
        <pt x="244" y="365" on="1"/>
        <pt x="355" y="365" on="0"/>
        <pt x="376" y="408" on="1"/>
        <pt x="396" y="404" on="1"/>
        <pt x="387" y="372" on="0"/>
        <pt x="387" y="284" on="0"/>
        <pt x="393" y="240" on="1"/>
        <pt x="370" y="236" on="1"/>
        <pt x="355" y="274" on="0"/>
        <pt x="350" y="325" on="1"/>
        <pt x="312" y="328" on="0"/>
        <pt x="171" y="328" on="0"/>
        <pt x="131" y="323" on="1"/>
        <pt x="134" y="135" on="0"/>
        <pt x="220" y="84" on="1"/>
        <pt x="254" y="64" on="0"/>
      </contour>
      <contour>
        <pt x="472" y="715" on="1"/>
        <pt x="311" y="790" on="1"/>
        <pt x="150" y="715" on="1"/>
        <pt x="140" y="734" on="1"/>
        <pt x="232" y="792" on="0"/>
        <pt x="301" y="885" on="1"/>
        <pt x="321" y="885" on="1"/>
        <pt x="390" y="792" on="0"/>
        <pt x="482" y="734" on="1"/>
      </contour>
    </TTGlyph>
    <TTGlyph name="Edieresis" xMin="42" yMin="-15" xMax="519" yMax="853">
      <contour>
        <pt x="304" y="64" on="1"/>
        <pt x="385" y="64" on="0"/>
        <pt x="467" y="142" on="1"/>
        <pt x="481" y="129" on="1"/>
        <pt x="398" y="23" on="0"/>
        <pt x="283" y="-15" on="1"/>
        <pt x="163" y="-15" on="0"/>
        <pt x="42" y="136" on="0"/>
        <pt x="42" y="403" on="0"/>
        <pt x="189" y="632" on="0"/>
        <pt x="313" y="666" on="1"/>
        <pt x="414" y="666" on="0"/>
        <pt x="519" y="647" on="1"/>
        <pt x="518" y="625" on="1"/>
        <pt x="492" y="625" on="0"/>
        <pt x="470" y="616" on="1"/>
        <pt x="445" y="557" on="0"/>
        <pt x="437" y="478" on="1"/>
        <pt x="412" y="478" on="1"/>
        <pt x="403" y="518" on="0"/>
        <pt x="403" y="571" on="1"/>
        <pt x="356" y="596" on="0"/>
        <pt x="225" y="596" on="0"/>
        <pt x="182" y="560" on="1"/>
        <pt x="137" y="483" on="0"/>
        <pt x="132" y="373" on="1"/>
        <pt x="175" y="365" on="0"/>
        <pt x="244" y="365" on="1"/>
        <pt x="355" y="365" on="0"/>
        <pt x="376" y="408" on="1"/>
        <pt x="396" y="404" on="1"/>
        <pt x="387" y="372" on="0"/>
        <pt x="387" y="284" on="0"/>
        <pt x="393" y="240" on="1"/>
        <pt x="370" y="236" on="1"/>
        <pt x="355" y="274" on="0"/>
        <pt x="350" y="325" on="1"/>
        <pt x="312" y="328" on="0"/>
        <pt x="171" y="328" on="0"/>
        <pt x="131" y="323" on="1"/>
        <pt x="134" y="135" on="0"/>
        <pt x="220" y="84" on="1"/>
        <pt x="254" y="64" on="0"/>
      </contour>
      <contour>
        <pt x="272" y="803" on="1"/>
        <pt x="265" y="790" on="0"/>
        <pt x="230" y="750" on="0"/>
        <pt x="218" y="742" on="1"/>
        <pt x="206" y="750" on="0"/>
        <pt x="171" y="790" on="0"/>
        <pt x="164" y="803" on="1"/>
        <pt x="170" y="815" on="0"/>
        <pt x="204" y="846" on="0"/>
        <pt x="218" y="853" on="1"/>
        <pt x="231" y="845" on="0"/>
        <pt x="265" y="814" on="0"/>
      </contour>
      <contour>
        <pt x="457" y="803" on="1"/>
        <pt x="450" y="790" on="0"/>
        <pt x="415" y="750" on="0"/>
        <pt x="403" y="742" on="1"/>
        <pt x="391" y="750" on="0"/>
        <pt x="356" y="790" on="0"/>
        <pt x="349" y="803" on="1"/>
        <pt x="355" y="815" on="0"/>
        <pt x="389" y="846" on="0"/>
        <pt x="403" y="853" on="1"/>
        <pt x="416" y="845" on="0"/>
        <pt x="450" y="814" on="0"/>
      </contour>
    </TTGlyph>
    <TTGlyph name="Edotaccent" xMin="50" yMin="-15" xMax="506" yMax="853">
      <contour>
        <pt x="397" y="566" on="1"/>
        <pt x="349" y="594" on="0"/>
        <pt x="214" y="594" on="0"/>
        <pt x="173" y="560" on="1"/>
        <pt x="172" y="546" on="0"/>
        <pt x="172" y="533" on="1"/>
        <pt x="172" y="373" on="0"/>
        <pt x="343" y="373" on="1"/>
        <pt x="338" y="336" on="1"/>
        <pt x="326" y="336" on="1"/>
        <pt x="247" y="336" on="0"/>
        <pt x="144" y="273" on="0"/>
        <pt x="144" y="133" on="0"/>
        <pt x="240" y="56" on="0"/>
        <pt x="370" y="56" on="0"/>
        <pt x="407" y="80" on="1"/>
        <pt x="414" y="94" on="0"/>
        <pt x="414" y="154" on="0"/>
        <pt x="404" y="165" on="1"/>
        <pt x="405" y="172" on="1"/>
        <pt x="430" y="187" on="0"/>
        <pt x="455" y="214" on="1"/>
        <pt x="467" y="213" on="0"/>
        <pt x="482" y="195" on="0"/>
        <pt x="482" y="183" on="1"/>
        <pt x="482" y="122" on="0"/>
        <pt x="367" y="7" on="0"/>
        <pt x="299" y="-15" on="1"/>
        <pt x="192" y="-15" on="0"/>
        <pt x="50" y="89" on="0"/>
        <pt x="50" y="185" on="1"/>
        <pt x="50" y="254" on="0"/>
        <pt x="166" y="346" on="0"/>
        <pt x="240" y="346" on="1"/>
        <pt x="240" y="350" on="1"/>
        <pt x="172" y="354" on="0"/>
        <pt x="81" y="422" on="0"/>
        <pt x="81" y="482" on="1"/>
        <pt x="117" y="546" on="0"/>
        <pt x="236" y="648" on="0"/>
        <pt x="304" y="666" on="1"/>
        <pt x="376" y="666" on="0"/>
        <pt x="445" y="647" on="1"/>
        <pt x="466" y="657" on="0"/>
        <pt x="487" y="677" on="1"/>
        <pt x="506" y="664" on="1"/>
        <pt x="432" y="583" on="0"/>
        <pt x="425" y="473" on="1"/>
        <pt x="400" y="473" on="1"/>
        <pt x="400" y="521" on="0"/>
      </contour>
      <contour>
        <pt x="358" y="803" on="1"/>
        <pt x="351" y="790" on="0"/>
        <pt x="316" y="750" on="0"/>
        <pt x="304" y="742" on="1"/>
        <pt x="292" y="750" on="0"/>
        <pt x="257" y="790" on="0"/>
        <pt x="250" y="803" on="1"/>
        <pt x="256" y="815" on="0"/>
        <pt x="290" y="846" on="0"/>
        <pt x="304" y="853" on="1"/>
        <pt x="317" y="845" on="0"/>
        <pt x="351" y="814" on="0"/>
      </contour>
    </TTGlyph>
    <TTGlyph name="Egrave" xMin="42" yMin="-15" xMax="519" yMax="877">
      <contour>
        <pt x="304" y="64" on="1"/>
        <pt x="385" y="64" on="0"/>
        <pt x="467" y="142" on="1"/>
        <pt x="481" y="129" on="1"/>
        <pt x="398" y="23" on="0"/>
        <pt x="283" y="-15" on="1"/>
        <pt x="163" y="-15" on="0"/>
        <pt x="42" y="136" on="0"/>
        <pt x="42" y="403" on="0"/>
        <pt x="189" y="632" on="0"/>
        <pt x="313" y="666" on="1"/>
        <pt x="414" y="666" on="0"/>
        <pt x="519" y="647" on="1"/>
        <pt x="518" y="625" on="1"/>
        <pt x="492" y="625" on="0"/>
        <pt x="470" y="616" on="1"/>
        <pt x="445" y="557" on="0"/>
        <pt x="437" y="478" on="1"/>
        <pt x="412" y="478" on="1"/>
        <pt x="403" y="518" on="0"/>
        <pt x="403" y="571" on="1"/>
        <pt x="356" y="596" on="0"/>
        <pt x="225" y="596" on="0"/>
        <pt x="182" y="560" on="1"/>
        <pt x="137" y="483" on="0"/>
        <pt x="132" y="373" on="1"/>
        <pt x="175" y="365" on="0"/>
        <pt x="244" y="365" on="1"/>
        <pt x="355" y="365" on="0"/>
        <pt x="376" y="408" on="1"/>
        <pt x="396" y="404" on="1"/>
        <pt x="387" y="372" on="0"/>
        <pt x="387" y="284" on="0"/>
        <pt x="393" y="240" on="1"/>
        <pt x="370" y="236" on="1"/>
        <pt x="355" y="274" on="0"/>
        <pt x="350" y="325" on="1"/>
        <pt x="312" y="328" on="0"/>
        <pt x="171" y="328" on="0"/>
        <pt x="131" y="323" on="1"/>
        <pt x="134" y="135" on="0"/>
        <pt x="220" y="84" on="1"/>
        <pt x="254" y="64" on="0"/>
      </contour>
      <contour>
        <pt x="362" y="731" on="1"/>
        <pt x="156" y="806" on="1"/>
        <pt x="155" y="816" on="0"/>
        <pt x="166" y="859" on="0"/>
        <pt x="171" y="868" on="1"/>
        <pt x="191" y="875" on="0"/>
        <pt x="213" y="877" on="1"/>
        <pt x="288" y="787" on="0"/>
        <pt x="370" y="751" on="1"/>
      </contour>
    </TTGlyph>
    <TTGlyph name="Emacron" xMin="50" yMin="-15" xMax="506" yMax="829">
      <contour>
        <pt x="397" y="566" on="1"/>
        <pt x="349" y="594" on="0"/>
        <pt x="214" y="594" on="0"/>
        <pt x="173" y="560" on="1"/>
        <pt x="172" y="546" on="0"/>
        <pt x="172" y="533" on="1"/>
        <pt x="172" y="373" on="0"/>
        <pt x="343" y="373" on="1"/>
        <pt x="338" y="336" on="1"/>
        <pt x="326" y="336" on="1"/>
        <pt x="247" y="336" on="0"/>
        <pt x="144" y="273" on="0"/>
        <pt x="144" y="133" on="0"/>
        <pt x="240" y="56" on="0"/>
        <pt x="370" y="56" on="0"/>
        <pt x="407" y="80" on="1"/>
        <pt x="414" y="94" on="0"/>
        <pt x="414" y="154" on="0"/>
        <pt x="404" y="165" on="1"/>
        <pt x="405" y="172" on="1"/>
        <pt x="430" y="187" on="0"/>
        <pt x="455" y="214" on="1"/>
        <pt x="467" y="213" on="0"/>
        <pt x="482" y="195" on="0"/>
        <pt x="482" y="183" on="1"/>
        <pt x="482" y="122" on="0"/>
        <pt x="367" y="7" on="0"/>
        <pt x="299" y="-15" on="1"/>
        <pt x="192" y="-15" on="0"/>
        <pt x="50" y="89" on="0"/>
        <pt x="50" y="185" on="1"/>
        <pt x="50" y="254" on="0"/>
        <pt x="166" y="346" on="0"/>
        <pt x="240" y="346" on="1"/>
        <pt x="240" y="350" on="1"/>
        <pt x="172" y="354" on="0"/>
        <pt x="81" y="422" on="0"/>
        <pt x="81" y="482" on="1"/>
        <pt x="117" y="546" on="0"/>
        <pt x="236" y="648" on="0"/>
        <pt x="304" y="666" on="1"/>
        <pt x="376" y="666" on="0"/>
        <pt x="445" y="647" on="1"/>
        <pt x="466" y="657" on="0"/>
        <pt x="487" y="677" on="1"/>
        <pt x="506" y="664" on="1"/>
        <pt x="432" y="583" on="0"/>
        <pt x="425" y="473" on="1"/>
        <pt x="400" y="473" on="1"/>
        <pt x="400" y="521" on="0"/>
      </contour>
      <contour>
        <pt x="221" y="826" on="1"/>
        <pt x="270" y="823" on="0"/>
        <pt x="388" y="823" on="0"/>
        <pt x="433" y="827" on="1"/>
        <pt x="441" y="822" on="1"/>
        <pt x="432" y="776" on="1"/>
        <pt x="176" y="773" on="1"/>
        <pt x="167" y="779" on="1"/>
        <pt x="176" y="829" on="1"/>
      </contour>
    </TTGlyph>
    <TTGlyph name="Eogonek" xMin="50" yMin="-215" xMax="506" yMax="677">
      <contour>
        <pt x="397" y="566" on="1"/>
        <pt x="349" y="594" on="0"/>
        <pt x="214" y="594" on="0"/>
        <pt x="173" y="560" on="1"/>
        <pt x="172" y="546" on="0"/>
        <pt x="172" y="533" on="1"/>
        <pt x="172" y="373" on="0"/>
        <pt x="343" y="373" on="1"/>
        <pt x="338" y="336" on="1"/>
        <pt x="326" y="336" on="1"/>
        <pt x="247" y="336" on="0"/>
        <pt x="144" y="273" on="0"/>
        <pt x="144" y="133" on="0"/>
        <pt x="240" y="56" on="0"/>
        <pt x="370" y="56" on="0"/>
        <pt x="407" y="80" on="1"/>
        <pt x="414" y="94" on="0"/>
        <pt x="414" y="154" on="0"/>
        <pt x="404" y="165" on="1"/>
        <pt x="405" y="172" on="1"/>
        <pt x="430" y="187" on="0"/>
        <pt x="455" y="214" on="1"/>
        <pt x="467" y="213" on="0"/>
        <pt x="482" y="195" on="0"/>
        <pt x="482" y="183" on="1"/>
        <pt x="482" y="148" on="0"/>
        <pt x="442" y="81" on="0"/>
        <pt x="400" y="43" on="0"/>
        <pt x="298" y="-37" on="0"/>
        <pt x="266" y="-81" on="0"/>
        <pt x="266" y="-102" on="1"/>
        <pt x="266" y="-164" on="0"/>
        <pt x="332" y="-164" on="1"/>
        <pt x="354" y="-164" on="0"/>
        <pt x="369" y="-160" on="1"/>
        <pt x="369" y="-169" on="1"/>
        <pt x="338" y="-190" on="0"/>
        <pt x="320" y="-215" on="1"/>
        <pt x="260" y="-215" on="0"/>
        <pt x="200" y="-169" on="0"/>
        <pt x="200" y="-113" on="1"/>
        <pt x="220" y="-62" on="0"/>
        <pt x="285" y="-15" on="1"/>
        <pt x="183" y="-11" on="0"/>
        <pt x="50" y="92" on="0"/>
        <pt x="50" y="185" on="1"/>
        <pt x="50" y="254" on="0"/>
        <pt x="166" y="346" on="0"/>
        <pt x="240" y="346" on="1"/>
        <pt x="240" y="350" on="1"/>
        <pt x="172" y="354" on="0"/>
        <pt x="81" y="422" on="0"/>
        <pt x="81" y="482" on="1"/>
        <pt x="117" y="546" on="0"/>
        <pt x="236" y="648" on="0"/>
        <pt x="304" y="666" on="1"/>
        <pt x="376" y="666" on="0"/>
        <pt x="445" y="647" on="1"/>
        <pt x="466" y="657" on="0"/>
        <pt x="487" y="677" on="1"/>
        <pt x="506" y="664" on="1"/>
        <pt x="432" y="583" on="0"/>
        <pt x="425" y="473" on="1"/>
        <pt x="400" y="473" on="1"/>
        <pt x="400" y="521" on="0"/>
      </contour>
    </TTGlyph>
    <TTGlyph name="Eth" xMin="16" yMin="-22" xMax="577" yMax="658">
      <contour>
        <pt x="16" y="649" on="1"/>
        <pt x="304" y="658" on="1"/>
        <pt x="438" y="658" on="0"/>
        <pt x="577" y="520" on="0"/>
        <pt x="577" y="247" on="0"/>
        <pt x="431" y="21" on="0"/>
        <pt x="306" y="-15" on="1"/>
        <pt x="234" y="-15" on="0"/>
        <pt x="145" y="23" on="1"/>
        <pt x="128" y="-3" on="0"/>
        <pt x="122" y="-22" on="1"/>
        <pt x="101" y="-17" on="1"/>
        <pt x="125" y="91" on="0"/>
        <pt x="125" y="324" on="1"/>
        <pt x="63" y="321" on="0"/>
        <pt x="19" y="315" on="1"/>
        <pt x="16" y="319" on="1"/>
        <pt x="22" y="339" on="0"/>
        <pt x="23" y="351" on="1"/>
        <pt x="125" y="354" on="1"/>
        <pt x="124" y="504" on="0"/>
        <pt x="114" y="608" on="1"/>
        <pt x="66" y="624" on="0"/>
        <pt x="16" y="624" on="1"/>
      </contour>
      <contour>
        <pt x="207" y="85" on="1"/>
        <pt x="261" y="57" on="0"/>
        <pt x="399" y="57" on="0"/>
        <pt x="437" y="91" on="1"/>
        <pt x="488" y="184" on="0"/>
        <pt x="488" y="320" on="1"/>
        <pt x="488" y="444" on="0"/>
        <pt x="446" y="528" on="1"/>
        <pt x="424" y="572" on="0"/>
        <pt x="343" y="621" on="0"/>
        <pt x="247" y="621" on="0"/>
        <pt x="211" y="608" on="1"/>
        <pt x="202" y="521" on="0"/>
        <pt x="202" y="357" on="1"/>
        <pt x="264" y="359" on="1"/>
        <pt x="328" y="362" on="0"/>
        <pt x="348" y="364" on="1"/>
        <pt x="352" y="344" on="0"/>
        <pt x="357" y="333" on="1"/>
        <pt x="357" y="328" on="1"/>
        <pt x="235" y="326" on="1"/>
        <pt x="202" y="325" on="1"/>
        <pt x="202" y="173" on="0"/>
      </contour>
    </TTGlyph>
    <TTGlyph name="Euro" xMin="29" yMin="-16" xMax="422" yMax="538">
      <contour>
        <pt x="161" y="136" on="0"/>
        <pt x="213" y="57" on="0"/>
        <pt x="334" y="57" on="0"/>
        <pt x="403" y="120" on="1"/>
        <pt x="413" y="110" on="1"/>
        <pt x="353" y="23" on="0"/>
        <pt x="257" y="-16" on="1"/>
        <pt x="166" y="-16" on="0"/>
        <pt x="77" y="104" on="0"/>
        <pt x="75" y="204" on="1"/>
        <pt x="32" y="199" on="1"/>
        <pt x="29" y="203" on="1"/>
        <pt x="35" y="223" on="0"/>
        <pt x="36" y="235" on="1"/>
        <pt x="75" y="236" on="1"/>
        <pt x="76" y="252" on="0"/>
        <pt x="82" y="284" on="1"/>
        <pt x="53" y="283" on="0"/>
        <pt x="32" y="279" on="1"/>
        <pt x="29" y="283" on="1"/>
        <pt x="35" y="303" on="0"/>
        <pt x="36" y="315" on="1"/>
        <pt x="89" y="317" on="1"/>
        <pt x="112" y="397" on="0"/>
        <pt x="217" y="516" on="0"/>
        <pt x="291" y="538" on="1"/>
        <pt x="362" y="538" on="0"/>
        <pt x="422" y="522" on="1"/>
        <pt x="422" y="508" on="1"/>
        <pt x="385" y="460" on="0"/>
        <pt x="379" y="395" on="1"/>
        <pt x="357" y="395" on="1"/>
        <pt x="357" y="435" on="0"/>
        <pt x="354" y="459" on="1"/>
        <pt x="312" y="473" on="0"/>
        <pt x="224" y="473" on="0"/>
        <pt x="193" y="446" on="1"/>
        <pt x="167" y="390" on="0"/>
        <pt x="157" y="319" on="1"/>
        <pt x="285" y="324" on="1"/>
        <pt x="349" y="327" on="0"/>
        <pt x="369" y="329" on="1"/>
        <pt x="373" y="309" on="0"/>
        <pt x="378" y="298" on="1"/>
        <pt x="378" y="293" on="1"/>
        <pt x="256" y="291" on="1"/>
        <pt x="154" y="288" on="1"/>
        <pt x="154" y="271" on="1"/>
        <pt x="154" y="255" on="1"/>
        <pt x="153" y="239" on="0"/>
        <pt x="154" y="239" on="1"/>
        <pt x="285" y="244" on="1"/>
        <pt x="348" y="247" on="0"/>
        <pt x="369" y="249" on="1"/>
        <pt x="373" y="229" on="0"/>
        <pt x="378" y="218" on="1"/>
        <pt x="378" y="213" on="1"/>
        <pt x="256" y="211" on="1"/>
        <pt x="156" y="208" on="1"/>
      </contour>
    </TTGlyph>
    <TTGlyph name="F" xMin="21" yMin="-8" xMax="502" yMax="662">
      <contour>
        <pt x="409" y="593" on="1"/>
        <pt x="366" y="614" on="0"/>
        <pt x="250" y="614" on="0"/>
        <pt x="217" y="609" on="1"/>
        <pt x="207" y="541" on="0"/>
        <pt x="207" y="366" on="1"/>
        <pt x="250" y="358" on="0"/>
        <pt x="291" y="358" on="1"/>
        <pt x="369" y="358" on="0"/>
        <pt x="390" y="401" on="1"/>
        <pt x="410" y="397" on="1"/>
        <pt x="401" y="365" on="0"/>
        <pt x="401" y="276" on="0"/>
        <pt x="407" y="233" on="1"/>
        <pt x="384" y="229" on="1"/>
        <pt x="369" y="267" on="0"/>
        <pt x="364" y="318" on="1"/>
        <pt x="327" y="321" on="0"/>
        <pt x="247" y="321" on="0"/>
        <pt x="207" y="316" on="1"/>
        <pt x="208" y="112" on="0"/>
        <pt x="220" y="35" on="1"/>
        <pt x="270" y="30" on="0"/>
        <pt x="330" y="16" on="1"/>
        <pt x="327" y="-8" on="1"/>
        <pt x="253" y="0" on="0"/>
        <pt x="80" y="0" on="0"/>
        <pt x="27" y="-8" on="1"/>
        <pt x="23" y="17" on="1"/>
        <pt x="68" y="31" on="0"/>
        <pt x="119" y="38" on="1"/>
        <pt x="130" y="120" on="0"/>
        <pt x="130" y="296" on="1"/>
        <pt x="130" y="355" on="1"/>
        <pt x="130" y="465" on="0"/>
        <pt x="117" y="613" on="1"/>
        <pt x="77" y="618" on="0"/>
        <pt x="21" y="636" on="1"/>
        <pt x="25" y="661" on="1"/>
        <pt x="129" y="651" on="0"/>
        <pt x="399" y="651" on="0"/>
        <pt x="498" y="662" on="1"/>
        <pt x="502" y="642" on="1"/>
        <pt x="450" y="589" on="0"/>
        <pt x="443" y="484" on="1"/>
        <pt x="418" y="484" on="1"/>
        <pt x="409" y="527" on="0"/>
      </contour>
    </TTGlyph>
    <TTGlyph name="G" xMin="42" yMin="-15" xMax="525" yMax="666">
      <contour>
        <pt x="216" y="86" on="1"/>
        <pt x="251" y="64" on="0"/>
        <pt x="359" y="64" on="0"/>
        <pt x="403" y="93" on="1"/>
        <pt x="403" y="176" on="1"/>
        <pt x="403" y="199" on="0"/>
        <pt x="399" y="243" on="1"/>
        <pt x="364" y="253" on="0"/>
        <pt x="308" y="263" on="1"/>
        <pt x="311" y="284" on="1"/>
        <pt x="334" y="281" on="0"/>
        <pt x="355" y="281" on="1"/>
        <pt x="443" y="281" on="0"/>
        <pt x="516" y="330" on="1"/>
        <pt x="525" y="312" on="1"/>
        <pt x="502" y="294" on="0"/>
        <pt x="489" y="276" on="1"/>
        <pt x="477" y="156" on="0"/>
        <pt x="469" y="-4" on="1"/>
        <pt x="448" y="-4" on="1"/>
        <pt x="438" y="39" on="0"/>
        <pt x="424" y="67" on="1"/>
        <pt x="359" y="10" on="0"/>
        <pt x="283" y="-15" on="1"/>
        <pt x="163" y="-15" on="0"/>
        <pt x="42" y="136" on="0"/>
        <pt x="42" y="403" on="0"/>
        <pt x="189" y="632" on="0"/>
        <pt x="313" y="666" on="1"/>
        <pt x="417" y="666" on="0"/>
        <pt x="522" y="647" on="1"/>
        <pt x="521" y="625" on="1"/>
        <pt x="496" y="625" on="0"/>
        <pt x="473" y="616" on="1"/>
        <pt x="446" y="552" on="0"/>
        <pt x="440" y="477" on="1"/>
        <pt x="415" y="477" on="1"/>
        <pt x="406" y="518" on="0"/>
        <pt x="406" y="570" on="1"/>
        <pt x="359" y="596" on="0"/>
        <pt x="225" y="596" on="0"/>
        <pt x="182" y="560" on="1"/>
        <pt x="131" y="473" on="0"/>
        <pt x="131" y="339" on="1"/>
        <pt x="131" y="138" on="0"/>
      </contour>
    </TTGlyph>
    <TTGlyph name="Gbreve" xMin="42" yMin="-15" xMax="525" yMax="854">
      <contour>
        <pt x="216" y="86" on="1"/>
        <pt x="251" y="64" on="0"/>
        <pt x="359" y="64" on="0"/>
        <pt x="403" y="93" on="1"/>
        <pt x="403" y="176" on="1"/>
        <pt x="403" y="199" on="0"/>
        <pt x="399" y="243" on="1"/>
        <pt x="364" y="253" on="0"/>
        <pt x="308" y="263" on="1"/>
        <pt x="311" y="284" on="1"/>
        <pt x="334" y="281" on="0"/>
        <pt x="355" y="281" on="1"/>
        <pt x="443" y="281" on="0"/>
        <pt x="516" y="330" on="1"/>
        <pt x="525" y="312" on="1"/>
        <pt x="502" y="294" on="0"/>
        <pt x="489" y="276" on="1"/>
        <pt x="477" y="156" on="0"/>
        <pt x="469" y="-4" on="1"/>
        <pt x="448" y="-4" on="1"/>
        <pt x="438" y="39" on="0"/>
        <pt x="424" y="67" on="1"/>
        <pt x="359" y="10" on="0"/>
        <pt x="283" y="-15" on="1"/>
        <pt x="163" y="-15" on="0"/>
        <pt x="42" y="136" on="0"/>
        <pt x="42" y="403" on="0"/>
        <pt x="189" y="632" on="0"/>
        <pt x="313" y="666" on="1"/>
        <pt x="417" y="666" on="0"/>
        <pt x="522" y="647" on="1"/>
        <pt x="521" y="625" on="1"/>
        <pt x="496" y="625" on="0"/>
        <pt x="473" y="616" on="1"/>
        <pt x="446" y="552" on="0"/>
        <pt x="440" y="477" on="1"/>
        <pt x="415" y="477" on="1"/>
        <pt x="406" y="518" on="0"/>
        <pt x="406" y="570" on="1"/>
        <pt x="359" y="596" on="0"/>
        <pt x="225" y="596" on="0"/>
        <pt x="182" y="560" on="1"/>
        <pt x="131" y="473" on="0"/>
        <pt x="131" y="339" on="1"/>
        <pt x="131" y="138" on="0"/>
      </contour>
      <contour>
        <pt x="337" y="785" on="1"/>
        <pt x="407" y="785" on="0"/>
        <pt x="444" y="854" on="1"/>
        <pt x="462" y="843" on="1"/>
        <pt x="441" y="800" on="0"/>
        <pt x="367" y="734" on="0"/>
        <pt x="323" y="719" on="1"/>
        <pt x="274" y="719" on="0"/>
        <pt x="166" y="785" on="0"/>
        <pt x="147" y="829" on="1"/>
        <pt x="148" y="838" on="1"/>
        <pt x="191" y="840" on="0"/>
        <pt x="219" y="854" on="1"/>
        <pt x="223" y="854" on="1"/>
        <pt x="237" y="821" on="0"/>
        <pt x="299" y="785" on="0"/>
      </contour>
    </TTGlyph>
    <TTGlyph name="Gcircumflex" xMin="42" yMin="-15" xMax="525" yMax="885">
      <contour>
        <pt x="465" y="715" on="1"/>
        <pt x="304" y="790" on="1"/>
        <pt x="143" y="715" on="1"/>
        <pt x="133" y="734" on="1"/>
        <pt x="225" y="792" on="0"/>
        <pt x="294" y="885" on="1"/>
        <pt x="314" y="885" on="1"/>
        <pt x="383" y="792" on="0"/>
        <pt x="475" y="734" on="1"/>
      </contour>
      <contour>
        <pt x="216" y="86" on="1"/>
        <pt x="251" y="64" on="0"/>
        <pt x="359" y="64" on="0"/>
        <pt x="403" y="93" on="1"/>
        <pt x="403" y="176" on="1"/>
        <pt x="403" y="199" on="0"/>
        <pt x="399" y="243" on="1"/>
        <pt x="364" y="253" on="0"/>
        <pt x="308" y="263" on="1"/>
        <pt x="311" y="284" on="1"/>
        <pt x="334" y="281" on="0"/>
        <pt x="355" y="281" on="1"/>
        <pt x="443" y="281" on="0"/>
        <pt x="516" y="330" on="1"/>
        <pt x="525" y="312" on="1"/>
        <pt x="502" y="294" on="0"/>
        <pt x="489" y="276" on="1"/>
        <pt x="477" y="156" on="0"/>
        <pt x="469" y="-4" on="1"/>
        <pt x="448" y="-4" on="1"/>
        <pt x="438" y="39" on="0"/>
        <pt x="424" y="67" on="1"/>
        <pt x="359" y="10" on="0"/>
        <pt x="283" y="-15" on="1"/>
        <pt x="163" y="-15" on="0"/>
        <pt x="42" y="136" on="0"/>
        <pt x="42" y="403" on="0"/>
        <pt x="189" y="632" on="0"/>
        <pt x="313" y="666" on="1"/>
        <pt x="417" y="666" on="0"/>
        <pt x="522" y="647" on="1"/>
        <pt x="521" y="625" on="1"/>
        <pt x="496" y="625" on="0"/>
        <pt x="473" y="616" on="1"/>
        <pt x="446" y="552" on="0"/>
        <pt x="440" y="477" on="1"/>
        <pt x="415" y="477" on="1"/>
        <pt x="406" y="518" on="0"/>
        <pt x="406" y="570" on="1"/>
        <pt x="359" y="596" on="0"/>
        <pt x="225" y="596" on="0"/>
        <pt x="182" y="560" on="1"/>
        <pt x="131" y="473" on="0"/>
        <pt x="131" y="339" on="1"/>
        <pt x="131" y="138" on="0"/>
      </contour>
    </TTGlyph>
    <TTGlyph name="Gdotaccent" xMin="42" yMin="-15" xMax="525" yMax="853">
      <contour>
        <pt x="216" y="86" on="1"/>
        <pt x="251" y="64" on="0"/>
        <pt x="359" y="64" on="0"/>
        <pt x="403" y="93" on="1"/>
        <pt x="403" y="176" on="1"/>
        <pt x="403" y="199" on="0"/>
        <pt x="399" y="243" on="1"/>
        <pt x="364" y="253" on="0"/>
        <pt x="308" y="263" on="1"/>
        <pt x="311" y="284" on="1"/>
        <pt x="334" y="281" on="0"/>
        <pt x="355" y="281" on="1"/>
        <pt x="443" y="281" on="0"/>
        <pt x="516" y="330" on="1"/>
        <pt x="525" y="312" on="1"/>
        <pt x="502" y="294" on="0"/>
        <pt x="489" y="276" on="1"/>
        <pt x="477" y="156" on="0"/>
        <pt x="469" y="-4" on="1"/>
        <pt x="448" y="-4" on="1"/>
        <pt x="438" y="39" on="0"/>
        <pt x="424" y="67" on="1"/>
        <pt x="359" y="10" on="0"/>
        <pt x="283" y="-15" on="1"/>
        <pt x="163" y="-15" on="0"/>
        <pt x="42" y="136" on="0"/>
        <pt x="42" y="403" on="0"/>
        <pt x="189" y="632" on="0"/>
        <pt x="313" y="666" on="1"/>
        <pt x="417" y="666" on="0"/>
        <pt x="522" y="647" on="1"/>
        <pt x="521" y="625" on="1"/>
        <pt x="496" y="625" on="0"/>
        <pt x="473" y="616" on="1"/>
        <pt x="446" y="552" on="0"/>
        <pt x="440" y="477" on="1"/>
        <pt x="415" y="477" on="1"/>
        <pt x="406" y="518" on="0"/>
        <pt x="406" y="570" on="1"/>
        <pt x="359" y="596" on="0"/>
        <pt x="225" y="596" on="0"/>
        <pt x="182" y="560" on="1"/>
        <pt x="131" y="473" on="0"/>
        <pt x="131" y="339" on="1"/>
        <pt x="131" y="138" on="0"/>
      </contour>
      <contour>
        <pt x="358" y="803" on="1"/>
        <pt x="351" y="790" on="0"/>
        <pt x="316" y="750" on="0"/>
        <pt x="304" y="742" on="1"/>
        <pt x="292" y="750" on="0"/>
        <pt x="257" y="790" on="0"/>
        <pt x="250" y="803" on="1"/>
        <pt x="256" y="815" on="0"/>
        <pt x="290" y="846" on="0"/>
        <pt x="304" y="853" on="1"/>
        <pt x="317" y="845" on="0"/>
        <pt x="351" y="814" on="0"/>
      </contour>
    </TTGlyph>
    <TTGlyph name="H" xMin="21" yMin="-8" xMax="701" yMax="659">
      <contour>
        <pt x="398" y="659" on="1"/>
        <pt x="459" y="651" on="0"/>
        <pt x="634" y="651" on="0"/>
        <pt x="698" y="659" on="1"/>
        <pt x="701" y="635" on="1"/>
        <pt x="644" y="621" on="0"/>
        <pt x="591" y="616" on="1"/>
        <pt x="578" y="542" on="0"/>
        <pt x="578" y="355" on="1"/>
        <pt x="578" y="296" on="1"/>
        <pt x="578" y="109" on="0"/>
        <pt x="591" y="35" on="1"/>
        <pt x="644" y="30" on="0"/>
        <pt x="701" y="16" on="1"/>
        <pt x="698" y="-8" on="1"/>
        <pt x="634" y="0" on="0"/>
        <pt x="459" y="0" on="0"/>
        <pt x="398" y="-8" on="1"/>
        <pt x="394" y="17" on="1"/>
        <pt x="439" y="31" on="0"/>
        <pt x="490" y="38" on="1"/>
        <pt x="500" y="139" on="0"/>
        <pt x="501" y="328" on="1"/>
        <pt x="427" y="335" on="0"/>
        <pt x="281" y="335" on="0"/>
        <pt x="207" y="328" on="1"/>
        <pt x="208" y="114" on="0"/>
        <pt x="220" y="35" on="1"/>
        <pt x="273" y="30" on="0"/>
        <pt x="330" y="16" on="1"/>
        <pt x="327" y="-8" on="1"/>
        <pt x="253" y="0" on="0"/>
        <pt x="80" y="0" on="0"/>
        <pt x="27" y="-8" on="1"/>
        <pt x="23" y="17" on="1"/>
        <pt x="68" y="31" on="0"/>
        <pt x="119" y="38" on="1"/>
        <pt x="130" y="120" on="0"/>
        <pt x="130" y="296" on="1"/>
        <pt x="130" y="355" on="1"/>
        <pt x="130" y="517" on="0"/>
        <pt x="117" y="613" on="1"/>
        <pt x="66" y="620" on="0"/>
        <pt x="21" y="634" on="1"/>
        <pt x="25" y="659" on="1"/>
        <pt x="78" y="651" on="0"/>
        <pt x="251" y="651" on="0"/>
        <pt x="325" y="659" on="1"/>
        <pt x="328" y="635" on="1"/>
        <pt x="271" y="621" on="0"/>
        <pt x="218" y="616" on="1"/>
        <pt x="209" y="557" on="0"/>
        <pt x="207" y="382" on="1"/>
        <pt x="283" y="372" on="0"/>
        <pt x="433" y="372" on="0"/>
        <pt x="501" y="381" on="1"/>
        <pt x="500" y="513" on="0"/>
        <pt x="490" y="613" on="1"/>
        <pt x="439" y="620" on="0"/>
        <pt x="394" y="634" on="1"/>
      </contour>
    </TTGlyph>
    <TTGlyph name="Hbar" xMin="21" yMin="-8" xMax="701" yMax="659">
      <contour>
        <pt x="496" y="521" on="1"/>
        <pt x="490" y="613" on="1"/>
        <pt x="439" y="620" on="0"/>
        <pt x="394" y="634" on="1"/>
        <pt x="398" y="659" on="1"/>
        <pt x="459" y="651" on="0"/>
        <pt x="634" y="651" on="0"/>
        <pt x="698" y="659" on="1"/>
        <pt x="701" y="635" on="1"/>
        <pt x="644" y="621" on="0"/>
        <pt x="591" y="616" on="1"/>
        <pt x="586" y="591" on="0"/>
        <pt x="583" y="521" on="1"/>
        <pt x="664" y="524" on="1"/>
        <pt x="670" y="518" on="1"/>
        <pt x="665" y="491" on="1"/>
        <pt x="581" y="491" on="1"/>
        <pt x="578" y="423" on="0"/>
        <pt x="578" y="355" on="1"/>
        <pt x="578" y="296" on="1"/>
        <pt x="578" y="109" on="0"/>
        <pt x="591" y="35" on="1"/>
        <pt x="644" y="30" on="0"/>
        <pt x="701" y="16" on="1"/>
        <pt x="698" y="-8" on="1"/>
        <pt x="634" y="0" on="0"/>
        <pt x="459" y="0" on="0"/>
        <pt x="398" y="-8" on="1"/>
        <pt x="394" y="17" on="1"/>
        <pt x="439" y="31" on="0"/>
        <pt x="490" y="38" on="1"/>
        <pt x="500" y="139" on="0"/>
        <pt x="501" y="328" on="1"/>
        <pt x="427" y="335" on="0"/>
        <pt x="281" y="335" on="0"/>
        <pt x="207" y="328" on="1"/>
        <pt x="208" y="114" on="0"/>
        <pt x="220" y="35" on="1"/>
        <pt x="273" y="30" on="0"/>
        <pt x="330" y="16" on="1"/>
        <pt x="327" y="-8" on="1"/>
        <pt x="253" y="0" on="0"/>
        <pt x="80" y="0" on="0"/>
        <pt x="27" y="-8" on="1"/>
        <pt x="23" y="17" on="1"/>
        <pt x="68" y="31" on="0"/>
        <pt x="119" y="38" on="1"/>
        <pt x="130" y="120" on="0"/>
        <pt x="130" y="296" on="1"/>
        <pt x="130" y="355" on="1"/>
        <pt x="130" y="401" on="0"/>
        <pt x="126" y="491" on="1"/>
        <pt x="56" y="491" on="1"/>
        <pt x="48" y="498" on="1"/>
        <pt x="53" y="530" on="1"/>
        <pt x="124" y="527" on="1"/>
        <pt x="121" y="579" on="0"/>
        <pt x="117" y="613" on="1"/>
        <pt x="66" y="620" on="0"/>
        <pt x="21" y="634" on="1"/>
        <pt x="25" y="659" on="1"/>
        <pt x="78" y="651" on="0"/>
        <pt x="251" y="651" on="0"/>
        <pt x="325" y="659" on="1"/>
        <pt x="328" y="635" on="1"/>
        <pt x="271" y="621" on="0"/>
        <pt x="218" y="616" on="1"/>
        <pt x="214" y="597" on="0"/>
        <pt x="211" y="524" on="1"/>
        <pt x="361" y="521" on="0"/>
      </contour>
      <contour>
        <pt x="207" y="382" on="1"/>
        <pt x="283" y="372" on="0"/>
        <pt x="433" y="372" on="0"/>
        <pt x="501" y="381" on="1"/>
        <pt x="498" y="491" on="1"/>
        <pt x="209" y="491" on="1"/>
        <pt x="207" y="421" on="0"/>
      </contour>
    </TTGlyph>
    <TTGlyph name="Hcircumflex" xMin="21" yMin="-8" xMax="701" yMax="885">
      <contour>
        <pt x="521" y="715" on="1"/>
        <pt x="360" y="790" on="1"/>
        <pt x="199" y="715" on="1"/>
        <pt x="189" y="734" on="1"/>
        <pt x="281" y="792" on="0"/>
        <pt x="350" y="885" on="1"/>
        <pt x="370" y="885" on="1"/>
        <pt x="439" y="792" on="0"/>
        <pt x="531" y="734" on="1"/>
      </contour>
      <contour>
        <pt x="398" y="659" on="1"/>
        <pt x="459" y="651" on="0"/>
        <pt x="634" y="651" on="0"/>
        <pt x="698" y="659" on="1"/>
        <pt x="701" y="635" on="1"/>
        <pt x="644" y="621" on="0"/>
        <pt x="591" y="616" on="1"/>
        <pt x="578" y="542" on="0"/>
        <pt x="578" y="355" on="1"/>
        <pt x="578" y="296" on="1"/>
        <pt x="578" y="109" on="0"/>
        <pt x="591" y="35" on="1"/>
        <pt x="644" y="30" on="0"/>
        <pt x="701" y="16" on="1"/>
        <pt x="698" y="-8" on="1"/>
        <pt x="634" y="0" on="0"/>
        <pt x="459" y="0" on="0"/>
        <pt x="398" y="-8" on="1"/>
        <pt x="394" y="17" on="1"/>
        <pt x="439" y="31" on="0"/>
        <pt x="490" y="38" on="1"/>
        <pt x="500" y="139" on="0"/>
        <pt x="501" y="328" on="1"/>
        <pt x="427" y="335" on="0"/>
        <pt x="281" y="335" on="0"/>
        <pt x="207" y="328" on="1"/>
        <pt x="208" y="114" on="0"/>
        <pt x="220" y="35" on="1"/>
        <pt x="273" y="30" on="0"/>
        <pt x="330" y="16" on="1"/>
        <pt x="327" y="-8" on="1"/>
        <pt x="253" y="0" on="0"/>
        <pt x="80" y="0" on="0"/>
        <pt x="27" y="-8" on="1"/>
        <pt x="23" y="17" on="1"/>
        <pt x="68" y="31" on="0"/>
        <pt x="119" y="38" on="1"/>
        <pt x="130" y="120" on="0"/>
        <pt x="130" y="296" on="1"/>
        <pt x="130" y="355" on="1"/>
        <pt x="130" y="517" on="0"/>
        <pt x="117" y="613" on="1"/>
        <pt x="66" y="620" on="0"/>
        <pt x="21" y="634" on="1"/>
        <pt x="25" y="659" on="1"/>
        <pt x="78" y="651" on="0"/>
        <pt x="251" y="651" on="0"/>
        <pt x="325" y="659" on="1"/>
        <pt x="328" y="635" on="1"/>
        <pt x="271" y="621" on="0"/>
        <pt x="218" y="616" on="1"/>
        <pt x="209" y="557" on="0"/>
        <pt x="207" y="382" on="1"/>
        <pt x="283" y="372" on="0"/>
        <pt x="433" y="372" on="0"/>
        <pt x="501" y="381" on="1"/>
        <pt x="500" y="513" on="0"/>
        <pt x="490" y="613" on="1"/>
        <pt x="439" y="620" on="0"/>
        <pt x="394" y="634" on="1"/>
      </contour>
    </TTGlyph>
    <TTGlyph name="I" xMin="21" yMin="-8" xMax="330" yMax="659">
      <contour>
        <pt x="218" y="616" on="1"/>
        <pt x="207" y="541" on="0"/>
        <pt x="207" y="131" on="0"/>
        <pt x="220" y="35" on="1"/>
        <pt x="273" y="30" on="0"/>
        <pt x="330" y="16" on="1"/>
        <pt x="327" y="-8" on="1"/>
        <pt x="253" y="0" on="0"/>
        <pt x="80" y="0" on="0"/>
        <pt x="27" y="-8" on="1"/>
        <pt x="23" y="17" on="1"/>
        <pt x="68" y="31" on="0"/>
        <pt x="119" y="38" on="1"/>
        <pt x="130" y="120" on="0"/>
        <pt x="130" y="296" on="1"/>
        <pt x="130" y="355" on="1"/>
        <pt x="130" y="517" on="0"/>
        <pt x="117" y="613" on="1"/>
        <pt x="66" y="620" on="0"/>
        <pt x="21" y="634" on="1"/>
        <pt x="25" y="659" on="1"/>
        <pt x="78" y="651" on="0"/>
        <pt x="251" y="651" on="0"/>
        <pt x="325" y="659" on="1"/>
        <pt x="328" y="635" on="1"/>
        <pt x="271" y="621" on="0"/>
      </contour>
    </TTGlyph>
    <TTGlyph name="IJ" xMin="21" yMin="-180" xMax="653" yMax="659">
      <contour>
        <pt x="218" y="616" on="1"/>
        <pt x="207" y="541" on="0"/>
        <pt x="207" y="131" on="0"/>
        <pt x="220" y="35" on="1"/>
        <pt x="273" y="30" on="0"/>
        <pt x="330" y="16" on="1"/>
        <pt x="327" y="-8" on="1"/>
        <pt x="253" y="0" on="0"/>
        <pt x="80" y="0" on="0"/>
        <pt x="27" y="-8" on="1"/>
        <pt x="23" y="17" on="1"/>
        <pt x="68" y="31" on="0"/>
        <pt x="119" y="38" on="1"/>
        <pt x="130" y="120" on="0"/>
        <pt x="130" y="296" on="1"/>
        <pt x="130" y="355" on="1"/>
        <pt x="130" y="517" on="0"/>
        <pt x="117" y="613" on="1"/>
        <pt x="66" y="620" on="0"/>
        <pt x="21" y="634" on="1"/>
        <pt x="25" y="659" on="1"/>
        <pt x="78" y="651" on="0"/>
        <pt x="251" y="651" on="0"/>
        <pt x="325" y="659" on="1"/>
        <pt x="328" y="635" on="1"/>
        <pt x="271" y="621" on="0"/>
      </contour>
      <contour>
        <pt x="349" y="659" on="1"/>
        <pt x="423" y="651" on="0"/>
        <pt x="596" y="651" on="0"/>
        <pt x="649" y="659" on="1"/>
        <pt x="653" y="634" on="1"/>
        <pt x="608" y="620" on="0"/>
        <pt x="557" y="613" on="1"/>
        <pt x="544" y="517" on="0"/>
        <pt x="544" y="355" on="1"/>
        <pt x="544" y="296" on="1"/>
        <pt x="544" y="111" on="0"/>
        <pt x="552" y="33" on="1"/>
        <pt x="496" y="-93" on="0"/>
        <pt x="346" y="-180" on="1"/>
        <pt x="329" y="-161" on="1"/>
        <pt x="405" y="-97" on="0"/>
        <pt x="467" y="50" on="0"/>
        <pt x="467" y="154" on="1"/>
        <pt x="467" y="355" on="1"/>
        <pt x="467" y="541" on="0"/>
        <pt x="456" y="616" on="1"/>
        <pt x="403" y="621" on="0"/>
        <pt x="346" y="635" on="1"/>
      </contour>
    </TTGlyph>
    <TTGlyph name="Iacute" xMin="21" yMin="-8" xMax="330" yMax="868">
      <contour>
        <pt x="218" y="616" on="1"/>
        <pt x="207" y="541" on="0"/>
        <pt x="207" y="131" on="0"/>
        <pt x="220" y="35" on="1"/>
        <pt x="273" y="30" on="0"/>
        <pt x="330" y="16" on="1"/>
        <pt x="327" y="-8" on="1"/>
        <pt x="253" y="0" on="0"/>
        <pt x="80" y="0" on="0"/>
        <pt x="27" y="-8" on="1"/>
        <pt x="23" y="17" on="1"/>
        <pt x="68" y="31" on="0"/>
        <pt x="119" y="38" on="1"/>
        <pt x="130" y="120" on="0"/>
        <pt x="130" y="296" on="1"/>
        <pt x="130" y="355" on="1"/>
        <pt x="130" y="517" on="0"/>
        <pt x="117" y="613" on="1"/>
        <pt x="66" y="620" on="0"/>
        <pt x="21" y="634" on="1"/>
        <pt x="25" y="659" on="1"/>
        <pt x="78" y="651" on="0"/>
        <pt x="251" y="651" on="0"/>
        <pt x="325" y="659" on="1"/>
        <pt x="328" y="635" on="1"/>
        <pt x="271" y="621" on="0"/>
      </contour>
      <contour>
        <pt x="315" y="797" on="1"/>
        <pt x="109" y="722" on="1"/>
        <pt x="101" y="742" on="1"/>
        <pt x="183" y="778" on="0"/>
        <pt x="258" y="868" on="1"/>
        <pt x="280" y="866" on="0"/>
        <pt x="300" y="859" on="1"/>
        <pt x="305" y="850" on="0"/>
        <pt x="316" y="807" on="0"/>
      </contour>
    </TTGlyph>
    <TTGlyph name="Ibreve" xMin="16" yMin="-8" xMax="331" yMax="854">
      <contour>
        <pt x="218" y="616" on="1"/>
        <pt x="207" y="541" on="0"/>
        <pt x="207" y="131" on="0"/>
        <pt x="220" y="35" on="1"/>
        <pt x="273" y="30" on="0"/>
        <pt x="330" y="16" on="1"/>
        <pt x="327" y="-8" on="1"/>
        <pt x="253" y="0" on="0"/>
        <pt x="80" y="0" on="0"/>
        <pt x="27" y="-8" on="1"/>
        <pt x="23" y="17" on="1"/>
        <pt x="68" y="31" on="0"/>
        <pt x="119" y="38" on="1"/>
        <pt x="130" y="120" on="0"/>
        <pt x="130" y="296" on="1"/>
        <pt x="130" y="355" on="1"/>
        <pt x="130" y="517" on="0"/>
        <pt x="117" y="613" on="1"/>
        <pt x="66" y="620" on="0"/>
        <pt x="21" y="634" on="1"/>
        <pt x="25" y="659" on="1"/>
        <pt x="78" y="651" on="0"/>
        <pt x="251" y="651" on="0"/>
        <pt x="325" y="659" on="1"/>
        <pt x="328" y="635" on="1"/>
        <pt x="271" y="621" on="0"/>
      </contour>
      <contour>
        <pt x="206" y="785" on="1"/>
        <pt x="276" y="785" on="0"/>
        <pt x="313" y="854" on="1"/>
        <pt x="331" y="843" on="1"/>
        <pt x="310" y="800" on="0"/>
        <pt x="236" y="734" on="0"/>
        <pt x="192" y="719" on="1"/>
        <pt x="143" y="719" on="0"/>
        <pt x="35" y="785" on="0"/>
        <pt x="16" y="829" on="1"/>
        <pt x="17" y="838" on="1"/>
        <pt x="60" y="840" on="0"/>
        <pt x="88" y="854" on="1"/>
        <pt x="92" y="854" on="1"/>
        <pt x="106" y="821" on="0"/>
        <pt x="168" y="785" on="0"/>
      </contour>
    </TTGlyph>
    <TTGlyph name="Icircumflex" xMin="3" yMin="-8" xMax="345" yMax="885">
      <contour>
        <pt x="218" y="616" on="1"/>
        <pt x="207" y="541" on="0"/>
        <pt x="207" y="131" on="0"/>
        <pt x="220" y="35" on="1"/>
        <pt x="273" y="30" on="0"/>
        <pt x="330" y="16" on="1"/>
        <pt x="327" y="-8" on="1"/>
        <pt x="253" y="0" on="0"/>
        <pt x="80" y="0" on="0"/>
        <pt x="27" y="-8" on="1"/>
        <pt x="23" y="17" on="1"/>
        <pt x="68" y="31" on="0"/>
        <pt x="119" y="38" on="1"/>
        <pt x="130" y="120" on="0"/>
        <pt x="130" y="296" on="1"/>
        <pt x="130" y="355" on="1"/>
        <pt x="130" y="517" on="0"/>
        <pt x="117" y="613" on="1"/>
        <pt x="66" y="620" on="0"/>
        <pt x="21" y="634" on="1"/>
        <pt x="25" y="659" on="1"/>
        <pt x="78" y="651" on="0"/>
        <pt x="251" y="651" on="0"/>
        <pt x="325" y="659" on="1"/>
        <pt x="328" y="635" on="1"/>
        <pt x="271" y="621" on="0"/>
      </contour>
      <contour>
        <pt x="335" y="715" on="1"/>
        <pt x="174" y="790" on="1"/>
        <pt x="13" y="715" on="1"/>
        <pt x="3" y="734" on="1"/>
        <pt x="95" y="792" on="0"/>
        <pt x="164" y="885" on="1"/>
        <pt x="184" y="885" on="1"/>
        <pt x="253" y="792" on="0"/>
        <pt x="345" y="734" on="1"/>
      </contour>
    </TTGlyph>
    <TTGlyph name="Idieresis" xMin="21" yMin="-8" xMax="330" yMax="853">
      <contour>
        <pt x="218" y="616" on="1"/>
        <pt x="207" y="541" on="0"/>
        <pt x="207" y="131" on="0"/>
        <pt x="220" y="35" on="1"/>
        <pt x="273" y="30" on="0"/>
        <pt x="330" y="16" on="1"/>
        <pt x="327" y="-8" on="1"/>
        <pt x="253" y="0" on="0"/>
        <pt x="80" y="0" on="0"/>
        <pt x="27" y="-8" on="1"/>
        <pt x="23" y="17" on="1"/>
        <pt x="68" y="31" on="0"/>
        <pt x="119" y="38" on="1"/>
        <pt x="130" y="120" on="0"/>
        <pt x="130" y="296" on="1"/>
        <pt x="130" y="355" on="1"/>
        <pt x="130" y="517" on="0"/>
        <pt x="117" y="613" on="1"/>
        <pt x="66" y="620" on="0"/>
        <pt x="21" y="634" on="1"/>
        <pt x="25" y="659" on="1"/>
        <pt x="78" y="651" on="0"/>
        <pt x="251" y="651" on="0"/>
        <pt x="325" y="659" on="1"/>
        <pt x="328" y="635" on="1"/>
        <pt x="271" y="621" on="0"/>
      </contour>
      <contour>
        <pt x="135" y="803" on="1"/>
        <pt x="128" y="790" on="0"/>
        <pt x="93" y="750" on="0"/>
        <pt x="81" y="742" on="1"/>
        <pt x="69" y="750" on="0"/>
        <pt x="34" y="790" on="0"/>
        <pt x="27" y="803" on="1"/>
        <pt x="33" y="815" on="0"/>
        <pt x="67" y="846" on="0"/>
        <pt x="81" y="853" on="1"/>
        <pt x="94" y="845" on="0"/>
        <pt x="128" y="814" on="0"/>
      </contour>
      <contour>
        <pt x="320" y="803" on="1"/>
        <pt x="313" y="790" on="0"/>
        <pt x="278" y="750" on="0"/>
        <pt x="266" y="742" on="1"/>
        <pt x="254" y="750" on="0"/>
        <pt x="219" y="790" on="0"/>
        <pt x="212" y="803" on="1"/>
        <pt x="218" y="815" on="0"/>
        <pt x="252" y="846" on="0"/>
        <pt x="266" y="853" on="1"/>
        <pt x="279" y="845" on="0"/>
        <pt x="313" y="814" on="0"/>
      </contour>
    </TTGlyph>
    <TTGlyph name="Idotaccent" xMin="21" yMin="-8" xMax="330" yMax="853">
      <contour>
        <pt x="218" y="616" on="1"/>
        <pt x="207" y="541" on="0"/>
        <pt x="207" y="131" on="0"/>
        <pt x="220" y="35" on="1"/>
        <pt x="273" y="30" on="0"/>
        <pt x="330" y="16" on="1"/>
        <pt x="327" y="-8" on="1"/>
        <pt x="253" y="0" on="0"/>
        <pt x="80" y="0" on="0"/>
        <pt x="27" y="-8" on="1"/>
        <pt x="23" y="17" on="1"/>
        <pt x="68" y="31" on="0"/>
        <pt x="119" y="38" on="1"/>
        <pt x="130" y="120" on="0"/>
        <pt x="130" y="296" on="1"/>
        <pt x="130" y="355" on="1"/>
        <pt x="130" y="517" on="0"/>
        <pt x="117" y="613" on="1"/>
        <pt x="66" y="620" on="0"/>
        <pt x="21" y="634" on="1"/>
        <pt x="25" y="659" on="1"/>
        <pt x="78" y="651" on="0"/>
        <pt x="251" y="651" on="0"/>
        <pt x="325" y="659" on="1"/>
        <pt x="328" y="635" on="1"/>
        <pt x="271" y="621" on="0"/>
      </contour>
      <contour>
        <pt x="227" y="803" on="1"/>
        <pt x="220" y="790" on="0"/>
        <pt x="185" y="750" on="0"/>
        <pt x="173" y="742" on="1"/>
        <pt x="161" y="750" on="0"/>
        <pt x="126" y="790" on="0"/>
        <pt x="119" y="803" on="1"/>
        <pt x="125" y="815" on="0"/>
        <pt x="159" y="846" on="0"/>
        <pt x="173" y="853" on="1"/>
        <pt x="186" y="845" on="0"/>
        <pt x="220" y="814" on="0"/>
      </contour>
    </TTGlyph>
    <TTGlyph name="Igrave" xMin="21" yMin="-8" xMax="330" yMax="877">
      <contour>
        <pt x="218" y="616" on="1"/>
        <pt x="207" y="541" on="0"/>
        <pt x="207" y="131" on="0"/>
        <pt x="220" y="35" on="1"/>
        <pt x="273" y="30" on="0"/>
        <pt x="330" y="16" on="1"/>
        <pt x="327" y="-8" on="1"/>
        <pt x="253" y="0" on="0"/>
        <pt x="80" y="0" on="0"/>
        <pt x="27" y="-8" on="1"/>
        <pt x="23" y="17" on="1"/>
        <pt x="68" y="31" on="0"/>
        <pt x="119" y="38" on="1"/>
        <pt x="130" y="120" on="0"/>
        <pt x="130" y="296" on="1"/>
        <pt x="130" y="355" on="1"/>
        <pt x="130" y="517" on="0"/>
        <pt x="117" y="613" on="1"/>
        <pt x="66" y="620" on="0"/>
        <pt x="21" y="634" on="1"/>
        <pt x="25" y="659" on="1"/>
        <pt x="78" y="651" on="0"/>
        <pt x="251" y="651" on="0"/>
        <pt x="325" y="659" on="1"/>
        <pt x="328" y="635" on="1"/>
        <pt x="271" y="621" on="0"/>
      </contour>
      <contour>
        <pt x="243" y="731" on="1"/>
        <pt x="37" y="806" on="1"/>
        <pt x="36" y="816" on="0"/>
        <pt x="47" y="859" on="0"/>
        <pt x="52" y="868" on="1"/>
        <pt x="72" y="875" on="0"/>
        <pt x="94" y="877" on="1"/>
        <pt x="169" y="787" on="0"/>
        <pt x="251" y="751" on="1"/>
      </contour>
    </TTGlyph>
    <TTGlyph name="Imacron" xMin="21" yMin="-8" xMax="330" yMax="829">
      <contour>
        <pt x="218" y="616" on="1"/>
        <pt x="207" y="541" on="0"/>
        <pt x="207" y="131" on="0"/>
        <pt x="220" y="35" on="1"/>
        <pt x="273" y="30" on="0"/>
        <pt x="330" y="16" on="1"/>
        <pt x="327" y="-8" on="1"/>
        <pt x="253" y="0" on="0"/>
        <pt x="80" y="0" on="0"/>
        <pt x="27" y="-8" on="1"/>
        <pt x="23" y="17" on="1"/>
        <pt x="68" y="31" on="0"/>
        <pt x="119" y="38" on="1"/>
        <pt x="130" y="120" on="0"/>
        <pt x="130" y="296" on="1"/>
        <pt x="130" y="355" on="1"/>
        <pt x="130" y="517" on="0"/>
        <pt x="117" y="613" on="1"/>
        <pt x="66" y="620" on="0"/>
        <pt x="21" y="634" on="1"/>
        <pt x="25" y="659" on="1"/>
        <pt x="78" y="651" on="0"/>
        <pt x="251" y="651" on="0"/>
        <pt x="325" y="659" on="1"/>
        <pt x="328" y="635" on="1"/>
        <pt x="271" y="621" on="0"/>
      </contour>
      <contour>
        <pt x="90" y="826" on="1"/>
        <pt x="140" y="823" on="0"/>
        <pt x="257" y="823" on="0"/>
        <pt x="302" y="827" on="1"/>
        <pt x="310" y="822" on="1"/>
        <pt x="301" y="776" on="1"/>
        <pt x="45" y="773" on="1"/>
        <pt x="36" y="779" on="1"/>
        <pt x="45" y="829" on="1"/>
      </contour>
    </TTGlyph>
    <TTGlyph name="Iogonek" xMin="21" yMin="-215" xMax="330" yMax="659">
      <contour>
        <pt x="226" y="-1" on="1"/>
        <pt x="210" y="0" on="0"/>
        <pt x="80" y="0" on="0"/>
        <pt x="27" y="-8" on="1"/>
        <pt x="23" y="17" on="1"/>
        <pt x="68" y="31" on="0"/>
        <pt x="119" y="38" on="1"/>
        <pt x="130" y="120" on="0"/>
        <pt x="130" y="296" on="1"/>
        <pt x="130" y="355" on="1"/>
        <pt x="130" y="517" on="0"/>
        <pt x="117" y="613" on="1"/>
        <pt x="66" y="620" on="0"/>
        <pt x="21" y="634" on="1"/>
        <pt x="25" y="659" on="1"/>
        <pt x="78" y="651" on="0"/>
        <pt x="251" y="651" on="0"/>
        <pt x="325" y="659" on="1"/>
        <pt x="328" y="635" on="1"/>
        <pt x="271" y="621" on="0"/>
        <pt x="218" y="616" on="1"/>
        <pt x="207" y="541" on="0"/>
        <pt x="207" y="131" on="0"/>
        <pt x="220" y="35" on="1"/>
        <pt x="273" y="30" on="0"/>
        <pt x="330" y="16" on="1"/>
        <pt x="327" y="-8" on="1"/>
        <pt x="299" y="-4" on="0"/>
        <pt x="250" y="-4" on="0"/>
        <pt x="196" y="-65" on="0"/>
        <pt x="196" y="-102" on="1"/>
        <pt x="196" y="-164" on="0"/>
        <pt x="262" y="-164" on="1"/>
        <pt x="284" y="-164" on="0"/>
        <pt x="299" y="-160" on="1"/>
        <pt x="299" y="-169" on="1"/>
        <pt x="268" y="-190" on="0"/>
        <pt x="250" y="-215" on="1"/>
        <pt x="190" y="-215" on="0"/>
        <pt x="130" y="-169" on="0"/>
        <pt x="130" y="-113" on="1"/>
        <pt x="143" y="-82" on="0"/>
        <pt x="198" y="-19" on="0"/>
      </contour>
    </TTGlyph>
    <TTGlyph name="Itilde" xMin="9" yMin="-8" xMax="339" yMax="837">
      <contour>
        <pt x="218" y="616" on="1"/>
        <pt x="207" y="541" on="0"/>
        <pt x="207" y="131" on="0"/>
        <pt x="220" y="35" on="1"/>
        <pt x="273" y="30" on="0"/>
        <pt x="330" y="16" on="1"/>
        <pt x="327" y="-8" on="1"/>
        <pt x="253" y="0" on="0"/>
        <pt x="80" y="0" on="0"/>
        <pt x="27" y="-8" on="1"/>
        <pt x="23" y="17" on="1"/>
        <pt x="68" y="31" on="0"/>
        <pt x="119" y="38" on="1"/>
        <pt x="130" y="120" on="0"/>
        <pt x="130" y="296" on="1"/>
        <pt x="130" y="355" on="1"/>
        <pt x="130" y="517" on="0"/>
        <pt x="117" y="613" on="1"/>
        <pt x="66" y="620" on="0"/>
        <pt x="21" y="634" on="1"/>
        <pt x="25" y="659" on="1"/>
        <pt x="78" y="651" on="0"/>
        <pt x="251" y="651" on="0"/>
        <pt x="325" y="659" on="1"/>
        <pt x="328" y="635" on="1"/>
        <pt x="271" y="621" on="0"/>
      </contour>
      <contour>
        <pt x="137" y="837" on="1"/>
        <pt x="196" y="806" on="0"/>
        <pt x="301" y="806" on="0"/>
        <pt x="321" y="830" on="1"/>
        <pt x="339" y="819" on="1"/>
        <pt x="283" y="758" on="0"/>
        <pt x="235" y="737" on="1"/>
        <pt x="214" y="737" on="0"/>
        <pt x="111" y="768" on="0"/>
        <pt x="90" y="768" on="1"/>
        <pt x="47" y="768" on="0"/>
        <pt x="27" y="744" on="1"/>
        <pt x="9" y="755" on="1"/>
        <pt x="65" y="816" on="0"/>
      </contour>
    </TTGlyph>
    <TTGlyph name="J" xMin="-8" yMin="-180" xMax="316" yMax="659">
      <contour>
        <pt x="12" y="659" on="1"/>
        <pt x="86" y="651" on="0"/>
        <pt x="259" y="651" on="0"/>
        <pt x="312" y="659" on="1"/>
        <pt x="316" y="634" on="1"/>
        <pt x="271" y="620" on="0"/>
        <pt x="220" y="613" on="1"/>
        <pt x="207" y="517" on="0"/>
        <pt x="207" y="355" on="1"/>
        <pt x="207" y="296" on="1"/>
        <pt x="207" y="111" on="0"/>
        <pt x="215" y="33" on="1"/>
        <pt x="159" y="-93" on="0"/>
        <pt x="9" y="-180" on="1"/>
        <pt x="-8" y="-161" on="1"/>
        <pt x="68" y="-97" on="0"/>
        <pt x="130" y="50" on="0"/>
        <pt x="130" y="154" on="1"/>
        <pt x="130" y="355" on="1"/>
        <pt x="130" y="541" on="0"/>
        <pt x="119" y="616" on="1"/>
        <pt x="66" y="621" on="0"/>
        <pt x="9" y="635" on="1"/>
      </contour>
    </TTGlyph>
    <TTGlyph name="Jcircumflex" xMin="-8" yMin="-180" xMax="335" yMax="885">
      <contour>
        <pt x="325" y="715" on="1"/>
        <pt x="164" y="790" on="1"/>
        <pt x="3" y="715" on="1"/>
        <pt x="-7" y="734" on="1"/>
        <pt x="85" y="792" on="0"/>
        <pt x="154" y="885" on="1"/>
        <pt x="174" y="885" on="1"/>
        <pt x="243" y="792" on="0"/>
        <pt x="335" y="734" on="1"/>
      </contour>
      <contour>
        <pt x="12" y="659" on="1"/>
        <pt x="86" y="651" on="0"/>
        <pt x="259" y="651" on="0"/>
        <pt x="312" y="659" on="1"/>
        <pt x="316" y="634" on="1"/>
        <pt x="271" y="620" on="0"/>
        <pt x="220" y="613" on="1"/>
        <pt x="207" y="517" on="0"/>
        <pt x="207" y="355" on="1"/>
        <pt x="207" y="296" on="1"/>
        <pt x="207" y="111" on="0"/>
        <pt x="215" y="33" on="1"/>
        <pt x="159" y="-93" on="0"/>
        <pt x="9" y="-180" on="1"/>
        <pt x="-8" y="-161" on="1"/>
        <pt x="68" y="-97" on="0"/>
        <pt x="130" y="50" on="0"/>
        <pt x="130" y="154" on="1"/>
        <pt x="130" y="355" on="1"/>
        <pt x="130" y="541" on="0"/>
        <pt x="119" y="616" on="1"/>
        <pt x="66" y="621" on="0"/>
        <pt x="9" y="635" on="1"/>
      </contour>
    </TTGlyph>
    <TTGlyph name="K" xMin="20" yMin="-8" xMax="627" yMax="659">
      <contour>
        <pt x="623" y="-8" on="1"/>
        <pt x="564" y="0" on="0"/>
        <pt x="427" y="0" on="0"/>
        <pt x="396" y="-4" on="1"/>
        <pt x="392" y="10" on="1"/>
        <pt x="409" y="27" on="0"/>
        <pt x="409" y="67" on="1"/>
        <pt x="409" y="148" on="0"/>
        <pt x="307" y="344" on="1"/>
        <pt x="251" y="293" on="0"/>
        <pt x="207" y="257" on="1"/>
        <pt x="210" y="102" on="0"/>
        <pt x="219" y="35" on="1"/>
        <pt x="278" y="29" on="0"/>
        <pt x="332" y="16" on="1"/>
        <pt x="329" y="-8" on="1"/>
        <pt x="255" y="0" on="0"/>
        <pt x="79" y="0" on="0"/>
        <pt x="26" y="-8" on="1"/>
        <pt x="22" y="17" on="1"/>
        <pt x="67" y="31" on="0"/>
        <pt x="118" y="38" on="1"/>
        <pt x="129" y="120" on="0"/>
        <pt x="129" y="296" on="1"/>
        <pt x="129" y="355" on="1"/>
        <pt x="129" y="517" on="0"/>
        <pt x="116" y="613" on="1"/>
        <pt x="65" y="620" on="0"/>
        <pt x="20" y="634" on="1"/>
        <pt x="24" y="659" on="1"/>
        <pt x="77" y="651" on="0"/>
        <pt x="240" y="651" on="0"/>
        <pt x="314" y="659" on="1"/>
        <pt x="317" y="635" on="1"/>
        <pt x="253" y="620" on="0"/>
        <pt x="217" y="616" on="1"/>
        <pt x="206" y="541" on="0"/>
        <pt x="206" y="350" on="1"/>
        <pt x="206" y="294" on="1"/>
        <pt x="332" y="427" on="0"/>
        <pt x="410" y="555" on="0"/>
        <pt x="410" y="624" on="0"/>
        <pt x="393" y="641" on="1"/>
        <pt x="397" y="655" on="1"/>
        <pt x="428" y="651" on="0"/>
        <pt x="543" y="651" on="0"/>
        <pt x="602" y="659" on="1"/>
        <pt x="606" y="634" on="1"/>
        <pt x="561" y="620" on="0"/>
        <pt x="510" y="613" on="1"/>
        <pt x="501" y="528" on="0"/>
        <pt x="364" y="397" on="1"/>
        <pt x="531" y="38" on="1"/>
        <pt x="582" y="31" on="0"/>
        <pt x="627" y="17" on="1"/>
      </contour>
    </TTGlyph>
    <TTGlyph name="L" xMin="21" yMin="-11" xMax="477" yMax="659">
      <contour>
        <pt x="471" y="-11" on="1"/>
        <pt x="371" y="0" on="0"/>
        <pt x="114" y="0" on="0"/>
        <pt x="25" y="-10" on="1"/>
        <pt x="21" y="15" on="1"/>
        <pt x="60" y="28" on="0"/>
        <pt x="117" y="38" on="1"/>
        <pt x="128" y="120" on="0"/>
        <pt x="128" y="296" on="1"/>
        <pt x="128" y="355" on="1"/>
        <pt x="128" y="530" on="0"/>
        <pt x="117" y="613" on="1"/>
        <pt x="66" y="620" on="0"/>
        <pt x="21" y="634" on="1"/>
        <pt x="25" y="659" on="1"/>
        <pt x="78" y="651" on="0"/>
        <pt x="251" y="651" on="0"/>
        <pt x="325" y="659" on="1"/>
        <pt x="328" y="635" on="1"/>
        <pt x="268" y="621" on="0"/>
        <pt x="218" y="616" on="1"/>
        <pt x="205" y="528" on="0"/>
        <pt x="205" y="116" on="0"/>
        <pt x="215" y="42" on="1"/>
        <pt x="248" y="37" on="0"/>
        <pt x="360" y="37" on="0"/>
        <pt x="400" y="55" on="1"/>
        <pt x="412" y="92" on="0"/>
        <pt x="419" y="167" on="1"/>
        <pt x="444" y="167" on="1"/>
        <pt x="448" y="61" on="0"/>
        <pt x="477" y="9" on="1"/>
      </contour>
    </TTGlyph>
    <TTGlyph name="Lacute.may" xMin="21" yMin="-11" xMax="477" yMax="868">
      <contour>
        <pt x="313" y="797" on="1"/>
        <pt x="107" y="722" on="1"/>
        <pt x="99" y="742" on="1"/>
        <pt x="181" y="778" on="0"/>
        <pt x="256" y="868" on="1"/>
        <pt x="278" y="866" on="0"/>
        <pt x="298" y="859" on="1"/>
        <pt x="303" y="850" on="0"/>
        <pt x="314" y="807" on="0"/>
      </contour>
      <contour>
        <pt x="471" y="-11" on="1"/>
        <pt x="371" y="0" on="0"/>
        <pt x="114" y="0" on="0"/>
        <pt x="25" y="-10" on="1"/>
        <pt x="21" y="15" on="1"/>
        <pt x="60" y="28" on="0"/>
        <pt x="117" y="38" on="1"/>
        <pt x="128" y="120" on="0"/>
        <pt x="128" y="296" on="1"/>
        <pt x="128" y="355" on="1"/>
        <pt x="128" y="530" on="0"/>
        <pt x="117" y="613" on="1"/>
        <pt x="66" y="620" on="0"/>
        <pt x="21" y="634" on="1"/>
        <pt x="25" y="659" on="1"/>
        <pt x="78" y="651" on="0"/>
        <pt x="251" y="651" on="0"/>
        <pt x="325" y="659" on="1"/>
        <pt x="328" y="635" on="1"/>
        <pt x="268" y="621" on="0"/>
        <pt x="218" y="616" on="1"/>
        <pt x="205" y="528" on="0"/>
        <pt x="205" y="116" on="0"/>
        <pt x="215" y="42" on="1"/>
        <pt x="248" y="37" on="0"/>
        <pt x="360" y="37" on="0"/>
        <pt x="400" y="55" on="1"/>
        <pt x="412" y="92" on="0"/>
        <pt x="419" y="167" on="1"/>
        <pt x="444" y="167" on="1"/>
        <pt x="448" y="61" on="0"/>
        <pt x="477" y="9" on="1"/>
      </contour>
    </TTGlyph>
    <TTGlyph name="Ldotaccent" xMin="21" yMin="-11" xMax="477" yMax="659">
      <contour>
        <pt x="471" y="-11" on="1"/>
        <pt x="371" y="0" on="0"/>
        <pt x="114" y="0" on="0"/>
        <pt x="25" y="-10" on="1"/>
        <pt x="21" y="15" on="1"/>
        <pt x="60" y="28" on="0"/>
        <pt x="117" y="38" on="1"/>
        <pt x="128" y="120" on="0"/>
        <pt x="128" y="296" on="1"/>
        <pt x="128" y="355" on="1"/>
        <pt x="128" y="530" on="0"/>
        <pt x="117" y="613" on="1"/>
        <pt x="66" y="620" on="0"/>
        <pt x="21" y="634" on="1"/>
        <pt x="25" y="659" on="1"/>
        <pt x="78" y="651" on="0"/>
        <pt x="251" y="651" on="0"/>
        <pt x="325" y="659" on="1"/>
        <pt x="328" y="635" on="1"/>
        <pt x="268" y="621" on="0"/>
        <pt x="218" y="616" on="1"/>
        <pt x="205" y="528" on="0"/>
        <pt x="205" y="116" on="0"/>
        <pt x="215" y="42" on="1"/>
        <pt x="248" y="37" on="0"/>
        <pt x="360" y="37" on="0"/>
        <pt x="400" y="55" on="1"/>
        <pt x="412" y="92" on="0"/>
        <pt x="419" y="167" on="1"/>
        <pt x="444" y="167" on="1"/>
        <pt x="448" y="61" on="0"/>
        <pt x="477" y="9" on="1"/>
      </contour>
      <contour>
        <pt x="424" y="354" on="1"/>
        <pt x="417" y="341" on="0"/>
        <pt x="382" y="301" on="0"/>
        <pt x="370" y="293" on="1"/>
        <pt x="358" y="301" on="0"/>
        <pt x="323" y="341" on="0"/>
        <pt x="316" y="354" on="1"/>
        <pt x="322" y="366" on="0"/>
        <pt x="356" y="397" on="0"/>
        <pt x="370" y="404" on="1"/>
        <pt x="383" y="396" on="0"/>
        <pt x="417" y="365" on="0"/>
      </contour>
    </TTGlyph>
    <TTGlyph name="Ldotaccent.001" xMin="21" yMin="-11" xMax="477" yMax="659">
      <contour>
        <pt x="471" y="-11" on="1"/>
        <pt x="371" y="0" on="0"/>
        <pt x="114" y="0" on="0"/>
        <pt x="25" y="-10" on="1"/>
        <pt x="21" y="15" on="1"/>
        <pt x="60" y="28" on="0"/>
        <pt x="117" y="38" on="1"/>
        <pt x="128" y="120" on="0"/>
        <pt x="128" y="296" on="1"/>
        <pt x="128" y="355" on="1"/>
        <pt x="128" y="530" on="0"/>
        <pt x="117" y="613" on="1"/>
        <pt x="66" y="620" on="0"/>
        <pt x="21" y="634" on="1"/>
        <pt x="25" y="659" on="1"/>
        <pt x="78" y="651" on="0"/>
        <pt x="251" y="651" on="0"/>
        <pt x="325" y="659" on="1"/>
        <pt x="328" y="635" on="1"/>
        <pt x="268" y="621" on="0"/>
        <pt x="218" y="616" on="1"/>
        <pt x="205" y="528" on="0"/>
        <pt x="205" y="116" on="0"/>
        <pt x="215" y="42" on="1"/>
        <pt x="248" y="37" on="0"/>
        <pt x="360" y="37" on="0"/>
        <pt x="400" y="55" on="1"/>
        <pt x="412" y="92" on="0"/>
        <pt x="419" y="167" on="1"/>
        <pt x="444" y="167" on="1"/>
        <pt x="448" y="61" on="0"/>
        <pt x="477" y="9" on="1"/>
      </contour>
      <contour>
        <pt x="424" y="354" on="1"/>
        <pt x="417" y="341" on="0"/>
        <pt x="382" y="301" on="0"/>
        <pt x="370" y="293" on="1"/>
        <pt x="358" y="301" on="0"/>
        <pt x="323" y="341" on="0"/>
        <pt x="316" y="354" on="1"/>
        <pt x="322" y="366" on="0"/>
        <pt x="356" y="397" on="0"/>
        <pt x="370" y="404" on="1"/>
        <pt x="383" y="396" on="0"/>
        <pt x="417" y="365" on="0"/>
      </contour>
    </TTGlyph>
    <TTGlyph name="Lslash" xMin="21" yMin="-11" xMax="477" yMax="659">
      <contour>
        <pt x="471" y="-11" on="1"/>
        <pt x="371" y="0" on="0"/>
        <pt x="114" y="0" on="0"/>
        <pt x="25" y="-10" on="1"/>
        <pt x="21" y="15" on="1"/>
        <pt x="60" y="28" on="0"/>
        <pt x="117" y="38" on="1"/>
        <pt x="128" y="120" on="0"/>
        <pt x="128" y="296" on="1"/>
        <pt x="128" y="308" on="1"/>
        <pt x="68" y="279" on="0"/>
        <pt x="33" y="253" on="1"/>
        <pt x="29" y="256" on="1"/>
        <pt x="24" y="283" on="0"/>
        <pt x="22" y="288" on="1"/>
        <pt x="128" y="342" on="1"/>
        <pt x="128" y="355" on="1"/>
        <pt x="128" y="530" on="0"/>
        <pt x="117" y="613" on="1"/>
        <pt x="66" y="620" on="0"/>
        <pt x="21" y="634" on="1"/>
        <pt x="25" y="659" on="1"/>
        <pt x="78" y="651" on="0"/>
        <pt x="251" y="651" on="0"/>
        <pt x="325" y="659" on="1"/>
        <pt x="328" y="635" on="1"/>
        <pt x="268" y="621" on="0"/>
        <pt x="218" y="616" on="1"/>
        <pt x="207" y="546" on="0"/>
        <pt x="205" y="381" on="1"/>
        <pt x="269" y="414" on="1"/>
        <pt x="326" y="444" on="0"/>
        <pt x="343" y="454" on="1"/>
        <pt x="351" y="442" on="0"/>
        <pt x="364" y="430" on="1"/>
        <pt x="366" y="426" on="1"/>
        <pt x="205" y="346" on="1"/>
        <pt x="205" y="114" on="0"/>
        <pt x="215" y="42" on="1"/>
        <pt x="248" y="37" on="0"/>
        <pt x="360" y="37" on="0"/>
        <pt x="400" y="55" on="1"/>
        <pt x="412" y="92" on="0"/>
        <pt x="419" y="167" on="1"/>
        <pt x="444" y="167" on="1"/>
        <pt x="448" y="61" on="0"/>
        <pt x="477" y="9" on="1"/>
      </contour>
    </TTGlyph>
    <TTGlyph name="M" xMin="-28" yMin="-8" xMax="871" yMax="659">
      <contour>
        <pt x="362" y="70" on="1"/>
        <pt x="362" y="204" on="0"/>
        <pt x="232" y="601" on="1"/>
        <pt x="228" y="600" on="1"/>
        <pt x="196" y="367" on="1"/>
        <pt x="176" y="224" on="0"/>
        <pt x="176" y="109" on="1"/>
        <pt x="176" y="72" on="0"/>
        <pt x="193" y="24" on="0"/>
        <pt x="219" y="10" on="1"/>
        <pt x="215" y="-4" on="1"/>
        <pt x="184" y="0" on="0"/>
        <pt x="35" y="0" on="0"/>
        <pt x="-24" y="-8" on="1"/>
        <pt x="-28" y="17" on="1"/>
        <pt x="17" y="31" on="0"/>
        <pt x="68" y="38" on="1"/>
        <pt x="184" y="617" on="1"/>
        <pt x="124" y="623" on="0"/>
        <pt x="74" y="635" on="1"/>
        <pt x="77" y="659" on="1"/>
        <pt x="151" y="651" on="0"/>
        <pt x="317" y="651" on="0"/>
        <pt x="357" y="655" on="1"/>
        <pt x="359" y="641" on="1"/>
        <pt x="325" y="629" on="0"/>
        <pt x="325" y="610" on="1"/>
        <pt x="325" y="544" on="0"/>
        <pt x="404" y="293" on="1"/>
        <pt x="435" y="195" on="1"/>
        <pt x="442" y="197" on="1"/>
        <pt x="443" y="219" on="0"/>
        <pt x="566" y="609" on="1"/>
        <pt x="566" y="619" on="0"/>
        <pt x="544" y="638" on="0"/>
        <pt x="532" y="641" on="1"/>
        <pt x="535" y="655" on="1"/>
        <pt x="585" y="651" on="0"/>
        <pt x="759" y="651" on="0"/>
        <pt x="811" y="659" on="1"/>
        <pt x="816" y="634" on="1"/>
        <pt x="768" y="619" on="0"/>
        <pt x="719" y="613" on="1"/>
        <pt x="714" y="589" on="0"/>
        <pt x="714" y="466" on="0"/>
        <pt x="747" y="96" on="0"/>
        <pt x="761" y="35" on="1"/>
        <pt x="814" y="30" on="0"/>
        <pt x="871" y="16" on="1"/>
        <pt x="868" y="-8" on="1"/>
        <pt x="794" y="0" on="0"/>
        <pt x="622" y="0" on="0"/>
        <pt x="569" y="-8" on="1"/>
        <pt x="565" y="17" on="1"/>
        <pt x="610" y="31" on="0"/>
        <pt x="661" y="38" on="1"/>
        <pt x="661" y="133" on="0"/>
        <pt x="638" y="478" on="0"/>
        <pt x="621" y="597" on="1"/>
        <pt x="618" y="598" on="1"/>
        <pt x="477" y="208" on="0"/>
        <pt x="469" y="105" on="1"/>
        <pt x="404" y="66" on="0"/>
        <pt x="372" y="29" on="1"/>
        <pt x="360" y="37" on="1"/>
        <pt x="362" y="59" on="0"/>
      </contour>
    </TTGlyph>
    <TTGlyph name="N" xMin="21" yMin="-8" xMax="688" yMax="659">
      <contour>
        <pt x="25" y="659" on="1"/>
        <pt x="75" y="651" on="0"/>
        <pt x="234" y="651" on="0"/>
        <pt x="278" y="657" on="1"/>
        <pt x="283" y="641" on="1"/>
        <pt x="271" y="637" on="0"/>
        <pt x="249" y="620" on="0"/>
        <pt x="249" y="610" on="1"/>
        <pt x="249" y="586" on="0"/>
        <pt x="351" y="410" on="0"/>
        <pt x="524" y="140" on="1"/>
        <pt x="528" y="142" on="1"/>
        <pt x="528" y="286" on="1"/>
        <pt x="528" y="454" on="0"/>
        <pt x="494" y="626" on="0"/>
        <pt x="451" y="641" on="1"/>
        <pt x="455" y="655" on="1"/>
        <pt x="486" y="651" on="0"/>
        <pt x="626" y="651" on="0"/>
        <pt x="685" y="659" on="1"/>
        <pt x="688" y="636" on="1"/>
        <pt x="617" y="619" on="0"/>
        <pt x="589" y="616" on="1"/>
        <pt x="576" y="518" on="0"/>
        <pt x="576" y="355" on="1"/>
        <pt x="576" y="296" on="1"/>
        <pt x="576" y="109" on="0"/>
        <pt x="589" y="35" on="1"/>
        <pt x="640" y="29" on="0"/>
        <pt x="685" y="17" on="1"/>
        <pt x="681" y="-8" on="1"/>
        <pt x="628" y="0" on="0"/>
        <pt x="521" y="0" on="0"/>
        <pt x="488" y="-3" on="1"/>
        <pt x="488" y="66" on="0"/>
        <pt x="187" y="535" on="1"/>
        <pt x="183" y="533" on="1"/>
        <pt x="183" y="365" on="1"/>
        <pt x="183" y="110" on="0"/>
        <pt x="220" y="35" on="1"/>
        <pt x="275" y="30" on="0"/>
        <pt x="329" y="16" on="1"/>
        <pt x="327" y="-8" on="1"/>
        <pt x="253" y="0" on="0"/>
        <pt x="80" y="0" on="0"/>
        <pt x="27" y="-8" on="1"/>
        <pt x="23" y="17" on="1"/>
        <pt x="68" y="31" on="0"/>
        <pt x="119" y="38" on="1"/>
        <pt x="130" y="120" on="0"/>
        <pt x="130" y="296" on="1"/>
        <pt x="130" y="355" on="1"/>
        <pt x="130" y="517" on="0"/>
        <pt x="117" y="613" on="1"/>
        <pt x="66" y="620" on="0"/>
        <pt x="21" y="634" on="1"/>
      </contour>
    </TTGlyph>
    <TTGlyph name="Nacute" xMin="21" yMin="-8" xMax="688" yMax="868">
      <contour>
        <pt x="554" y="797" on="1"/>
        <pt x="348" y="722" on="1"/>
        <pt x="340" y="742" on="1"/>
        <pt x="422" y="778" on="0"/>
        <pt x="497" y="868" on="1"/>
        <pt x="519" y="866" on="0"/>
        <pt x="539" y="859" on="1"/>
        <pt x="544" y="850" on="0"/>
        <pt x="555" y="807" on="0"/>
      </contour>
      <contour>
        <pt x="25" y="659" on="1"/>
        <pt x="75" y="651" on="0"/>
        <pt x="234" y="651" on="0"/>
        <pt x="278" y="657" on="1"/>
        <pt x="283" y="641" on="1"/>
        <pt x="271" y="637" on="0"/>
        <pt x="249" y="620" on="0"/>
        <pt x="249" y="610" on="1"/>
        <pt x="249" y="586" on="0"/>
        <pt x="351" y="410" on="0"/>
        <pt x="524" y="140" on="1"/>
        <pt x="528" y="142" on="1"/>
        <pt x="528" y="286" on="1"/>
        <pt x="528" y="454" on="0"/>
        <pt x="494" y="626" on="0"/>
        <pt x="451" y="641" on="1"/>
        <pt x="455" y="655" on="1"/>
        <pt x="486" y="651" on="0"/>
        <pt x="626" y="651" on="0"/>
        <pt x="685" y="659" on="1"/>
        <pt x="688" y="636" on="1"/>
        <pt x="617" y="619" on="0"/>
        <pt x="589" y="616" on="1"/>
        <pt x="576" y="518" on="0"/>
        <pt x="576" y="355" on="1"/>
        <pt x="576" y="296" on="1"/>
        <pt x="576" y="109" on="0"/>
        <pt x="589" y="35" on="1"/>
        <pt x="640" y="29" on="0"/>
        <pt x="685" y="17" on="1"/>
        <pt x="681" y="-8" on="1"/>
        <pt x="628" y="0" on="0"/>
        <pt x="521" y="0" on="0"/>
        <pt x="488" y="-3" on="1"/>
        <pt x="488" y="66" on="0"/>
        <pt x="187" y="535" on="1"/>
        <pt x="183" y="533" on="1"/>
        <pt x="183" y="365" on="1"/>
        <pt x="183" y="110" on="0"/>
        <pt x="220" y="35" on="1"/>
        <pt x="275" y="30" on="0"/>
        <pt x="329" y="16" on="1"/>
        <pt x="327" y="-8" on="1"/>
        <pt x="253" y="0" on="0"/>
        <pt x="80" y="0" on="0"/>
        <pt x="27" y="-8" on="1"/>
        <pt x="23" y="17" on="1"/>
        <pt x="68" y="31" on="0"/>
        <pt x="119" y="38" on="1"/>
        <pt x="130" y="120" on="0"/>
        <pt x="130" y="296" on="1"/>
        <pt x="130" y="355" on="1"/>
        <pt x="130" y="517" on="0"/>
        <pt x="117" y="613" on="1"/>
        <pt x="66" y="620" on="0"/>
        <pt x="21" y="634" on="1"/>
      </contour>
    </TTGlyph>
    <TTGlyph name="Ncaron" xMin="21" yMin="-8" xMax="688" yMax="885">
      <contour>
        <pt x="360" y="810" on="1"/>
        <pt x="521" y="885" on="1"/>
        <pt x="531" y="866" on="1"/>
        <pt x="439" y="808" on="0"/>
        <pt x="370" y="715" on="1"/>
        <pt x="350" y="715" on="1"/>
        <pt x="281" y="808" on="0"/>
        <pt x="189" y="866" on="1"/>
        <pt x="199" y="885" on="1"/>
      </contour>
      <contour>
        <pt x="25" y="659" on="1"/>
        <pt x="75" y="651" on="0"/>
        <pt x="234" y="651" on="0"/>
        <pt x="278" y="657" on="1"/>
        <pt x="283" y="641" on="1"/>
        <pt x="271" y="637" on="0"/>
        <pt x="249" y="620" on="0"/>
        <pt x="249" y="610" on="1"/>
        <pt x="249" y="586" on="0"/>
        <pt x="351" y="410" on="0"/>
        <pt x="524" y="140" on="1"/>
        <pt x="528" y="142" on="1"/>
        <pt x="528" y="286" on="1"/>
        <pt x="528" y="454" on="0"/>
        <pt x="494" y="626" on="0"/>
        <pt x="451" y="641" on="1"/>
        <pt x="455" y="655" on="1"/>
        <pt x="486" y="651" on="0"/>
        <pt x="626" y="651" on="0"/>
        <pt x="685" y="659" on="1"/>
        <pt x="688" y="636" on="1"/>
        <pt x="617" y="619" on="0"/>
        <pt x="589" y="616" on="1"/>
        <pt x="576" y="518" on="0"/>
        <pt x="576" y="355" on="1"/>
        <pt x="576" y="296" on="1"/>
        <pt x="576" y="109" on="0"/>
        <pt x="589" y="35" on="1"/>
        <pt x="640" y="29" on="0"/>
        <pt x="685" y="17" on="1"/>
        <pt x="681" y="-8" on="1"/>
        <pt x="628" y="0" on="0"/>
        <pt x="521" y="0" on="0"/>
        <pt x="488" y="-3" on="1"/>
        <pt x="488" y="66" on="0"/>
        <pt x="187" y="535" on="1"/>
        <pt x="183" y="533" on="1"/>
        <pt x="183" y="365" on="1"/>
        <pt x="183" y="110" on="0"/>
        <pt x="220" y="35" on="1"/>
        <pt x="275" y="30" on="0"/>
        <pt x="329" y="16" on="1"/>
        <pt x="327" y="-8" on="1"/>
        <pt x="253" y="0" on="0"/>
        <pt x="80" y="0" on="0"/>
        <pt x="27" y="-8" on="1"/>
        <pt x="23" y="17" on="1"/>
        <pt x="68" y="31" on="0"/>
        <pt x="119" y="38" on="1"/>
        <pt x="130" y="120" on="0"/>
        <pt x="130" y="296" on="1"/>
        <pt x="130" y="355" on="1"/>
        <pt x="130" y="517" on="0"/>
        <pt x="117" y="613" on="1"/>
        <pt x="66" y="620" on="0"/>
        <pt x="21" y="634" on="1"/>
      </contour>
    </TTGlyph>
    <TTGlyph name="Ntilde" xMin="21" yMin="-8" xMax="688" yMax="837">
      <contour>
        <pt x="25" y="659" on="1"/>
        <pt x="75" y="651" on="0"/>
        <pt x="234" y="651" on="0"/>
        <pt x="278" y="657" on="1"/>
        <pt x="283" y="641" on="1"/>
        <pt x="271" y="637" on="0"/>
        <pt x="249" y="620" on="0"/>
        <pt x="249" y="610" on="1"/>
        <pt x="249" y="586" on="0"/>
        <pt x="351" y="410" on="0"/>
        <pt x="524" y="140" on="1"/>
        <pt x="528" y="142" on="1"/>
        <pt x="528" y="286" on="1"/>
        <pt x="528" y="454" on="0"/>
        <pt x="494" y="626" on="0"/>
        <pt x="451" y="641" on="1"/>
        <pt x="455" y="655" on="1"/>
        <pt x="486" y="651" on="0"/>
        <pt x="626" y="651" on="0"/>
        <pt x="685" y="659" on="1"/>
        <pt x="688" y="636" on="1"/>
        <pt x="617" y="619" on="0"/>
        <pt x="589" y="616" on="1"/>
        <pt x="576" y="518" on="0"/>
        <pt x="576" y="355" on="1"/>
        <pt x="576" y="296" on="1"/>
        <pt x="576" y="109" on="0"/>
        <pt x="589" y="35" on="1"/>
        <pt x="640" y="29" on="0"/>
        <pt x="685" y="17" on="1"/>
        <pt x="681" y="-8" on="1"/>
        <pt x="628" y="0" on="0"/>
        <pt x="521" y="0" on="0"/>
        <pt x="488" y="-3" on="1"/>
        <pt x="488" y="66" on="0"/>
        <pt x="187" y="535" on="1"/>
        <pt x="183" y="533" on="1"/>
        <pt x="183" y="365" on="1"/>
        <pt x="183" y="110" on="0"/>
        <pt x="220" y="35" on="1"/>
        <pt x="275" y="30" on="0"/>
        <pt x="329" y="16" on="1"/>
        <pt x="327" y="-8" on="1"/>
        <pt x="253" y="0" on="0"/>
        <pt x="80" y="0" on="0"/>
        <pt x="27" y="-8" on="1"/>
        <pt x="23" y="17" on="1"/>
        <pt x="68" y="31" on="0"/>
        <pt x="119" y="38" on="1"/>
        <pt x="130" y="120" on="0"/>
        <pt x="130" y="296" on="1"/>
        <pt x="130" y="355" on="1"/>
        <pt x="130" y="517" on="0"/>
        <pt x="117" y="613" on="1"/>
        <pt x="66" y="620" on="0"/>
        <pt x="21" y="634" on="1"/>
      </contour>
      <contour>
        <pt x="329" y="837" on="1"/>
        <pt x="388" y="806" on="0"/>
        <pt x="493" y="806" on="0"/>
        <pt x="513" y="830" on="1"/>
        <pt x="531" y="819" on="1"/>
        <pt x="475" y="758" on="0"/>
        <pt x="427" y="737" on="1"/>
        <pt x="406" y="737" on="0"/>
        <pt x="303" y="768" on="0"/>
        <pt x="282" y="768" on="1"/>
        <pt x="239" y="768" on="0"/>
        <pt x="219" y="744" on="1"/>
        <pt x="201" y="755" on="1"/>
        <pt x="257" y="816" on="0"/>
      </contour>
    </TTGlyph>
    <TTGlyph name="O" xMin="42" yMin="-15" xMax="560" yMax="666">
      <contour>
        <pt x="184" y="-15" on="0"/>
        <pt x="42" y="140" on="0"/>
        <pt x="42" y="404" on="0"/>
        <pt x="191" y="633" on="0"/>
        <pt x="313" y="666" on="1"/>
        <pt x="435" y="666" on="0"/>
        <pt x="560" y="520" on="0"/>
        <pt x="560" y="249" on="0"/>
        <pt x="423" y="32" on="0"/>
        <pt x="301" y="-15" on="1"/>
      </contour>
      <contour>
        <pt x="276" y="594" on="1"/>
        <pt x="220" y="594" on="0"/>
        <pt x="182" y="560" on="1"/>
        <pt x="131" y="470" on="0"/>
        <pt x="131" y="339" on="1"/>
        <pt x="131" y="183" on="0"/>
        <pt x="215" y="101" on="1"/>
        <pt x="260" y="57" on="0"/>
        <pt x="381" y="57" on="0"/>
        <pt x="421" y="92" on="1"/>
        <pt x="471" y="184" on="0"/>
        <pt x="471" y="310" on="1"/>
        <pt x="471" y="427" on="0"/>
        <pt x="431" y="506" on="1"/>
        <pt x="387" y="594" on="0"/>
      </contour>
    </TTGlyph>
    <TTGlyph name="OE" xMin="42" yMin="-15" xMax="804" yMax="662">
      <contour>
        <pt x="418" y="662" on="0"/>
        <pt x="508" y="651" on="0"/>
        <pt x="684" y="651" on="0"/>
        <pt x="800" y="662" on="1"/>
        <pt x="804" y="642" on="1"/>
        <pt x="752" y="589" on="0"/>
        <pt x="745" y="484" on="1"/>
        <pt x="720" y="484" on="1"/>
        <pt x="711" y="527" on="0"/>
        <pt x="711" y="593" on="1"/>
        <pt x="668" y="614" on="0"/>
        <pt x="554" y="614" on="0"/>
        <pt x="527" y="609" on="1"/>
        <pt x="510" y="557" on="0"/>
        <pt x="502" y="365" on="1"/>
        <pt x="534" y="358" on="0"/>
        <pt x="579" y="358" on="1"/>
        <pt x="668" y="358" on="0"/>
        <pt x="688" y="401" on="1"/>
        <pt x="708" y="397" on="1"/>
        <pt x="699" y="365" on="0"/>
        <pt x="699" y="276" on="0"/>
        <pt x="705" y="233" on="1"/>
        <pt x="682" y="229" on="1"/>
        <pt x="667" y="267" on="0"/>
        <pt x="662" y="318" on="1"/>
        <pt x="624" y="321" on="0"/>
        <pt x="535" y="321" on="0"/>
        <pt x="501" y="316" on="1"/>
        <pt x="501" y="273" on="1"/>
        <pt x="501" y="148" on="0"/>
        <pt x="538" y="102" on="1"/>
        <pt x="570" y="64" on="0"/>
        <pt x="707" y="64" on="0"/>
        <pt x="785" y="142" on="1"/>
        <pt x="799" y="129" on="1"/>
        <pt x="716" y="19" on="0"/>
        <pt x="616" y="-15" on="1"/>
        <pt x="492" y="-15" on="0"/>
        <pt x="446" y="81" on="1"/>
        <pt x="442" y="81" on="1"/>
        <pt x="369" y="7" on="0"/>
        <pt x="254" y="-15" on="1"/>
        <pt x="155" y="2" on="0"/>
        <pt x="42" y="145" on="0"/>
        <pt x="42" y="348" on="0"/>
        <pt x="132" y="530" on="0"/>
        <pt x="295" y="651" on="0"/>
        <pt x="394" y="662" on="1"/>
      </contour>
      <contour>
        <pt x="431" y="577" on="1"/>
        <pt x="378" y="600" on="0"/>
        <pt x="271" y="600" on="0"/>
        <pt x="241" y="578" on="1"/>
        <pt x="141" y="479" on="0"/>
        <pt x="141" y="281" on="1"/>
        <pt x="141" y="187" on="0"/>
        <pt x="232" y="50" on="0"/>
        <pt x="313" y="50" on="1"/>
        <pt x="361" y="50" on="0"/>
        <pt x="390" y="71" on="1"/>
        <pt x="408" y="95" on="0"/>
        <pt x="419" y="166" on="0"/>
        <pt x="419" y="337" on="0"/>
        <pt x="431" y="558" on="0"/>
      </contour>
    </TTGlyph>
    <TTGlyph name="Oacute" xMin="42" yMin="-15" xMax="560" yMax="868">
      <contour>
        <pt x="184" y="-15" on="0"/>
        <pt x="42" y="140" on="0"/>
        <pt x="42" y="404" on="0"/>
        <pt x="191" y="633" on="0"/>
        <pt x="313" y="666" on="1"/>
        <pt x="435" y="666" on="0"/>
        <pt x="560" y="520" on="0"/>
        <pt x="560" y="249" on="0"/>
        <pt x="423" y="32" on="0"/>
        <pt x="301" y="-15" on="1"/>
      </contour>
      <contour>
        <pt x="276" y="594" on="1"/>
        <pt x="220" y="594" on="0"/>
        <pt x="182" y="560" on="1"/>
        <pt x="131" y="470" on="0"/>
        <pt x="131" y="339" on="1"/>
        <pt x="131" y="183" on="0"/>
        <pt x="215" y="101" on="1"/>
        <pt x="260" y="57" on="0"/>
        <pt x="381" y="57" on="0"/>
        <pt x="421" y="92" on="1"/>
        <pt x="471" y="184" on="0"/>
        <pt x="471" y="310" on="1"/>
        <pt x="471" y="427" on="0"/>
        <pt x="431" y="506" on="1"/>
        <pt x="387" y="594" on="0"/>
      </contour>
      <contour>
        <pt x="485" y="797" on="1"/>
        <pt x="279" y="722" on="1"/>
        <pt x="271" y="742" on="1"/>
        <pt x="353" y="778" on="0"/>
        <pt x="428" y="868" on="1"/>
        <pt x="450" y="866" on="0"/>
        <pt x="470" y="859" on="1"/>
        <pt x="475" y="850" on="0"/>
        <pt x="486" y="807" on="0"/>
      </contour>
    </TTGlyph>
    <TTGlyph name="Obreve" xMin="42" yMin="-15" xMax="560" yMax="854">
      <contour>
        <pt x="184" y="-15" on="0"/>
        <pt x="42" y="140" on="0"/>
        <pt x="42" y="404" on="0"/>
        <pt x="191" y="633" on="0"/>
        <pt x="313" y="666" on="1"/>
        <pt x="435" y="666" on="0"/>
        <pt x="560" y="520" on="0"/>
        <pt x="560" y="249" on="0"/>
        <pt x="423" y="32" on="0"/>
        <pt x="301" y="-15" on="1"/>
      </contour>
      <contour>
        <pt x="276" y="594" on="1"/>
        <pt x="220" y="594" on="0"/>
        <pt x="182" y="560" on="1"/>
        <pt x="131" y="470" on="0"/>
        <pt x="131" y="339" on="1"/>
        <pt x="131" y="183" on="0"/>
        <pt x="215" y="101" on="1"/>
        <pt x="260" y="57" on="0"/>
        <pt x="381" y="57" on="0"/>
        <pt x="421" y="92" on="1"/>
        <pt x="471" y="184" on="0"/>
        <pt x="471" y="310" on="1"/>
        <pt x="471" y="427" on="0"/>
        <pt x="431" y="506" on="1"/>
        <pt x="387" y="594" on="0"/>
      </contour>
      <contour>
        <pt x="354" y="785" on="1"/>
        <pt x="424" y="785" on="0"/>
        <pt x="461" y="854" on="1"/>
        <pt x="479" y="843" on="1"/>
        <pt x="458" y="800" on="0"/>
        <pt x="384" y="734" on="0"/>
        <pt x="340" y="719" on="1"/>
        <pt x="291" y="719" on="0"/>
        <pt x="183" y="785" on="0"/>
        <pt x="164" y="829" on="1"/>
        <pt x="165" y="838" on="1"/>
        <pt x="208" y="840" on="0"/>
        <pt x="236" y="854" on="1"/>
        <pt x="240" y="854" on="1"/>
        <pt x="254" y="821" on="0"/>
        <pt x="316" y="785" on="0"/>
      </contour>
    </TTGlyph>
    <TTGlyph name="Ocircumflex" xMin="42" yMin="-15" xMax="560" yMax="885">
      <contour>
        <pt x="184" y="-15" on="0"/>
        <pt x="42" y="140" on="0"/>
        <pt x="42" y="404" on="0"/>
        <pt x="191" y="633" on="0"/>
        <pt x="313" y="666" on="1"/>
        <pt x="435" y="666" on="0"/>
        <pt x="560" y="520" on="0"/>
        <pt x="560" y="249" on="0"/>
        <pt x="423" y="32" on="0"/>
        <pt x="301" y="-15" on="1"/>
      </contour>
      <contour>
        <pt x="276" y="594" on="1"/>
        <pt x="220" y="594" on="0"/>
        <pt x="182" y="560" on="1"/>
        <pt x="131" y="470" on="0"/>
        <pt x="131" y="339" on="1"/>
        <pt x="131" y="183" on="0"/>
        <pt x="215" y="101" on="1"/>
        <pt x="260" y="57" on="0"/>
        <pt x="381" y="57" on="0"/>
        <pt x="421" y="92" on="1"/>
        <pt x="471" y="184" on="0"/>
        <pt x="471" y="310" on="1"/>
        <pt x="471" y="427" on="0"/>
        <pt x="431" y="506" on="1"/>
        <pt x="387" y="594" on="0"/>
      </contour>
      <contour>
        <pt x="482" y="715" on="1"/>
        <pt x="321" y="790" on="1"/>
        <pt x="160" y="715" on="1"/>
        <pt x="150" y="734" on="1"/>
        <pt x="242" y="792" on="0"/>
        <pt x="311" y="885" on="1"/>
        <pt x="331" y="885" on="1"/>
        <pt x="400" y="792" on="0"/>
        <pt x="492" y="734" on="1"/>
      </contour>
    </TTGlyph>
    <TTGlyph name="Odieresis" xMin="42" yMin="-15" xMax="560" yMax="853">
      <contour>
        <pt x="184" y="-15" on="0"/>
        <pt x="42" y="140" on="0"/>
        <pt x="42" y="404" on="0"/>
        <pt x="191" y="633" on="0"/>
        <pt x="313" y="666" on="1"/>
        <pt x="435" y="666" on="0"/>
        <pt x="560" y="520" on="0"/>
        <pt x="560" y="249" on="0"/>
        <pt x="423" y="32" on="0"/>
        <pt x="301" y="-15" on="1"/>
      </contour>
      <contour>
        <pt x="276" y="594" on="1"/>
        <pt x="220" y="594" on="0"/>
        <pt x="182" y="560" on="1"/>
        <pt x="131" y="470" on="0"/>
        <pt x="131" y="339" on="1"/>
        <pt x="131" y="183" on="0"/>
        <pt x="215" y="101" on="1"/>
        <pt x="260" y="57" on="0"/>
        <pt x="381" y="57" on="0"/>
        <pt x="421" y="92" on="1"/>
        <pt x="471" y="184" on="0"/>
        <pt x="471" y="310" on="1"/>
        <pt x="471" y="427" on="0"/>
        <pt x="431" y="506" on="1"/>
        <pt x="387" y="594" on="0"/>
      </contour>
      <contour>
        <pt x="283" y="803" on="1"/>
        <pt x="276" y="790" on="0"/>
        <pt x="241" y="750" on="0"/>
        <pt x="229" y="742" on="1"/>
        <pt x="217" y="750" on="0"/>
        <pt x="182" y="790" on="0"/>
        <pt x="175" y="803" on="1"/>
        <pt x="181" y="815" on="0"/>
        <pt x="215" y="846" on="0"/>
        <pt x="229" y="853" on="1"/>
        <pt x="242" y="845" on="0"/>
        <pt x="276" y="814" on="0"/>
      </contour>
      <contour>
        <pt x="468" y="803" on="1"/>
        <pt x="461" y="790" on="0"/>
        <pt x="426" y="750" on="0"/>
        <pt x="414" y="742" on="1"/>
        <pt x="402" y="750" on="0"/>
        <pt x="367" y="790" on="0"/>
        <pt x="360" y="803" on="1"/>
        <pt x="366" y="815" on="0"/>
        <pt x="400" y="846" on="0"/>
        <pt x="414" y="853" on="1"/>
        <pt x="427" y="845" on="0"/>
        <pt x="461" y="814" on="0"/>
      </contour>
    </TTGlyph>
    <TTGlyph name="Ograve" xMin="42" yMin="-15" xMax="560" yMax="877">
      <contour>
        <pt x="184" y="-15" on="0"/>
        <pt x="42" y="140" on="0"/>
        <pt x="42" y="404" on="0"/>
        <pt x="191" y="633" on="0"/>
        <pt x="313" y="666" on="1"/>
        <pt x="435" y="666" on="0"/>
        <pt x="560" y="520" on="0"/>
        <pt x="560" y="249" on="0"/>
        <pt x="423" y="32" on="0"/>
        <pt x="301" y="-15" on="1"/>
      </contour>
      <contour>
        <pt x="276" y="594" on="1"/>
        <pt x="220" y="594" on="0"/>
        <pt x="182" y="560" on="1"/>
        <pt x="131" y="470" on="0"/>
        <pt x="131" y="339" on="1"/>
        <pt x="131" y="183" on="0"/>
        <pt x="215" y="101" on="1"/>
        <pt x="260" y="57" on="0"/>
        <pt x="381" y="57" on="0"/>
        <pt x="421" y="92" on="1"/>
        <pt x="471" y="184" on="0"/>
        <pt x="471" y="310" on="1"/>
        <pt x="471" y="427" on="0"/>
        <pt x="431" y="506" on="1"/>
        <pt x="387" y="594" on="0"/>
      </contour>
      <contour>
        <pt x="385" y="731" on="1"/>
        <pt x="179" y="806" on="1"/>
        <pt x="178" y="816" on="0"/>
        <pt x="189" y="859" on="0"/>
        <pt x="194" y="868" on="1"/>
        <pt x="214" y="875" on="0"/>
        <pt x="236" y="877" on="1"/>
        <pt x="311" y="787" on="0"/>
        <pt x="393" y="751" on="1"/>
      </contour>
    </TTGlyph>
    <TTGlyph name="Ohungarumlaut" xMin="42" yMin="-15" xMax="571" yMax="868">
      <contour>
        <pt x="184" y="-15" on="0"/>
        <pt x="42" y="140" on="0"/>
        <pt x="42" y="404" on="0"/>
        <pt x="191" y="633" on="0"/>
        <pt x="313" y="666" on="1"/>
        <pt x="435" y="666" on="0"/>
        <pt x="560" y="520" on="0"/>
        <pt x="560" y="249" on="0"/>
        <pt x="423" y="32" on="0"/>
        <pt x="301" y="-15" on="1"/>
      </contour>
      <contour>
        <pt x="276" y="594" on="1"/>
        <pt x="220" y="594" on="0"/>
        <pt x="182" y="560" on="1"/>
        <pt x="131" y="470" on="0"/>
        <pt x="131" y="339" on="1"/>
        <pt x="131" y="183" on="0"/>
        <pt x="215" y="101" on="1"/>
        <pt x="260" y="57" on="0"/>
        <pt x="381" y="57" on="0"/>
        <pt x="421" y="92" on="1"/>
        <pt x="471" y="184" on="0"/>
        <pt x="471" y="310" on="1"/>
        <pt x="471" y="427" on="0"/>
        <pt x="431" y="506" on="1"/>
        <pt x="387" y="594" on="0"/>
      </contour>
      <contour>
        <pt x="402" y="807" on="1"/>
        <pt x="211" y="722" on="1"/>
        <pt x="203" y="742" on="1"/>
        <pt x="285" y="778" on="0"/>
        <pt x="360" y="868" on="1"/>
        <pt x="368" y="867" on="0"/>
        <pt x="387" y="863" on="1"/>
        <pt x="402" y="836" on="0"/>
      </contour>
      <contour>
        <pt x="571" y="807" on="1"/>
        <pt x="380" y="722" on="1"/>
        <pt x="372" y="742" on="1"/>
        <pt x="454" y="778" on="0"/>
        <pt x="529" y="868" on="1"/>
        <pt x="537" y="867" on="0"/>
        <pt x="556" y="863" on="1"/>
        <pt x="571" y="836" on="0"/>
      </contour>
    </TTGlyph>
    <TTGlyph name="Omacron" xMin="42" yMin="-15" xMax="560" yMax="829">
      <contour>
        <pt x="184" y="-15" on="0"/>
        <pt x="42" y="140" on="0"/>
        <pt x="42" y="404" on="0"/>
        <pt x="191" y="633" on="0"/>
        <pt x="313" y="666" on="1"/>
        <pt x="435" y="666" on="0"/>
        <pt x="560" y="520" on="0"/>
        <pt x="560" y="249" on="0"/>
        <pt x="423" y="32" on="0"/>
        <pt x="301" y="-15" on="1"/>
      </contour>
      <contour>
        <pt x="276" y="594" on="1"/>
        <pt x="220" y="594" on="0"/>
        <pt x="182" y="560" on="1"/>
        <pt x="131" y="470" on="0"/>
        <pt x="131" y="339" on="1"/>
        <pt x="131" y="183" on="0"/>
        <pt x="215" y="101" on="1"/>
        <pt x="260" y="57" on="0"/>
        <pt x="381" y="57" on="0"/>
        <pt x="421" y="92" on="1"/>
        <pt x="471" y="184" on="0"/>
        <pt x="471" y="310" on="1"/>
        <pt x="471" y="427" on="0"/>
        <pt x="431" y="506" on="1"/>
        <pt x="387" y="594" on="0"/>
      </contour>
      <contour>
        <pt x="238" y="826" on="1"/>
        <pt x="287" y="823" on="0"/>
        <pt x="405" y="823" on="0"/>
        <pt x="450" y="827" on="1"/>
        <pt x="458" y="822" on="1"/>
        <pt x="449" y="776" on="1"/>
        <pt x="193" y="773" on="1"/>
        <pt x="184" y="779" on="1"/>
        <pt x="193" y="829" on="1"/>
      </contour>
    </TTGlyph>
    <TTGlyph name="Omega" xMin="26" yMin="-11" xMax="675" yMax="666">
      <contour>
        <pt x="625" y="384" on="1"/>
        <pt x="625" y="302" on="0"/>
        <pt x="543" y="127" on="0"/>
        <pt x="479" y="71" on="1"/>
        <pt x="479" y="66" on="1"/>
        <pt x="487" y="66" on="1"/>
        <pt x="565" y="66" on="0"/>
        <pt x="605" y="84" on="1"/>
        <pt x="613" y="121" on="0"/>
        <pt x="617" y="167" on="1"/>
        <pt x="642" y="167" on="1"/>
        <pt x="646" y="61" on="0"/>
        <pt x="675" y="9" on="1"/>
        <pt x="669" y="-11" on="1"/>
        <pt x="582" y="0" on="0"/>
        <pt x="433" y="0" on="0"/>
        <pt x="412" y="-1" on="1"/>
        <pt x="411" y="41" on="1"/>
        <pt x="473" y="88" on="0"/>
        <pt x="532" y="251" on="0"/>
        <pt x="532" y="343" on="1"/>
        <pt x="532" y="448" on="0"/>
        <pt x="492" y="526" on="1"/>
        <pt x="472" y="565" on="0"/>
        <pt x="400" y="610" on="0"/>
        <pt x="311" y="610" on="0"/>
        <pt x="276" y="594" on="1"/>
        <pt x="225" y="552" on="0"/>
        <pt x="177" y="417" on="0"/>
        <pt x="177" y="251" on="0"/>
        <pt x="236" y="88" on="0"/>
        <pt x="298" y="41" on="1"/>
        <pt x="297" y="-1" on="1"/>
        <pt x="276" y="0" on="0"/>
        <pt x="119" y="0" on="0"/>
        <pt x="32" y="-11" on="1"/>
        <pt x="26" y="9" on="1"/>
        <pt x="55" y="61" on="0"/>
        <pt x="59" y="167" on="1"/>
        <pt x="84" y="167" on="1"/>
        <pt x="88" y="121" on="0"/>
        <pt x="96" y="84" on="1"/>
        <pt x="136" y="66" on="0"/>
        <pt x="222" y="66" on="1"/>
        <pt x="229" y="66" on="1"/>
        <pt x="229" y="71" on="1"/>
        <pt x="163" y="125" on="0"/>
        <pt x="84" y="282" on="0"/>
        <pt x="84" y="364" on="1"/>
        <pt x="84" y="490" on="0"/>
        <pt x="263" y="656" on="0"/>
        <pt x="387" y="666" on="1"/>
        <pt x="503" y="656" on="0"/>
        <pt x="625" y="506" on="0"/>
      </contour>
    </TTGlyph>
    <TTGlyph name="Oslash" xMin="42" yMin="-87" xMax="560" yMax="739">
      <contour>
        <pt x="42" y="265" on="1"/>
        <pt x="42" y="404" on="0"/>
        <pt x="191" y="633" on="0"/>
        <pt x="313" y="666" on="1"/>
        <pt x="357" y="666" on="0"/>
        <pt x="396" y="655" on="1"/>
        <pt x="421" y="732" on="1"/>
        <pt x="444" y="734" on="0"/>
        <pt x="459" y="739" on="1"/>
        <pt x="463" y="736" on="1"/>
        <pt x="449" y="704" on="0"/>
        <pt x="426" y="645" on="1"/>
        <pt x="560" y="586" on="0"/>
        <pt x="560" y="387" on="1"/>
        <pt x="560" y="249" on="0"/>
        <pt x="423" y="32" on="0"/>
        <pt x="301" y="-15" on="1"/>
        <pt x="241" y="-15" on="0"/>
        <pt x="184" y="10" on="1"/>
        <pt x="148" y="-87" on="1"/>
        <pt x="143" y="-87" on="1"/>
        <pt x="127" y="-78" on="0"/>
        <pt x="117" y="-63" on="1"/>
        <pt x="156" y="26" on="1"/>
        <pt x="102" y="62" on="0"/>
        <pt x="42" y="186" on="0"/>
      </contour>
      <contour>
        <pt x="217" y="97" on="1"/>
        <pt x="262" y="57" on="0"/>
        <pt x="381" y="57" on="0"/>
        <pt x="421" y="92" on="1"/>
        <pt x="471" y="184" on="0"/>
        <pt x="471" y="310" on="1"/>
        <pt x="471" y="487" on="0"/>
        <pt x="392" y="556" on="1"/>
      </contour>
      <contour>
        <pt x="368" y="573" on="1"/>
        <pt x="329" y="594" on="0"/>
        <pt x="220" y="594" on="0"/>
        <pt x="182" y="560" on="1"/>
        <pt x="131" y="470" on="0"/>
        <pt x="131" y="204" on="0"/>
        <pt x="195" y="121" on="1"/>
      </contour>
    </TTGlyph>
    <TTGlyph name="Oslashacute" xMin="42" yMin="-87" xMax="560" yMax="868">
      <contour>
        <pt x="485" y="797" on="1"/>
        <pt x="279" y="722" on="1"/>
        <pt x="271" y="742" on="1"/>
        <pt x="353" y="778" on="0"/>
        <pt x="428" y="868" on="1"/>
        <pt x="450" y="866" on="0"/>
        <pt x="470" y="859" on="1"/>
        <pt x="475" y="850" on="0"/>
        <pt x="486" y="807" on="0"/>
      </contour>
      <contour>
        <pt x="42" y="265" on="1"/>
        <pt x="42" y="404" on="0"/>
        <pt x="191" y="633" on="0"/>
        <pt x="313" y="666" on="1"/>
        <pt x="357" y="666" on="0"/>
        <pt x="396" y="655" on="1"/>
        <pt x="421" y="732" on="1"/>
        <pt x="444" y="734" on="0"/>
        <pt x="459" y="739" on="1"/>
        <pt x="463" y="736" on="1"/>
        <pt x="449" y="704" on="0"/>
        <pt x="426" y="645" on="1"/>
        <pt x="560" y="586" on="0"/>
        <pt x="560" y="387" on="1"/>
        <pt x="560" y="249" on="0"/>
        <pt x="423" y="32" on="0"/>
        <pt x="301" y="-15" on="1"/>
        <pt x="241" y="-15" on="0"/>
        <pt x="184" y="10" on="1"/>
        <pt x="148" y="-87" on="1"/>
        <pt x="143" y="-87" on="1"/>
        <pt x="127" y="-78" on="0"/>
        <pt x="117" y="-63" on="1"/>
        <pt x="156" y="26" on="1"/>
        <pt x="102" y="62" on="0"/>
        <pt x="42" y="186" on="0"/>
      </contour>
      <contour>
        <pt x="217" y="97" on="1"/>
        <pt x="262" y="57" on="0"/>
        <pt x="381" y="57" on="0"/>
        <pt x="421" y="92" on="1"/>
        <pt x="471" y="184" on="0"/>
        <pt x="471" y="310" on="1"/>
        <pt x="471" y="487" on="0"/>
        <pt x="392" y="556" on="1"/>
      </contour>
      <contour>
        <pt x="368" y="573" on="1"/>
        <pt x="329" y="594" on="0"/>
        <pt x="220" y="594" on="0"/>
        <pt x="182" y="560" on="1"/>
        <pt x="131" y="470" on="0"/>
        <pt x="131" y="204" on="0"/>
        <pt x="195" y="121" on="1"/>
      </contour>
    </TTGlyph>
    <TTGlyph name="Otilde" xMin="42" yMin="-15" xMax="560" yMax="837">
      <contour>
        <pt x="184" y="-15" on="0"/>
        <pt x="42" y="140" on="0"/>
        <pt x="42" y="404" on="0"/>
        <pt x="191" y="633" on="0"/>
        <pt x="313" y="666" on="1"/>
        <pt x="435" y="666" on="0"/>
        <pt x="560" y="520" on="0"/>
        <pt x="560" y="249" on="0"/>
        <pt x="423" y="32" on="0"/>
        <pt x="301" y="-15" on="1"/>
      </contour>
      <contour>
        <pt x="276" y="594" on="1"/>
        <pt x="220" y="594" on="0"/>
        <pt x="182" y="560" on="1"/>
        <pt x="131" y="470" on="0"/>
        <pt x="131" y="339" on="1"/>
        <pt x="131" y="183" on="0"/>
        <pt x="215" y="101" on="1"/>
        <pt x="260" y="57" on="0"/>
        <pt x="381" y="57" on="0"/>
        <pt x="421" y="92" on="1"/>
        <pt x="471" y="184" on="0"/>
        <pt x="471" y="310" on="1"/>
        <pt x="471" y="427" on="0"/>
        <pt x="431" y="506" on="1"/>
        <pt x="387" y="594" on="0"/>
      </contour>
      <contour>
        <pt x="285" y="837" on="1"/>
        <pt x="344" y="806" on="0"/>
        <pt x="449" y="806" on="0"/>
        <pt x="469" y="830" on="1"/>
        <pt x="487" y="819" on="1"/>
        <pt x="431" y="758" on="0"/>
        <pt x="383" y="737" on="1"/>
        <pt x="362" y="737" on="0"/>
        <pt x="259" y="768" on="0"/>
        <pt x="238" y="768" on="1"/>
        <pt x="195" y="768" on="0"/>
        <pt x="175" y="744" on="1"/>
        <pt x="157" y="755" on="1"/>
        <pt x="213" y="816" on="0"/>
      </contour>
    </TTGlyph>
    <TTGlyph name="P" xMin="21" yMin="-8" xMax="517" yMax="658">
      <contour>
        <pt x="21" y="649" on="1"/>
        <pt x="311" y="658" on="1"/>
        <pt x="517" y="658" on="0"/>
        <pt x="517" y="494" on="1"/>
        <pt x="517" y="405" on="0"/>
        <pt x="371" y="295" on="0"/>
        <pt x="274" y="295" on="1"/>
        <pt x="259" y="295" on="0"/>
        <pt x="252" y="296" on="1"/>
        <pt x="256" y="328" on="1"/>
        <pt x="268" y="328" on="1"/>
        <pt x="343" y="328" on="0"/>
        <pt x="423" y="404" on="0"/>
        <pt x="423" y="550" on="0"/>
        <pt x="361" y="621" on="0"/>
        <pt x="294" y="621" on="1"/>
        <pt x="254" y="621" on="0"/>
        <pt x="216" y="608" on="1"/>
        <pt x="207" y="514" on="0"/>
        <pt x="207" y="124" on="0"/>
        <pt x="219" y="35" on="1"/>
        <pt x="272" y="30" on="0"/>
        <pt x="329" y="16" on="1"/>
        <pt x="326" y="-8" on="1"/>
        <pt x="252" y="0" on="0"/>
        <pt x="79" y="0" on="0"/>
        <pt x="26" y="-8" on="1"/>
        <pt x="22" y="17" on="1"/>
        <pt x="67" y="31" on="0"/>
        <pt x="118" y="38" on="1"/>
        <pt x="130" y="120" on="0"/>
        <pt x="130" y="514" on="0"/>
        <pt x="119" y="608" on="1"/>
        <pt x="71" y="624" on="0"/>
        <pt x="21" y="624" on="1"/>
      </contour>
    </TTGlyph>
    <TTGlyph name="Q" xMin="42" yMin="-202" xMax="698" yMax="666">
      <contour>
        <pt x="286" y="-73" on="1"/>
        <pt x="223" y="-73" on="0"/>
        <pt x="179" y="-107" on="1"/>
        <pt x="162" y="-91" on="1"/>
        <pt x="204" y="-47" on="0"/>
        <pt x="281" y="-14" on="1"/>
        <pt x="172" y="-7" on="0"/>
        <pt x="42" y="146" on="0"/>
        <pt x="42" y="404" on="0"/>
        <pt x="191" y="633" on="0"/>
        <pt x="313" y="666" on="1"/>
        <pt x="435" y="666" on="0"/>
        <pt x="560" y="520" on="0"/>
        <pt x="560" y="257" on="0"/>
        <pt x="437" y="48" on="0"/>
        <pt x="326" y="-4" on="1"/>
        <pt x="376" y="-4" on="0"/>
        <pt x="574" y="-93" on="0"/>
        <pt x="601" y="-99" on="1"/>
        <pt x="645" y="-82" on="0"/>
        <pt x="687" y="-58" on="1"/>
        <pt x="698" y="-75" on="1"/>
        <pt x="627" y="-120" on="0"/>
        <pt x="583" y="-202" on="1"/>
        <pt x="555" y="-182" on="1"/>
        <pt x="403" y="-73" on="0"/>
      </contour>
      <contour>
        <pt x="276" y="594" on="1"/>
        <pt x="220" y="594" on="0"/>
        <pt x="182" y="560" on="1"/>
        <pt x="131" y="470" on="0"/>
        <pt x="131" y="339" on="1"/>
        <pt x="131" y="183" on="0"/>
        <pt x="215" y="101" on="1"/>
        <pt x="260" y="57" on="0"/>
        <pt x="381" y="57" on="0"/>
        <pt x="421" y="92" on="1"/>
        <pt x="471" y="184" on="0"/>
        <pt x="471" y="310" on="1"/>
        <pt x="471" y="427" on="0"/>
        <pt x="431" y="506" on="1"/>
        <pt x="387" y="594" on="0"/>
      </contour>
    </TTGlyph>
    <TTGlyph name="R" xMin="21" yMin="-8" xMax="637" yMax="658">
      <contour>
        <pt x="35" y="649" on="1"/>
        <pt x="323" y="658" on="1"/>
        <pt x="424" y="658" on="0"/>
        <pt x="526" y="592" on="0"/>
        <pt x="526" y="504" on="1"/>
        <pt x="526" y="382" on="0"/>
        <pt x="401" y="334" on="1"/>
        <pt x="541" y="38" on="1"/>
        <pt x="592" y="31" on="0"/>
        <pt x="637" y="17" on="1"/>
        <pt x="633" y="-8" on="1"/>
        <pt x="574" y="0" on="0"/>
        <pt x="437" y="0" on="0"/>
        <pt x="406" y="-4" on="1"/>
        <pt x="402" y="10" on="1"/>
        <pt x="419" y="27" on="0"/>
        <pt x="419" y="67" on="1"/>
        <pt x="419" y="147" on="0"/>
        <pt x="325" y="322" on="1"/>
        <pt x="300" y="327" on="0"/>
        <pt x="267" y="327" on="1"/>
        <pt x="270" y="349" on="1"/>
        <pt x="282" y="349" on="1"/>
        <pt x="354" y="349" on="0"/>
        <pt x="432" y="420" on="0"/>
        <pt x="432" y="556" on="0"/>
        <pt x="371" y="621" on="0"/>
        <pt x="306" y="621" on="1"/>
        <pt x="266" y="621" on="0"/>
        <pt x="230" y="608" on="1"/>
        <pt x="221" y="514" on="0"/>
        <pt x="221" y="113" on="0"/>
        <pt x="232" y="38" on="1"/>
        <pt x="283" y="31" on="0"/>
        <pt x="328" y="17" on="1"/>
        <pt x="324" y="-8" on="1"/>
        <pt x="271" y="0" on="0"/>
        <pt x="98" y="0" on="0"/>
        <pt x="24" y="-8" on="1"/>
        <pt x="21" y="16" on="1"/>
        <pt x="78" y="30" on="0"/>
        <pt x="131" y="35" on="1"/>
        <pt x="144" y="131" on="0"/>
        <pt x="144" y="514" on="0"/>
        <pt x="133" y="608" on="1"/>
        <pt x="85" y="624" on="0"/>
        <pt x="35" y="624" on="1"/>
      </contour>
    </TTGlyph>
    <TTGlyph name="Racute" xMin="21" yMin="-8" xMax="637" yMax="868">
      <contour>
        <pt x="35" y="649" on="1"/>
        <pt x="323" y="658" on="1"/>
        <pt x="424" y="658" on="0"/>
        <pt x="526" y="592" on="0"/>
        <pt x="526" y="504" on="1"/>
        <pt x="526" y="382" on="0"/>
        <pt x="401" y="334" on="1"/>
        <pt x="541" y="38" on="1"/>
        <pt x="592" y="31" on="0"/>
        <pt x="637" y="17" on="1"/>
        <pt x="633" y="-8" on="1"/>
        <pt x="574" y="0" on="0"/>
        <pt x="437" y="0" on="0"/>
        <pt x="406" y="-4" on="1"/>
        <pt x="402" y="10" on="1"/>
        <pt x="419" y="27" on="0"/>
        <pt x="419" y="67" on="1"/>
        <pt x="419" y="147" on="0"/>
        <pt x="325" y="322" on="1"/>
        <pt x="300" y="327" on="0"/>
        <pt x="267" y="327" on="1"/>
        <pt x="270" y="349" on="1"/>
        <pt x="282" y="349" on="1"/>
        <pt x="354" y="349" on="0"/>
        <pt x="432" y="420" on="0"/>
        <pt x="432" y="556" on="0"/>
        <pt x="371" y="621" on="0"/>
        <pt x="306" y="621" on="1"/>
        <pt x="266" y="621" on="0"/>
        <pt x="230" y="608" on="1"/>
        <pt x="221" y="514" on="0"/>
        <pt x="221" y="113" on="0"/>
        <pt x="232" y="38" on="1"/>
        <pt x="283" y="31" on="0"/>
        <pt x="328" y="17" on="1"/>
        <pt x="324" y="-8" on="1"/>
        <pt x="271" y="0" on="0"/>
        <pt x="98" y="0" on="0"/>
        <pt x="24" y="-8" on="1"/>
        <pt x="21" y="16" on="1"/>
        <pt x="78" y="30" on="0"/>
        <pt x="131" y="35" on="1"/>
        <pt x="144" y="131" on="0"/>
        <pt x="144" y="514" on="0"/>
        <pt x="133" y="608" on="1"/>
        <pt x="85" y="624" on="0"/>
        <pt x="35" y="624" on="1"/>
      </contour>
      <contour>
        <pt x="487" y="797" on="1"/>
        <pt x="281" y="722" on="1"/>
        <pt x="273" y="742" on="1"/>
        <pt x="355" y="778" on="0"/>
        <pt x="430" y="868" on="1"/>
        <pt x="452" y="866" on="0"/>
        <pt x="472" y="859" on="1"/>
        <pt x="477" y="850" on="0"/>
        <pt x="488" y="807" on="0"/>
      </contour>
    </TTGlyph>
    <TTGlyph name="Rcaron" xMin="21" yMin="-8" xMax="637" yMax="885">
      <contour>
        <pt x="306" y="810" on="1"/>
        <pt x="467" y="885" on="1"/>
        <pt x="477" y="866" on="1"/>
        <pt x="385" y="808" on="0"/>
        <pt x="316" y="715" on="1"/>
        <pt x="296" y="715" on="1"/>
        <pt x="227" y="808" on="0"/>
        <pt x="135" y="866" on="1"/>
        <pt x="145" y="885" on="1"/>
      </contour>
      <contour>
        <pt x="35" y="649" on="1"/>
        <pt x="323" y="658" on="1"/>
        <pt x="424" y="658" on="0"/>
        <pt x="526" y="592" on="0"/>
        <pt x="526" y="504" on="1"/>
        <pt x="526" y="382" on="0"/>
        <pt x="401" y="334" on="1"/>
        <pt x="541" y="38" on="1"/>
        <pt x="592" y="31" on="0"/>
        <pt x="637" y="17" on="1"/>
        <pt x="633" y="-8" on="1"/>
        <pt x="574" y="0" on="0"/>
        <pt x="437" y="0" on="0"/>
        <pt x="406" y="-4" on="1"/>
        <pt x="402" y="10" on="1"/>
        <pt x="419" y="27" on="0"/>
        <pt x="419" y="67" on="1"/>
        <pt x="419" y="147" on="0"/>
        <pt x="325" y="322" on="1"/>
        <pt x="300" y="327" on="0"/>
        <pt x="267" y="327" on="1"/>
        <pt x="270" y="349" on="1"/>
        <pt x="282" y="349" on="1"/>
        <pt x="354" y="349" on="0"/>
        <pt x="432" y="420" on="0"/>
        <pt x="432" y="556" on="0"/>
        <pt x="371" y="621" on="0"/>
        <pt x="306" y="621" on="1"/>
        <pt x="266" y="621" on="0"/>
        <pt x="230" y="608" on="1"/>
        <pt x="221" y="514" on="0"/>
        <pt x="221" y="113" on="0"/>
        <pt x="232" y="38" on="1"/>
        <pt x="283" y="31" on="0"/>
        <pt x="328" y="17" on="1"/>
        <pt x="324" y="-8" on="1"/>
        <pt x="271" y="0" on="0"/>
        <pt x="98" y="0" on="0"/>
        <pt x="24" y="-8" on="1"/>
        <pt x="21" y="16" on="1"/>
        <pt x="78" y="30" on="0"/>
        <pt x="131" y="35" on="1"/>
        <pt x="144" y="131" on="0"/>
        <pt x="144" y="514" on="0"/>
        <pt x="133" y="608" on="1"/>
        <pt x="85" y="624" on="0"/>
        <pt x="35" y="624" on="1"/>
      </contour>
    </TTGlyph>
    <TTGlyph name="Rcommaaccent" xMin="21" yMin="-215" xMax="637" yMax="658">
      <contour>
        <pt x="35" y="649" on="1"/>
        <pt x="323" y="658" on="1"/>
        <pt x="424" y="658" on="0"/>
        <pt x="526" y="592" on="0"/>
        <pt x="526" y="504" on="1"/>
        <pt x="526" y="382" on="0"/>
        <pt x="401" y="334" on="1"/>
        <pt x="541" y="38" on="1"/>
        <pt x="592" y="31" on="0"/>
        <pt x="637" y="17" on="1"/>
        <pt x="633" y="-8" on="1"/>
        <pt x="574" y="0" on="0"/>
        <pt x="437" y="0" on="0"/>
        <pt x="406" y="-4" on="1"/>
        <pt x="402" y="10" on="1"/>
        <pt x="419" y="27" on="0"/>
        <pt x="419" y="67" on="1"/>
        <pt x="419" y="147" on="0"/>
        <pt x="325" y="322" on="1"/>
        <pt x="300" y="327" on="0"/>
        <pt x="267" y="327" on="1"/>
        <pt x="270" y="349" on="1"/>
        <pt x="282" y="349" on="1"/>
        <pt x="354" y="349" on="0"/>
        <pt x="432" y="420" on="0"/>
        <pt x="432" y="556" on="0"/>
        <pt x="371" y="621" on="0"/>
        <pt x="306" y="621" on="1"/>
        <pt x="266" y="621" on="0"/>
        <pt x="230" y="608" on="1"/>
        <pt x="221" y="514" on="0"/>
        <pt x="221" y="113" on="0"/>
        <pt x="232" y="38" on="1"/>
        <pt x="283" y="31" on="0"/>
        <pt x="328" y="17" on="1"/>
        <pt x="324" y="-8" on="1"/>
        <pt x="271" y="0" on="0"/>
        <pt x="98" y="0" on="0"/>
        <pt x="24" y="-8" on="1"/>
        <pt x="21" y="16" on="1"/>
        <pt x="78" y="30" on="0"/>
        <pt x="131" y="35" on="1"/>
        <pt x="144" y="131" on="0"/>
        <pt x="144" y="514" on="0"/>
        <pt x="133" y="608" on="1"/>
        <pt x="85" y="624" on="0"/>
        <pt x="35" y="624" on="1"/>
      </contour>
      <contour>
        <pt x="379" y="-84" on="1"/>
        <pt x="374" y="-163" on="0"/>
        <pt x="273" y="-215" on="1"/>
        <pt x="263" y="-202" on="1"/>
        <pt x="305" y="-171" on="0"/>
        <pt x="311" y="-134" on="1"/>
        <pt x="285" y="-110" on="0"/>
        <pt x="271" y="-84" on="1"/>
        <pt x="277" y="-72" on="0"/>
        <pt x="311" y="-41" on="0"/>
        <pt x="325" y="-34" on="1"/>
        <pt x="338" y="-42" on="0"/>
        <pt x="372" y="-73" on="0"/>
      </contour>
    </TTGlyph>
    <TTGlyph name="S" xMin="11" yMin="-27" xMax="447" yMax="666">
      <contour>
        <pt x="114" y="130" on="1"/>
        <pt x="116" y="90" on="1"/>
        <pt x="116" y="87" on="1"/>
        <pt x="173" y="64" on="0"/>
        <pt x="287" y="64" on="0"/>
        <pt x="354" y="117" on="0"/>
        <pt x="354" y="168" on="1"/>
        <pt x="354" y="198" on="0"/>
        <pt x="268" y="273" on="0"/>
        <pt x="164" y="333" on="0"/>
        <pt x="78" y="410" on="0"/>
        <pt x="78" y="442" on="1"/>
        <pt x="78" y="512" on="0"/>
        <pt x="207" y="643" on="0"/>
        <pt x="284" y="666" on="1"/>
        <pt x="370" y="666" on="0"/>
        <pt x="447" y="649" on="1"/>
        <pt x="447" y="629" on="1"/>
        <pt x="395" y="581" on="0"/>
        <pt x="389" y="481" on="1"/>
        <pt x="364" y="481" on="1"/>
        <pt x="364" y="534" on="0"/>
        <pt x="359" y="574" on="1"/>
        <pt x="316" y="594" on="0"/>
        <pt x="211" y="594" on="0"/>
        <pt x="145" y="550" on="0"/>
        <pt x="145" y="509" on="1"/>
        <pt x="145" y="479" on="0"/>
        <pt x="231" y="405" on="0"/>
        <pt x="334" y="346" on="0"/>
        <pt x="420" y="270" on="0"/>
        <pt x="420" y="238" on="1"/>
        <pt x="420" y="165" on="0"/>
        <pt x="291" y="15" on="0"/>
        <pt x="215" y="-15" on="1"/>
        <pt x="136" y="-15" on="0"/>
        <pt x="68" y="3" on="1"/>
        <pt x="47" y="-7" on="0"/>
        <pt x="26" y="-27" on="1"/>
        <pt x="11" y="-13" on="1"/>
        <pt x="80" y="60" on="0"/>
        <pt x="88" y="180" on="1"/>
        <pt x="113" y="180" on="1"/>
        <pt x="113" y="166" on="1"/>
      </contour>
    </TTGlyph>
    <TTGlyph name="Sacute" xMin="11" yMin="-27" xMax="447" yMax="868">
      <contour>
        <pt x="417" y="797" on="1"/>
        <pt x="211" y="722" on="1"/>
        <pt x="203" y="742" on="1"/>
        <pt x="285" y="778" on="0"/>
        <pt x="360" y="868" on="1"/>
        <pt x="382" y="866" on="0"/>
        <pt x="402" y="859" on="1"/>
        <pt x="407" y="850" on="0"/>
        <pt x="418" y="807" on="0"/>
      </contour>
      <contour>
        <pt x="114" y="130" on="1"/>
        <pt x="116" y="90" on="1"/>
        <pt x="116" y="87" on="1"/>
        <pt x="173" y="64" on="0"/>
        <pt x="287" y="64" on="0"/>
        <pt x="354" y="117" on="0"/>
        <pt x="354" y="168" on="1"/>
        <pt x="354" y="198" on="0"/>
        <pt x="268" y="273" on="0"/>
        <pt x="164" y="333" on="0"/>
        <pt x="78" y="410" on="0"/>
        <pt x="78" y="442" on="1"/>
        <pt x="78" y="512" on="0"/>
        <pt x="207" y="643" on="0"/>
        <pt x="284" y="666" on="1"/>
        <pt x="370" y="666" on="0"/>
        <pt x="447" y="649" on="1"/>
        <pt x="447" y="629" on="1"/>
        <pt x="395" y="581" on="0"/>
        <pt x="389" y="481" on="1"/>
        <pt x="364" y="481" on="1"/>
        <pt x="364" y="534" on="0"/>
        <pt x="359" y="574" on="1"/>
        <pt x="316" y="594" on="0"/>
        <pt x="211" y="594" on="0"/>
        <pt x="145" y="550" on="0"/>
        <pt x="145" y="509" on="1"/>
        <pt x="145" y="479" on="0"/>
        <pt x="231" y="405" on="0"/>
        <pt x="334" y="346" on="0"/>
        <pt x="420" y="270" on="0"/>
        <pt x="420" y="238" on="1"/>
        <pt x="420" y="165" on="0"/>
        <pt x="291" y="15" on="0"/>
        <pt x="215" y="-15" on="1"/>
        <pt x="136" y="-15" on="0"/>
        <pt x="68" y="3" on="1"/>
        <pt x="47" y="-7" on="0"/>
        <pt x="26" y="-27" on="1"/>
        <pt x="11" y="-13" on="1"/>
        <pt x="80" y="60" on="0"/>
        <pt x="88" y="180" on="1"/>
        <pt x="113" y="180" on="1"/>
        <pt x="113" y="166" on="1"/>
      </contour>
    </TTGlyph>
    <TTGlyph name="Scaron" xMin="11" yMin="-27" xMax="447" yMax="885">
      <contour>
        <pt x="273" y="810" on="1"/>
        <pt x="434" y="885" on="1"/>
        <pt x="444" y="866" on="1"/>
        <pt x="352" y="808" on="0"/>
        <pt x="283" y="715" on="1"/>
        <pt x="263" y="715" on="1"/>
        <pt x="194" y="808" on="0"/>
        <pt x="102" y="866" on="1"/>
        <pt x="112" y="885" on="1"/>
      </contour>
      <contour>
        <pt x="114" y="130" on="1"/>
        <pt x="116" y="90" on="1"/>
        <pt x="116" y="87" on="1"/>
        <pt x="173" y="64" on="0"/>
        <pt x="287" y="64" on="0"/>
        <pt x="354" y="117" on="0"/>
        <pt x="354" y="168" on="1"/>
        <pt x="354" y="198" on="0"/>
        <pt x="268" y="273" on="0"/>
        <pt x="164" y="333" on="0"/>
        <pt x="78" y="410" on="0"/>
        <pt x="78" y="442" on="1"/>
        <pt x="78" y="512" on="0"/>
        <pt x="207" y="643" on="0"/>
        <pt x="284" y="666" on="1"/>
        <pt x="370" y="666" on="0"/>
        <pt x="447" y="649" on="1"/>
        <pt x="447" y="629" on="1"/>
        <pt x="395" y="581" on="0"/>
        <pt x="389" y="481" on="1"/>
        <pt x="364" y="481" on="1"/>
        <pt x="364" y="534" on="0"/>
        <pt x="359" y="574" on="1"/>
        <pt x="316" y="594" on="0"/>
        <pt x="211" y="594" on="0"/>
        <pt x="145" y="550" on="0"/>
        <pt x="145" y="509" on="1"/>
        <pt x="145" y="479" on="0"/>
        <pt x="231" y="405" on="0"/>
        <pt x="334" y="346" on="0"/>
        <pt x="420" y="270" on="0"/>
        <pt x="420" y="238" on="1"/>
        <pt x="420" y="165" on="0"/>
        <pt x="291" y="15" on="0"/>
        <pt x="215" y="-15" on="1"/>
        <pt x="136" y="-15" on="0"/>
        <pt x="68" y="3" on="1"/>
        <pt x="47" y="-7" on="0"/>
        <pt x="26" y="-27" on="1"/>
        <pt x="11" y="-13" on="1"/>
        <pt x="80" y="60" on="0"/>
        <pt x="88" y="180" on="1"/>
        <pt x="113" y="180" on="1"/>
        <pt x="113" y="166" on="1"/>
      </contour>
    </TTGlyph>
    <TTGlyph name="Scedilla" xMin="11" yMin="-215" xMax="447" yMax="666">
      <contour>
        <pt x="114" y="130" on="1"/>
        <pt x="116" y="90" on="1"/>
        <pt x="116" y="87" on="1"/>
        <pt x="173" y="64" on="0"/>
        <pt x="287" y="64" on="0"/>
        <pt x="354" y="117" on="0"/>
        <pt x="354" y="168" on="1"/>
        <pt x="354" y="198" on="0"/>
        <pt x="268" y="273" on="0"/>
        <pt x="164" y="333" on="0"/>
        <pt x="78" y="410" on="0"/>
        <pt x="78" y="442" on="1"/>
        <pt x="78" y="512" on="0"/>
        <pt x="207" y="643" on="0"/>
        <pt x="284" y="666" on="1"/>
        <pt x="370" y="666" on="0"/>
        <pt x="447" y="649" on="1"/>
        <pt x="447" y="629" on="1"/>
        <pt x="395" y="581" on="0"/>
        <pt x="389" y="481" on="1"/>
        <pt x="364" y="481" on="1"/>
        <pt x="364" y="534" on="0"/>
        <pt x="359" y="574" on="1"/>
        <pt x="316" y="594" on="0"/>
        <pt x="211" y="594" on="0"/>
        <pt x="145" y="550" on="0"/>
        <pt x="145" y="509" on="1"/>
        <pt x="145" y="479" on="0"/>
        <pt x="231" y="405" on="0"/>
        <pt x="334" y="346" on="0"/>
        <pt x="420" y="270" on="0"/>
        <pt x="420" y="238" on="1"/>
        <pt x="420" y="165" on="0"/>
        <pt x="291" y="15" on="0"/>
        <pt x="215" y="-15" on="1"/>
        <pt x="136" y="-15" on="0"/>
        <pt x="68" y="3" on="1"/>
        <pt x="47" y="-7" on="0"/>
        <pt x="26" y="-27" on="1"/>
        <pt x="11" y="-13" on="1"/>
        <pt x="80" y="60" on="0"/>
        <pt x="88" y="180" on="1"/>
        <pt x="113" y="180" on="1"/>
        <pt x="113" y="166" on="1"/>
      </contour>
      <contour>
        <pt x="214" y="-178" on="1"/>
        <pt x="232" y="-178" on="0"/>
        <pt x="240" y="-173" on="1"/>
        <pt x="249" y="-160" on="0"/>
        <pt x="249" y="-142" on="1"/>
        <pt x="249" y="-97" on="0"/>
        <pt x="166" y="-97" on="1"/>
        <pt x="160" y="-93" on="1"/>
        <pt x="198" y="14" on="1"/>
        <pt x="227" y="16" on="1"/>
        <pt x="203" y="-46" on="1"/>
        <pt x="207" y="-49" on="1"/>
        <pt x="253" y="-49" on="0"/>
        <pt x="310" y="-91" on="0"/>
        <pt x="310" y="-133" on="1"/>
        <pt x="296" y="-160" on="0"/>
        <pt x="243" y="-205" on="0"/>
        <pt x="214" y="-215" on="1"/>
        <pt x="170" y="-215" on="0"/>
        <pt x="126" y="-194" on="1"/>
        <pt x="136" y="-175" on="0"/>
        <pt x="142" y="-155" on="1"/>
        <pt x="146" y="-153" on="1"/>
        <pt x="178" y="-178" on="0"/>
      </contour>
    </TTGlyph>
    <TTGlyph name="Scircumflex" xMin="11" yMin="-27" xMax="447" yMax="885">
      <contour>
        <pt x="434" y="715" on="1"/>
        <pt x="273" y="790" on="1"/>
        <pt x="112" y="715" on="1"/>
        <pt x="102" y="734" on="1"/>
        <pt x="194" y="792" on="0"/>
        <pt x="263" y="885" on="1"/>
        <pt x="283" y="885" on="1"/>
        <pt x="352" y="792" on="0"/>
        <pt x="444" y="734" on="1"/>
      </contour>
      <contour>
        <pt x="114" y="130" on="1"/>
        <pt x="116" y="90" on="1"/>
        <pt x="116" y="87" on="1"/>
        <pt x="173" y="64" on="0"/>
        <pt x="287" y="64" on="0"/>
        <pt x="354" y="117" on="0"/>
        <pt x="354" y="168" on="1"/>
        <pt x="354" y="198" on="0"/>
        <pt x="268" y="273" on="0"/>
        <pt x="164" y="333" on="0"/>
        <pt x="78" y="410" on="0"/>
        <pt x="78" y="442" on="1"/>
        <pt x="78" y="512" on="0"/>
        <pt x="207" y="643" on="0"/>
        <pt x="284" y="666" on="1"/>
        <pt x="370" y="666" on="0"/>
        <pt x="447" y="649" on="1"/>
        <pt x="447" y="629" on="1"/>
        <pt x="395" y="581" on="0"/>
        <pt x="389" y="481" on="1"/>
        <pt x="364" y="481" on="1"/>
        <pt x="364" y="534" on="0"/>
        <pt x="359" y="574" on="1"/>
        <pt x="316" y="594" on="0"/>
        <pt x="211" y="594" on="0"/>
        <pt x="145" y="550" on="0"/>
        <pt x="145" y="509" on="1"/>
        <pt x="145" y="479" on="0"/>
        <pt x="231" y="405" on="0"/>
        <pt x="334" y="346" on="0"/>
        <pt x="420" y="270" on="0"/>
        <pt x="420" y="238" on="1"/>
        <pt x="420" y="165" on="0"/>
        <pt x="291" y="15" on="0"/>
        <pt x="215" y="-15" on="1"/>
        <pt x="136" y="-15" on="0"/>
        <pt x="68" y="3" on="1"/>
        <pt x="47" y="-7" on="0"/>
        <pt x="26" y="-27" on="1"/>
        <pt x="11" y="-13" on="1"/>
        <pt x="80" y="60" on="0"/>
        <pt x="88" y="180" on="1"/>
        <pt x="113" y="180" on="1"/>
        <pt x="113" y="166" on="1"/>
      </contour>
    </TTGlyph>
    <TTGlyph name="T" xMin="-13" yMin="-8" xMax="548" yMax="662">
      <contour>
        <pt x="352" y="614" on="1"/>
        <pt x="325" y="614" on="0"/>
        <pt x="308" y="609" on="1"/>
        <pt x="298" y="541" on="0"/>
        <pt x="298" y="131" on="0"/>
        <pt x="311" y="35" on="1"/>
        <pt x="361" y="30" on="0"/>
        <pt x="421" y="16" on="1"/>
        <pt x="418" y="-8" on="1"/>
        <pt x="344" y="0" on="0"/>
        <pt x="171" y="0" on="0"/>
        <pt x="118" y="-8" on="1"/>
        <pt x="114" y="17" on="1"/>
        <pt x="159" y="31" on="0"/>
        <pt x="210" y="38" on="1"/>
        <pt x="221" y="120" on="0"/>
        <pt x="221" y="296" on="1"/>
        <pt x="221" y="355" on="1"/>
        <pt x="221" y="458" on="0"/>
        <pt x="208" y="609" on="1"/>
        <pt x="191" y="614" on="0"/>
        <pt x="107" y="614" on="0"/>
        <pt x="65" y="596" on="1"/>
        <pt x="52" y="554" on="0"/>
        <pt x="45" y="484" on="1"/>
        <pt x="20" y="484" on="1"/>
        <pt x="16" y="591" on="0"/>
        <pt x="-13" y="642" on="1"/>
        <pt x="-7" y="662" on="1"/>
        <pt x="89" y="651" on="0"/>
        <pt x="448" y="651" on="0"/>
        <pt x="544" y="662" on="1"/>
        <pt x="548" y="642" on="1"/>
        <pt x="515" y="607" on="0"/>
        <pt x="492" y="539" on="0"/>
        <pt x="489" y="484" on="1"/>
        <pt x="464" y="484" on="1"/>
        <pt x="455" y="527" on="0"/>
        <pt x="455" y="593" on="1"/>
        <pt x="412" y="614" on="0"/>
      </contour>
    </TTGlyph>
    <TTGlyph name="T_h" xMin="-13" yMin="-15" xMax="923" yMax="686">
      <contour>
        <pt x="801" y="291" on="1"/>
        <pt x="801" y="403" on="0"/>
        <pt x="755" y="403" on="1"/>
        <pt x="716" y="403" on="0"/>
        <pt x="610" y="305" on="0"/>
        <pt x="592" y="263" on="1"/>
        <pt x="592" y="118" on="0"/>
        <pt x="603" y="30" on="1"/>
        <pt x="630" y="24" on="0"/>
        <pt x="666" y="11" on="1"/>
        <pt x="664" y="-8" on="1"/>
        <pt x="608" y="0" on="0"/>
        <pt x="508" y="0" on="0"/>
        <pt x="457" y="-6" on="1"/>
        <pt x="454" y="13" on="1"/>
        <pt x="484" y="26" on="0"/>
        <pt x="513" y="33" on="1"/>
        <pt x="522" y="100" on="0"/>
        <pt x="522" y="190" on="1"/>
        <pt x="522" y="376" on="1"/>
        <pt x="522" y="508" on="0"/>
        <pt x="516" y="589" on="1"/>
        <pt x="469" y="614" on="0"/>
        <pt x="372" y="614" on="1"/>
        <pt x="341" y="614" on="0"/>
        <pt x="308" y="609" on="1"/>
        <pt x="298" y="541" on="0"/>
        <pt x="298" y="131" on="0"/>
        <pt x="311" y="35" on="1"/>
        <pt x="359" y="30" on="0"/>
        <pt x="407" y="19" on="1"/>
        <pt x="404" y="-7" on="1"/>
        <pt x="340" y="0" on="0"/>
        <pt x="171" y="0" on="0"/>
        <pt x="118" y="-8" on="1"/>
        <pt x="114" y="17" on="1"/>
        <pt x="159" y="31" on="0"/>
        <pt x="210" y="38" on="1"/>
        <pt x="221" y="120" on="0"/>
        <pt x="221" y="296" on="1"/>
        <pt x="221" y="355" on="1"/>
        <pt x="221" y="458" on="0"/>
        <pt x="208" y="609" on="1"/>
        <pt x="191" y="614" on="0"/>
        <pt x="107" y="614" on="0"/>
        <pt x="65" y="596" on="1"/>
        <pt x="52" y="554" on="0"/>
        <pt x="45" y="484" on="1"/>
        <pt x="20" y="484" on="1"/>
        <pt x="16" y="591" on="0"/>
        <pt x="-13" y="642" on="1"/>
        <pt x="-7" y="662" on="1"/>
        <pt x="89" y="651" on="0"/>
        <pt x="360" y="651" on="0"/>
        <pt x="416" y="652" on="1"/>
        <pt x="570" y="657" on="0"/>
        <pt x="649" y="686" on="1"/>
        <pt x="654" y="668" on="1"/>
        <pt x="635" y="653" on="0"/>
        <pt x="607" y="639" on="1"/>
        <pt x="592" y="556" on="0"/>
        <pt x="592" y="325" on="1"/>
        <pt x="596" y="324" on="1"/>
        <pt x="630" y="371" on="0"/>
        <pt x="739" y="470" on="0"/>
        <pt x="783" y="485" on="1"/>
        <pt x="844" y="485" on="0"/>
        <pt x="862" y="430" on="1"/>
        <pt x="874" y="391" on="0"/>
        <pt x="874" y="334" on="1"/>
        <pt x="874" y="325" on="0"/>
        <pt x="874" y="314" on="1"/>
        <pt x="869" y="33" on="1"/>
        <pt x="893" y="25" on="0"/>
        <pt x="923" y="25" on="1"/>
        <pt x="923" y="4" on="1"/>
        <pt x="859" y="1" on="0"/>
        <pt x="788" y="-15" on="1"/>
        <pt x="781" y="-11" on="1"/>
        <pt x="797" y="86" on="0"/>
        <pt x="800" y="269" on="1"/>
        <pt x="801" y="279" on="0"/>
      </contour>
    </TTGlyph>
    <TTGlyph name="Tbar" xMin="-13" yMin="-8" xMax="548" yMax="662">
      <contour>
        <pt x="352" y="614" on="1"/>
        <pt x="325" y="614" on="0"/>
        <pt x="308" y="609" on="1"/>
        <pt x="298" y="545" on="0"/>
        <pt x="298" y="371" on="1"/>
        <pt x="337" y="373" on="1"/>
        <pt x="400" y="376" on="0"/>
        <pt x="421" y="378" on="1"/>
        <pt x="425" y="358" on="0"/>
        <pt x="430" y="347" on="1"/>
        <pt x="430" y="342" on="1"/>
        <pt x="298" y="340" on="1"/>
        <pt x="298" y="129" on="0"/>
        <pt x="311" y="35" on="1"/>
        <pt x="361" y="30" on="0"/>
        <pt x="421" y="16" on="1"/>
        <pt x="418" y="-8" on="1"/>
        <pt x="344" y="0" on="0"/>
        <pt x="171" y="0" on="0"/>
        <pt x="118" y="-8" on="1"/>
        <pt x="114" y="17" on="1"/>
        <pt x="159" y="31" on="0"/>
        <pt x="210" y="38" on="1"/>
        <pt x="221" y="120" on="0"/>
        <pt x="221" y="296" on="1"/>
        <pt x="221" y="338" on="1"/>
        <pt x="210" y="338" on="1"/>
        <pt x="138" y="336" on="0"/>
        <pt x="92" y="329" on="1"/>
        <pt x="89" y="333" on="1"/>
        <pt x="95" y="353" on="0"/>
        <pt x="96" y="365" on="1"/>
        <pt x="221" y="369" on="1"/>
        <pt x="220" y="442" on="0"/>
        <pt x="208" y="609" on="1"/>
        <pt x="191" y="614" on="0"/>
        <pt x="107" y="614" on="0"/>
        <pt x="65" y="596" on="1"/>
        <pt x="52" y="554" on="0"/>
        <pt x="45" y="484" on="1"/>
        <pt x="20" y="484" on="1"/>
        <pt x="16" y="591" on="0"/>
        <pt x="-13" y="642" on="1"/>
        <pt x="-7" y="662" on="1"/>
        <pt x="89" y="651" on="0"/>
        <pt x="448" y="651" on="0"/>
        <pt x="544" y="662" on="1"/>
        <pt x="548" y="642" on="1"/>
        <pt x="515" y="607" on="0"/>
        <pt x="492" y="539" on="0"/>
        <pt x="489" y="484" on="1"/>
        <pt x="464" y="484" on="1"/>
        <pt x="455" y="527" on="0"/>
        <pt x="455" y="593" on="1"/>
        <pt x="412" y="614" on="0"/>
      </contour>
    </TTGlyph>
    <TTGlyph name="Tcaron" xMin="-13" yMin="-8" xMax="548" yMax="885">
      <contour>
        <pt x="264" y="810" on="1"/>
        <pt x="425" y="885" on="1"/>
        <pt x="435" y="866" on="1"/>
        <pt x="343" y="808" on="0"/>
        <pt x="274" y="715" on="1"/>
        <pt x="254" y="715" on="1"/>
        <pt x="185" y="808" on="0"/>
        <pt x="93" y="866" on="1"/>
        <pt x="103" y="885" on="1"/>
      </contour>
      <contour>
        <pt x="352" y="614" on="1"/>
        <pt x="325" y="614" on="0"/>
        <pt x="308" y="609" on="1"/>
        <pt x="298" y="541" on="0"/>
        <pt x="298" y="131" on="0"/>
        <pt x="311" y="35" on="1"/>
        <pt x="361" y="30" on="0"/>
        <pt x="421" y="16" on="1"/>
        <pt x="418" y="-8" on="1"/>
        <pt x="344" y="0" on="0"/>
        <pt x="171" y="0" on="0"/>
        <pt x="118" y="-8" on="1"/>
        <pt x="114" y="17" on="1"/>
        <pt x="159" y="31" on="0"/>
        <pt x="210" y="38" on="1"/>
        <pt x="221" y="120" on="0"/>
        <pt x="221" y="296" on="1"/>
        <pt x="221" y="355" on="1"/>
        <pt x="221" y="458" on="0"/>
        <pt x="208" y="609" on="1"/>
        <pt x="191" y="614" on="0"/>
        <pt x="107" y="614" on="0"/>
        <pt x="65" y="596" on="1"/>
        <pt x="52" y="554" on="0"/>
        <pt x="45" y="484" on="1"/>
        <pt x="20" y="484" on="1"/>
        <pt x="16" y="591" on="0"/>
        <pt x="-13" y="642" on="1"/>
        <pt x="-7" y="662" on="1"/>
        <pt x="89" y="651" on="0"/>
        <pt x="448" y="651" on="0"/>
        <pt x="544" y="662" on="1"/>
        <pt x="548" y="642" on="1"/>
        <pt x="515" y="607" on="0"/>
        <pt x="492" y="539" on="0"/>
        <pt x="489" y="484" on="1"/>
        <pt x="464" y="484" on="1"/>
        <pt x="455" y="527" on="0"/>
        <pt x="455" y="593" on="1"/>
        <pt x="412" y="614" on="0"/>
      </contour>
    </TTGlyph>
    <TTGlyph name="Tcedilla" xMin="-13" yMin="-215" xMax="548" yMax="662">
      <contour>
        <pt x="352" y="614" on="1"/>
        <pt x="325" y="614" on="0"/>
        <pt x="308" y="609" on="1"/>
        <pt x="298" y="541" on="0"/>
        <pt x="298" y="131" on="0"/>
        <pt x="311" y="35" on="1"/>
        <pt x="361" y="30" on="0"/>
        <pt x="421" y="16" on="1"/>
        <pt x="418" y="-8" on="1"/>
        <pt x="344" y="0" on="0"/>
        <pt x="171" y="0" on="0"/>
        <pt x="118" y="-8" on="1"/>
        <pt x="114" y="17" on="1"/>
        <pt x="159" y="31" on="0"/>
        <pt x="210" y="38" on="1"/>
        <pt x="221" y="120" on="0"/>
        <pt x="221" y="296" on="1"/>
        <pt x="221" y="355" on="1"/>
        <pt x="221" y="458" on="0"/>
        <pt x="208" y="609" on="1"/>
        <pt x="191" y="614" on="0"/>
        <pt x="107" y="614" on="0"/>
        <pt x="65" y="596" on="1"/>
        <pt x="52" y="554" on="0"/>
        <pt x="45" y="484" on="1"/>
        <pt x="20" y="484" on="1"/>
        <pt x="16" y="591" on="0"/>
        <pt x="-13" y="642" on="1"/>
        <pt x="-7" y="662" on="1"/>
        <pt x="89" y="651" on="0"/>
        <pt x="448" y="651" on="0"/>
        <pt x="544" y="662" on="1"/>
        <pt x="548" y="642" on="1"/>
        <pt x="515" y="607" on="0"/>
        <pt x="492" y="539" on="0"/>
        <pt x="489" y="484" on="1"/>
        <pt x="464" y="484" on="1"/>
        <pt x="455" y="527" on="0"/>
        <pt x="455" y="593" on="1"/>
        <pt x="412" y="614" on="0"/>
      </contour>
      <contour>
        <pt x="272" y="-178" on="1"/>
        <pt x="290" y="-178" on="0"/>
        <pt x="298" y="-173" on="1"/>
        <pt x="307" y="-160" on="0"/>
        <pt x="307" y="-142" on="1"/>
        <pt x="307" y="-97" on="0"/>
        <pt x="224" y="-97" on="1"/>
        <pt x="218" y="-93" on="1"/>
        <pt x="256" y="14" on="1"/>
        <pt x="285" y="16" on="1"/>
        <pt x="261" y="-46" on="1"/>
        <pt x="265" y="-49" on="1"/>
        <pt x="311" y="-49" on="0"/>
        <pt x="368" y="-91" on="0"/>
        <pt x="368" y="-133" on="1"/>
        <pt x="354" y="-160" on="0"/>
        <pt x="301" y="-205" on="0"/>
        <pt x="272" y="-215" on="1"/>
        <pt x="228" y="-215" on="0"/>
        <pt x="184" y="-194" on="1"/>
        <pt x="194" y="-175" on="0"/>
        <pt x="200" y="-155" on="1"/>
        <pt x="204" y="-153" on="1"/>
        <pt x="236" y="-178" on="0"/>
      </contour>
    </TTGlyph>
    <TTGlyph name="Thorn" xMin="21" yMin="-8" xMax="511" yMax="659">
      <contour>
        <pt x="211" y="525" on="1"/>
        <pt x="305" y="528" on="1"/>
        <pt x="511" y="528" on="0"/>
        <pt x="511" y="364" on="1"/>
        <pt x="511" y="275" on="0"/>
        <pt x="365" y="165" on="0"/>
        <pt x="268" y="165" on="1"/>
        <pt x="253" y="165" on="0"/>
        <pt x="246" y="166" on="1"/>
        <pt x="250" y="198" on="1"/>
        <pt x="262" y="198" on="1"/>
        <pt x="337" y="198" on="0"/>
        <pt x="417" y="274" on="0"/>
        <pt x="417" y="420" on="0"/>
        <pt x="355" y="491" on="0"/>
        <pt x="288" y="491" on="1"/>
        <pt x="248" y="491" on="0"/>
        <pt x="210" y="478" on="1"/>
        <pt x="209" y="478" on="1"/>
        <pt x="207" y="438" on="0"/>
        <pt x="207" y="131" on="0"/>
        <pt x="220" y="35" on="1"/>
        <pt x="273" y="30" on="0"/>
        <pt x="330" y="16" on="1"/>
        <pt x="327" y="-8" on="1"/>
        <pt x="253" y="0" on="0"/>
        <pt x="80" y="0" on="0"/>
        <pt x="27" y="-8" on="1"/>
        <pt x="23" y="17" on="1"/>
        <pt x="68" y="31" on="0"/>
        <pt x="119" y="38" on="1"/>
        <pt x="130" y="120" on="0"/>
        <pt x="130" y="296" on="1"/>
        <pt x="130" y="355" on="1"/>
        <pt x="130" y="517" on="0"/>
        <pt x="117" y="613" on="1"/>
        <pt x="66" y="620" on="0"/>
        <pt x="21" y="634" on="1"/>
        <pt x="25" y="659" on="1"/>
        <pt x="78" y="651" on="0"/>
        <pt x="251" y="651" on="0"/>
        <pt x="325" y="659" on="1"/>
        <pt x="328" y="635" on="1"/>
        <pt x="271" y="621" on="0"/>
        <pt x="218" y="616" on="1"/>
        <pt x="214" y="597" on="0"/>
      </contour>
    </TTGlyph>
    <TTGlyph name="U" xMin="14" yMin="-15" xMax="658" yMax="659">
      <contour>
        <pt x="197" y="549" on="1"/>
        <pt x="183" y="423" on="0"/>
        <pt x="183" y="236" on="0"/>
        <pt x="189" y="177" on="0"/>
        <pt x="207" y="121" on="0"/>
        <pt x="222" y="103" on="1"/>
        <pt x="256" y="64" on="0"/>
        <pt x="400" y="64" on="0"/>
        <pt x="453" y="112" on="1"/>
        <pt x="458" y="242" on="0"/>
        <pt x="458" y="502" on="0"/>
        <pt x="447" y="616" on="1"/>
        <pt x="396" y="623" on="0"/>
        <pt x="351" y="637" on="1"/>
        <pt x="355" y="659" on="1"/>
        <pt x="416" y="651" on="0"/>
        <pt x="591" y="651" on="0"/>
        <pt x="655" y="659" on="1"/>
        <pt x="658" y="638" on="1"/>
        <pt x="601" y="624" on="0"/>
        <pt x="548" y="619" on="1"/>
        <pt x="535" y="545" on="0"/>
        <pt x="535" y="355" on="1"/>
        <pt x="535" y="296" on="1"/>
        <pt x="535" y="109" on="0"/>
        <pt x="548" y="35" on="1"/>
        <pt x="601" y="30" on="0"/>
        <pt x="658" y="16" on="1"/>
        <pt x="655" y="-8" on="1"/>
        <pt x="591" y="0" on="0"/>
        <pt x="459" y="0" on="0"/>
        <pt x="441" y="-1" on="1"/>
        <pt x="438" y="13" on="1"/>
        <pt x="447" y="24" on="0"/>
        <pt x="451" y="84" on="1"/>
        <pt x="393" y="19" on="0"/>
        <pt x="305" y="-15" on="1"/>
        <pt x="194" y="-15" on="0"/>
        <pt x="103" y="116" on="0"/>
        <pt x="103" y="241" on="1"/>
        <pt x="103" y="298" on="0"/>
        <pt x="117" y="546" on="0"/>
        <pt x="117" y="592" on="0"/>
        <pt x="110" y="613" on="1"/>
        <pt x="59" y="620" on="0"/>
        <pt x="14" y="634" on="1"/>
        <pt x="18" y="659" on="1"/>
        <pt x="77" y="651" on="0"/>
        <pt x="214" y="651" on="0"/>
        <pt x="245" y="655" on="1"/>
        <pt x="249" y="641" on="1"/>
        <pt x="204" y="616" on="0"/>
      </contour>
    </TTGlyph>
    <TTGlyph name="Uacute" xMin="14" yMin="-15" xMax="658" yMax="868">
      <contour>
        <pt x="197" y="549" on="1"/>
        <pt x="183" y="423" on="0"/>
        <pt x="183" y="236" on="0"/>
        <pt x="189" y="177" on="0"/>
        <pt x="207" y="121" on="0"/>
        <pt x="222" y="103" on="1"/>
        <pt x="256" y="64" on="0"/>
        <pt x="400" y="64" on="0"/>
        <pt x="453" y="112" on="1"/>
        <pt x="458" y="242" on="0"/>
        <pt x="458" y="502" on="0"/>
        <pt x="447" y="616" on="1"/>
        <pt x="396" y="623" on="0"/>
        <pt x="351" y="637" on="1"/>
        <pt x="355" y="659" on="1"/>
        <pt x="416" y="651" on="0"/>
        <pt x="591" y="651" on="0"/>
        <pt x="655" y="659" on="1"/>
        <pt x="658" y="638" on="1"/>
        <pt x="601" y="624" on="0"/>
        <pt x="548" y="619" on="1"/>
        <pt x="535" y="545" on="0"/>
        <pt x="535" y="355" on="1"/>
        <pt x="535" y="296" on="1"/>
        <pt x="535" y="109" on="0"/>
        <pt x="548" y="35" on="1"/>
        <pt x="601" y="30" on="0"/>
        <pt x="658" y="16" on="1"/>
        <pt x="655" y="-8" on="1"/>
        <pt x="591" y="0" on="0"/>
        <pt x="459" y="0" on="0"/>
        <pt x="441" y="-1" on="1"/>
        <pt x="438" y="13" on="1"/>
        <pt x="447" y="24" on="0"/>
        <pt x="451" y="84" on="1"/>
        <pt x="393" y="19" on="0"/>
        <pt x="305" y="-15" on="1"/>
        <pt x="194" y="-15" on="0"/>
        <pt x="103" y="116" on="0"/>
        <pt x="103" y="241" on="1"/>
        <pt x="103" y="298" on="0"/>
        <pt x="117" y="546" on="0"/>
        <pt x="117" y="592" on="0"/>
        <pt x="110" y="613" on="1"/>
        <pt x="59" y="620" on="0"/>
        <pt x="14" y="634" on="1"/>
        <pt x="18" y="659" on="1"/>
        <pt x="77" y="651" on="0"/>
        <pt x="214" y="651" on="0"/>
        <pt x="245" y="655" on="1"/>
        <pt x="249" y="641" on="1"/>
        <pt x="204" y="616" on="0"/>
      </contour>
      <contour>
        <pt x="519" y="797" on="1"/>
        <pt x="313" y="722" on="1"/>
        <pt x="305" y="742" on="1"/>
        <pt x="387" y="778" on="0"/>
        <pt x="462" y="868" on="1"/>
        <pt x="484" y="866" on="0"/>
        <pt x="504" y="859" on="1"/>
        <pt x="509" y="850" on="0"/>
        <pt x="520" y="807" on="0"/>
      </contour>
    </TTGlyph>
    <TTGlyph name="Ubreve" xMin="14" yMin="-15" xMax="658" yMax="854">
      <contour>
        <pt x="197" y="549" on="1"/>
        <pt x="183" y="423" on="0"/>
        <pt x="183" y="236" on="0"/>
        <pt x="189" y="177" on="0"/>
        <pt x="207" y="121" on="0"/>
        <pt x="222" y="103" on="1"/>
        <pt x="256" y="64" on="0"/>
        <pt x="400" y="64" on="0"/>
        <pt x="453" y="112" on="1"/>
        <pt x="458" y="242" on="0"/>
        <pt x="458" y="502" on="0"/>
        <pt x="447" y="616" on="1"/>
        <pt x="396" y="623" on="0"/>
        <pt x="351" y="637" on="1"/>
        <pt x="355" y="659" on="1"/>
        <pt x="416" y="651" on="0"/>
        <pt x="591" y="651" on="0"/>
        <pt x="655" y="659" on="1"/>
        <pt x="658" y="638" on="1"/>
        <pt x="601" y="624" on="0"/>
        <pt x="548" y="619" on="1"/>
        <pt x="535" y="545" on="0"/>
        <pt x="535" y="355" on="1"/>
        <pt x="535" y="296" on="1"/>
        <pt x="535" y="109" on="0"/>
        <pt x="548" y="35" on="1"/>
        <pt x="601" y="30" on="0"/>
        <pt x="658" y="16" on="1"/>
        <pt x="655" y="-8" on="1"/>
        <pt x="591" y="0" on="0"/>
        <pt x="459" y="0" on="0"/>
        <pt x="441" y="-1" on="1"/>
        <pt x="438" y="13" on="1"/>
        <pt x="447" y="24" on="0"/>
        <pt x="451" y="84" on="1"/>
        <pt x="393" y="19" on="0"/>
        <pt x="305" y="-15" on="1"/>
        <pt x="194" y="-15" on="0"/>
        <pt x="103" y="116" on="0"/>
        <pt x="103" y="241" on="1"/>
        <pt x="103" y="298" on="0"/>
        <pt x="117" y="546" on="0"/>
        <pt x="117" y="592" on="0"/>
        <pt x="110" y="613" on="1"/>
        <pt x="59" y="620" on="0"/>
        <pt x="14" y="634" on="1"/>
        <pt x="18" y="659" on="1"/>
        <pt x="77" y="651" on="0"/>
        <pt x="214" y="651" on="0"/>
        <pt x="245" y="655" on="1"/>
        <pt x="249" y="641" on="1"/>
        <pt x="204" y="616" on="0"/>
      </contour>
      <contour>
        <pt x="376" y="785" on="1"/>
        <pt x="446" y="785" on="0"/>
        <pt x="483" y="854" on="1"/>
        <pt x="501" y="843" on="1"/>
        <pt x="480" y="800" on="0"/>
        <pt x="406" y="734" on="0"/>
        <pt x="362" y="719" on="1"/>
        <pt x="313" y="719" on="0"/>
        <pt x="205" y="785" on="0"/>
        <pt x="186" y="829" on="1"/>
        <pt x="187" y="838" on="1"/>
        <pt x="230" y="840" on="0"/>
        <pt x="258" y="854" on="1"/>
        <pt x="262" y="854" on="1"/>
        <pt x="276" y="821" on="0"/>
        <pt x="338" y="785" on="0"/>
      </contour>
    </TTGlyph>
</ttFont>
